<?xml version="1.0" standalone="no"?>
<!DOCTYPE svg PUBLIC "-//W3C//DTD SVG 1.1//EN" "http://www.w3.org/Graphics/SVG/1.1/DTD/svg11.dtd" >
<svg>
<metadata>
Created by FontForge 20090914 at Mon May 21 10:05:02 2012
 By ffonts
Copyright SIL International, all rights reserved
</metadata>
<defs>
<font id="-Regular" horiz-adv-x="0" >
  <font-face 
    font-family="Padauk Book"
    font-weight="400"
    font-stretch="normal"
    units-per-em="1024"
    panose-1="2 0 6 0 2 0 0 2 0 4"
    ascent="819"
    descent="-205"
    x-height="445"
    cap-height="643"
    bbox="-786 -498 2116 963"
    underline-thickness="50"
    underline-position="-400"
    unicode-range="U+0020-U+AA7B"
  />
<missing-glyph horiz-adv-x="581" 
d="M525 461v-464h-470v464h470zM107 410v-361h368v361h-368z" />
    <glyph glyph-name=".notdef" horiz-adv-x="581" 
d="M525 461v-464h-470v464h470zM107 410v-361h368v361h-368z" />
    <glyph glyph-name=".null" 
 />
    <glyph glyph-name="nonmarkingreturn" horiz-adv-x="399" 
 />
    <glyph glyph-name="space" unicode=" " horiz-adv-x="441" 
 />
    <glyph glyph-name="exclam" unicode="!" horiz-adv-x="251" 
d="M196 50q0 -28 -21 -48t-49 -20t-49 20t-21 48q0 29 21 48.5t49 19.5t49 -19.5t21 -48.5zM126 813q18 0 29.5 -14.5t13.5 -43.5q1 -14 1.5 -31t0.5 -36q0 -117 -6 -224t-17 -196l-5 -40.5t-4.5 -23.5t-5.5 -11t-7 -3q-5 0 -7.5 3t-5 11t-4.5 23.5l-5 40.5q-11 89 -17 196
t-6 224q0 19 0.5 36t1.5 31q2 29 13.5 43.5t29.5 14.5z" />
    <glyph glyph-name="quotedbl" unicode="&#x22;" horiz-adv-x="423" 
d="M338 386h-64l-21 257h107zM147 386h-64l-21 257h107z" />
    <glyph glyph-name="numbersign" unicode="#" horiz-adv-x="535" 
d="M374 99l-16 -127h-72l16 127h-102l-16 -127h-72l16 127h-73v72h82l13 102h-95v72h105l18 142h72l-19 -142h103l18 142h72l-19 -142h74v-72h-83l-13 -102h96v-72h-105zM222 273l-13 -102h102l13 102h-102z" />
    <glyph glyph-name="dollar" unicode="$" horiz-adv-x="502" 
d="M473 177q0 -48 -17 -82.5t-44.5 -57t-63.5 -34.5t-73 -15v-81h-46v80q-99 3 -149.5 58t-50.5 146h100q0 -49 22 -82.5t78 -35.5v210q-39 11 -73 22.5t-60 30t-41 48.5t-15 78q0 39 14 72t39 57t59.5 37.5t76.5 13.5v66h46v-65q43 0 76 -14t55 -38t33 -56.5t11 -69.5h-100
q0 49 -16.5 69.5t-58.5 22.5v-190l63.5 -17t64.5 -28.5t50 -53.5t20 -91zM229 556q-30 -2 -47.5 -9.5t-27 -19.5t-12.5 -28t-3 -34q0 -23 6 -36.5t17.5 -22t28 -14l38.5 -12.5v176zM374 169q0 28 -7 46t-20 29t-31.5 18t-40.5 13v-201q47 3 73 23.5t26 71.5z" />
    <glyph glyph-name="percent" unicode="%" horiz-adv-x="682" 
d="M185 -68l-55 46l364 518l59 -44zM296 340q0 -25 -10.5 -48t-27.5 -41t-40.5 -28.5t-48.5 -10.5q-26 0 -49.5 10.5t-41 28.5t-28 41t-10.5 48q0 26 10.5 49.5t28 41.5t41 28.5t49.5 10.5q25 0 48.5 -10.5t40.5 -28.5t27.5 -41.5t10.5 -49.5zM642 89q0 -25 -10.5 -48.5
t-27.5 -41.5t-40.5 -28.5t-48.5 -10.5q-26 0 -49 10.5t-40.5 28.5t-28 41.5t-10.5 48.5q0 26 10.5 49.5t28 41t40.5 28t49 10.5q25 0 48.5 -10.5t40.5 -28t27.5 -41t10.5 -49.5zM232 340q0 26 -19 46t-44 20q-29 0 -47.5 -20t-18.5 -46t19 -45.5t47 -19.5q25 0 44 19.5
t19 45.5zM579 89q0 13 -5.5 25t-14.5 21t-20.5 14.5t-23.5 5.5q-28 0 -47 -20t-19 -46t19 -46t47 -20q12 0 23.5 5.5t20.5 14.5t14.5 21t5.5 25z" />
    <glyph glyph-name="ampersand" unicode="&#x26;" horiz-adv-x="689" 
d="M547 0l-63 57q-35 -29 -87 -49t-117 -20q-45 0 -86 12.5t-73 37.5t-51 60.5t-19 82.5q0 38 10.5 67.5t28.5 52t43.5 40t55.5 31.5q-32 31 -52.5 68t-20.5 76q0 33 14 59t37.5 43.5t54 27t62.5 9.5q34 0 64.5 -8t53.5 -23.5t37 -38.5t14 -53q0 -34 -13 -60.5t-33.5 -47
t-44.5 -36.5t-46 -29q35 -44 74.5 -85.5t84.5 -84.5q14 41 16.5 80.5t-2.5 87.5h103q-1 -66 -12.5 -122.5t-38.5 -109.5q9 -11 25.5 -27.5t36 -33.5l40 -34t38.5 -30h-134zM367 520q0 12 -6 23t-16 20t-23.5 14t-27.5 5q-42 0 -61.5 -19.5t-19.5 -45.5q0 -24 14.5 -49.5
t40.5 -56.5q40 19 69.5 48.5t29.5 60.5zM426 115q-54 49 -101.5 100l-88.5 99q-18 -8 -33 -22t-26 -31t-17.5 -36.5t-6.5 -37.5q0 -21 10 -42t27.5 -38.5t41.5 -28.5t51 -11q40 0 76.5 10.5t66.5 37.5z" />
    <glyph glyph-name="quotesingle" unicode="'" horiz-adv-x="341" 
d="M202 386h-65l-21 257h107z" />
    <glyph glyph-name="parenleft" unicode="(" horiz-adv-x="418" 
d="M289 -457q-59 73 -99.5 150t-66.5 160.5t-37.5 173.5t-11.5 188q0 101 13 193t39.5 177.5t67.5 166t97 158.5h77q-113 -155 -167.5 -323.5t-54.5 -371.5q0 -188 52.5 -358t169.5 -314h-79z" />
    <glyph glyph-name="parenright" unicode=")" horiz-adv-x="419" 
d="M344 223q0 -98 -11.5 -188t-37 -173.5t-66.5 -160.5t-100 -150h-79q117 143 169.5 314t52.5 358q0 203 -54.5 371.5t-167.5 323.5h77q56 -78 97 -158.5t67.5 -166t39.5 -177.5t13 -193z" />
    <glyph glyph-name="asterisk" unicode="*" horiz-adv-x="566" 
d="M472 305l-150 88v-175h-75v175l-152 -88l-40 65l154 88l-154 89l40 63l149 -86v175h78v-175l150 86l39 -64l-154 -88l154 -87z" />
    <glyph glyph-name="plus" unicode="+" horiz-adv-x="574" 
d="M481 187h-158v-157h-72v157h-158v72h158v160h72v-160h158v-72z" />
    <glyph glyph-name="comma" unicode="," horiz-adv-x="240" 
d="M200 58q0 -36 -9.5 -69.5t-25 -61t-35 -47.5t-38.5 -29l-14 12q27 20 45 55t18 78q0 11 -0.5 16t-2.5 10q-4 -3 -12.5 -7.5t-19 -8t-21.5 -6.5t-18 -3q-14 0 -20.5 20t-6.5 41q0 18 6.5 33.5t18 26.5t26 17.5t29.5 6.5q33 0 56.5 -23.5t23.5 -60.5z" />
    <glyph glyph-name="hyphen" unicode="-" horiz-adv-x="499" 
d="M443 185h-388v72h388v-72z" />
    <glyph glyph-name="period" unicode="." horiz-adv-x="221" 
d="M181 50q0 -28 -21.5 -48t-48.5 -20q-28 0 -49.5 20t-21.5 48q0 29 21.5 48.5t49.5 19.5q27 0 48.5 -19.5t21.5 -48.5z" />
    <glyph glyph-name="slash" unicode="/" horiz-adv-x="516" 
d="M110 -233l-55 55l350 997l55 -53z" />
    <glyph glyph-name="zero" unicode="0" horiz-adv-x="502" 
d="M462 330q0 -66 -9 -127.5t-32 -109.5t-64.5 -77t-105.5 -29q-65 0 -106 29t-64 77t-32 109.5t-9 127.5t9 125t32 103.5t64 70.5t106 26q64 0 105.5 -26t64.5 -70.5t32 -103.5t9 -125zM362 330q0 49 -3.5 93.5t-15 78.5t-33.5 54t-59 20q-38 0 -60 -20t-33.5 -54
t-14.5 -78.5t-3 -93.5t3 -96.5t14.5 -84.5t33.5 -60t60 -23q37 0 59 23t33.5 60t15 84.5t3.5 96.5z" />
    <glyph glyph-name="one" unicode="1" horiz-adv-x="502" 
d="M250 0v529q-32 -27 -68 -46.5t-76 -30.5v86q45 15 80.5 42.5t61.5 62.5h97v-643h-95z" />
    <glyph glyph-name="two" unicode="2" horiz-adv-x="502" 
d="M46 0v93q109 82 170.5 143t92 105.5t38 75t7.5 51.5q0 50 -21.5 77.5t-69.5 27.5q-91 0 -100 -106h-104q2 42 16.5 76.5t40.5 59t62.5 38.5t83.5 14q46 0 82 -14.5t61 -39t38 -56.5t13 -66q0 -36 -8.5 -73.5t-39 -84t-90 -105t-161.5 -136.5h299v-80h-410z" />
    <glyph glyph-name="three" unicode="3" horiz-adv-x="502" 
d="M460 174q0 -41 -16.5 -75t-45 -59t-67 -39t-82.5 -14q-54 0 -93.5 14.5t-65 40t-37.5 59.5t-12 72h105q1 -21 7.5 -40.5t18.5 -34.5t30.5 -24t45.5 -9q22 0 42 8t35.5 22.5t24.5 34.5t9 43q0 36 -8.5 60t-25.5 37.5t-43.5 19t-62.5 5.5v80q67 0 97.5 23.5t30.5 84.5
q0 26 -9 44t-23.5 29t-32 16t-34.5 5q-42 0 -66.5 -26.5t-30.5 -75.5h-101q8 86 58.5 133t138.5 47q46 0 83 -13.5t63.5 -36.5t41 -55t14.5 -69q0 -32 -7 -55t-18.5 -39.5t-27 -28.5t-32.5 -21q20 -10 37.5 -22t30.5 -31t20.5 -45.5t7.5 -64.5z" />
    <glyph glyph-name="four" unicode="4" horiz-adv-x="502" 
d="M398 151v-151h-95v151h-280v100l258 392h117v-408h80v-84h-80zM303 538l-195 -303h195v303z" />
    <glyph glyph-name="five" unicode="5" horiz-adv-x="502" 
d="M459 215q0 -43 -16 -83.5t-43.5 -72.5t-65.5 -51.5t-82 -19.5q-47 0 -85.5 11.5t-65.5 33t-42.5 53t-16.5 72.5h103q0 -46 27.5 -68.5t72.5 -22.5q24 0 44.5 10.5t35.5 29t23.5 45.5t8.5 60q0 64 -23 101t-77 37q-43 0 -69.5 -23.5t-44.5 -61.5h-91l14 378h354v-84h-257
l-10 -190q23 27 52 41.5t78 14.5q42 0 74.5 -17.5t55 -46.5t34.5 -67t12 -79z" />
    <glyph glyph-name="six" unicode="6" horiz-adv-x="502" 
d="M464 200q0 -33 -9.5 -70.5t-33.5 -69t-64 -52.5t-101 -21q-71 0 -114 22.5t-66 63.5t-30.5 99t-7.5 129q0 62 8.5 125t33 114t68.5 83t115 32q85 0 130 -43t55 -124h-98q-3 48 -26 68.5t-61 20.5q-42 0 -67 -29t-38 -69.5t-17 -84.5t-4 -73q11 17 23.5 31.5t29 25.5
t38.5 17t51 6q56 0 92 -20t56.5 -50t28.5 -65.5t8 -65.5zM361 196q0 63 -24.5 96.5t-79.5 33.5q-57 0 -81.5 -33.5t-24.5 -96.5t24.5 -97t81.5 -34q55 0 79.5 34t24.5 97z" />
    <glyph glyph-name="seven" unicode="7" horiz-adv-x="502" 
d="M242 0h-114l234 561h-315v82h408v-101z" />
    <glyph glyph-name="eight" unicode="8" horiz-adv-x="502" 
d="M467 165q0 -50 -19.5 -83.5t-51 -54.5t-70 -30t-75.5 -9q-38 0 -76.5 9.5t-69 30.5t-50 54.5t-19.5 82.5q0 38 11 67t28.5 50.5t39 36t43.5 23.5q-20 8 -39 21t-34 31.5t-24 43.5t-9 57q0 43 18 73t46.5 49.5t64 28.5t70.5 9q36 0 71.5 -8.5t64 -28t46.5 -50t18 -74.5
q0 -30 -10 -54.5t-25.5 -43.5t-35.5 -32.5t-40 -21.5q20 -7 42.5 -21t41 -36t31 -51.5t12.5 -68.5zM352 478q0 47 -26.5 73t-74.5 26q-47 0 -73.5 -26t-26.5 -73q0 -45 29 -71.5t71 -26.5t71.5 26.5t29.5 71.5zM366 185q0 51 -29.5 83.5t-85.5 32.5q-54 0 -84.5 -33
t-30.5 -83t28 -84.5t87 -34.5q30 0 52 9.5t36 25.5t20.5 37.5t6.5 46.5z" />
    <glyph glyph-name="nine" unicode="9" horiz-adv-x="502" 
d="M464 341q0 -62 -9 -125t-34 -114t-68.5 -83t-113.5 -32q-83 0 -130.5 44t-55.5 124h99q2 -48 26 -69t61 -21q41 0 66 28.5t38.5 68.5t17.5 84t4 75q-23 -39 -57.5 -59.5t-85.5 -20.5q-57 0 -93 20.5t-56 51t-27.5 65.5t-7.5 64q0 34 10 71.5t34 69t64 52t100 20.5
q72 0 115 -23t66 -64.5t30 -99.5t7 -127zM350 446q0 64 -24 97.5t-81 33.5q-56 0 -80 -33.5t-24 -97.5q0 -63 24 -96.5t80 -33.5q57 0 81 33.5t24 96.5z" />
    <glyph glyph-name="colon" unicode=":" horiz-adv-x="221" 
d="M181 392q0 -28 -21.5 -48t-48.5 -20q-28 0 -49.5 20t-21.5 48q0 29 21.5 49t49.5 20q27 0 48.5 -20t21.5 -49zM181 51q0 -28 -21.5 -48.5t-48.5 -20.5q-28 0 -49.5 20.5t-21.5 48.5q0 29 21.5 48.5t49.5 19.5q27 0 48.5 -19.5t21.5 -48.5z" />
    <glyph glyph-name="semicolon" unicode=";" horiz-adv-x="226" 
d="M181 393q0 -28 -21.5 -48.5t-48.5 -20.5q-28 0 -49.5 20.5t-21.5 48.5q0 29 21.5 48.5t49.5 19.5q27 0 48.5 -19.5t21.5 -48.5zM179 44q0 -27 -8 -52t-20.5 -46t-28 -37t-29.5 -25l-12 10q20 15 34.5 43t14.5 66q0 9 -1 13q-16 -8 -36 -14t-28 -6q-9 0 -17 14t-8 39
q0 14 5.5 26.5t15 22.5t21.5 15.5t25 5.5q30 0 51 -22t21 -53z" />
    <glyph glyph-name="less" unicode="&#x3c;" horiz-adv-x="891" 
d="M712 34l-534 204v57l534 204v-65l-449 -167l449 -167v-66z" />
    <glyph glyph-name="equal" unicode="=" horiz-adv-x="581" 
d="M535 95h-490v71h490v-71zM535 278h-490v72h490v-72z" />
    <glyph glyph-name="greater" unicode="&#x3e;" horiz-adv-x="891" 
d="M712 238l-534 -204v66l449 167l-449 167v65l534 -204v-57z" />
    <glyph glyph-name="question" unicode="?" horiz-adv-x="447" 
d="M268 56q0 -27 -18 -43.5t-41 -16.5t-41 17t-18 43q0 27 18 42.5t41 15.5t41 -15.5t18 -42.5zM392 587q0 -38 -11 -63t-27 -43t-35.5 -31.5t-35.5 -27.5t-27 -32t-11 -45v-145h-72v160q0 31 11 53t27 38.5t35.5 29.5t35.5 28t27 33t11 45q0 21 -9 41.5t-24.5 36.5
t-35.5 26t-42 10q-26 0 -46.5 -12t-34.5 -29.5t-21.5 -37t-7.5 -33.5v-38h-72v38q0 21 10.5 52.5t32.5 61t56.5 50t82.5 20.5q42 0 75.5 -16t57.5 -42t37 -59.5t13 -68.5z" />
    <glyph glyph-name="at" unicode="@" horiz-adv-x="903" 
d="M855 268q0 -48 -13 -93.5t-37 -81.5t-58 -58t-76 -22q-44 0 -73.5 21t-47.5 60q-24 -38 -54.5 -57.5t-77.5 -19.5q-38 0 -69 17t-54 46t-35.5 67t-12.5 81q0 47 12 86t34.5 67.5t53 44.5t68.5 16q39 0 67 -13t55 -46v50h95v-298q0 -12 4.5 -20t11.5 -12t15.5 -5.5
t15.5 -1.5q12 0 26 9t25.5 28.5t19 49.5t7.5 73q0 78 -21.5 134.5t-60.5 93.5t-95 54.5t-125 17.5q-58 0 -113.5 -19t-99 -57.5t-70.5 -97.5t-27 -138q0 -73 21.5 -132.5t62 -102t97.5 -66t129 -23.5q30 0 53 0.5t43 3t39 6.5t40 10v-88q-27 -7 -47.5 -11t-38.5 -6.5t-35 -3
t-36 -0.5q-82 0 -159 22.5t-136 72t-95 129t-36 192.5q0 93 34 166.5t90.5 124.5t129.5 78t152 27q88 0 162 -25t127.5 -73t83 -118t29.5 -159zM535 236q0 58 -22.5 96t-71.5 38q-26 0 -44 -12.5t-29.5 -32t-16.5 -44t-5 -48.5q0 -26 4.5 -51.5t15 -46t28.5 -33.5t46 -13
q25 0 43 13.5t29.5 34.5t17 47t5.5 52z" />
    <glyph glyph-name="A" unicode="A" horiz-adv-x="656" 
d="M539 0l-65 160h-295l-63 -160h-104l259 643h110l263 -643h-105zM325 528l-110 -284h222z" />
    <glyph glyph-name="B" unicode="B" horiz-adv-x="600" 
d="M548 174q0 -39 -17.5 -71.5t-46 -55t-64.5 -35t-73 -12.5h-278v643h260q38 0 73 -9.5t61.5 -29t42.5 -49.5t16 -70q0 -29 -10 -52.5t-26 -41.5t-37 -31t-43 -20q29 -8 54.5 -22.5t45 -35t31 -47.5t11.5 -61zM422 467q0 42 -29 66t-95 24h-126v-181h122q67 0 97.5 26
t30.5 65zM444 190q0 52 -40.5 78t-109.5 26h-122v-208h125q64 0 105.5 27t41.5 77z" />
    <glyph glyph-name="C" unicode="C" horiz-adv-x="620" 
d="M568 186q-2 -43 -21 -79.5t-51 -63t-76.5 -41.5t-97.5 -15q-75 0 -126.5 27t-84 73t-46.5 106t-14 125q0 66 15 127t47.5 107.5t84 74.5t125.5 28q61 0 105.5 -14.5t74 -40t44 -61.5t16.5 -79h-103q-2 57 -34 85.5t-103 28.5q-86 0 -126 -64t-40 -192q0 -133 41 -191.5
t123 -58.5q62 0 99 29.5t40 88.5h108v0z" />
    <glyph glyph-name="D" unicode="D" horiz-adv-x="643" 
d="M592 322q0 -66 -19 -124.5t-58.5 -102.5t-101 -69.5t-146.5 -25.5h-198v643h198q86 0 147.5 -25.5t101 -69t58 -102t18.5 -124.5zM489 322q0 116 -58 175.5t-163 59.5h-96v-471h96q105 0 163 60.5t58 175.5z" />
    <glyph glyph-name="E" unicode="E" horiz-adv-x="546" 
d="M69 0v643h406v-86h-305v-185h293v-83h-293v-203h314v-86h-415z" />
    <glyph glyph-name="F" unicode="F" horiz-adv-x="511" 
d="M172 287v-287h-103v643h385v-86h-282v-185h264v-85h-264z" />
    <glyph glyph-name="G" unicode="G" horiz-adv-x="682" 
d="M613 30q-65 -21 -128 -32t-105 -11q-95 0 -158 30t-101 78.5t-54 111.5t-16 129q0 67 22.5 125.5t64 101.5t100 67.5t130.5 24.5q63 0 110 -16t78.5 -42t47 -59.5t15.5 -68.5h-105q0 19 -11 37t-29.5 32t-45 22.5t-57.5 8.5q-58 0 -98.5 -19t-66 -51t-37 -74.5
t-11.5 -90.5q0 -53 12 -100t38 -82.5t66.5 -56.5t97.5 -21q32 0 67 4.5t70 13.5v163h-136v88h240v-313v0z" />
    <glyph glyph-name="H" unicode="H" horiz-adv-x="633" 
d="M461 0v289h-290v-289h-102v643h102v-269h290v269h104v-643h-104z" />
    <glyph glyph-name="I" unicode="I" horiz-adv-x="241" 
d="M69 0v643h103v-643h-103z" />
    <glyph glyph-name="J" unicode="J" horiz-adv-x="524" 
d="M455 191q0 -47 -16 -84.5t-44 -64t-66 -41t-81 -14.5q-97 0 -147 52.5t-50 142.5h104q1 -61 27.5 -84.5t67.5 -23.5q45 0 73 28.5t28 91.5v450h104v-453v0z" />
    <glyph glyph-name="K" unicode="K" horiz-adv-x="601" 
d="M442 0l-270 333v-333h-103v643h103v-275l248 275h125l-258 -281l289 -362h-134z" />
    <glyph glyph-name="L" unicode="L" horiz-adv-x="483" 
d="M69 0v643h103v-557h287v-86h-390z" />
    <glyph glyph-name="M" unicode="M" horiz-adv-x="809" 
d="M639 0v550l-191 -550h-90l-189 547v-547h-100v643h165l170 -501l171 502h165v-644h-101z" />
    <glyph glyph-name="N" unicode="N" horiz-adv-x="657" 
d="M441 0l-272 522v-522h-100v643h146l272 -523v523h102v-643h-148z" />
    <glyph glyph-name="O" unicode="O" horiz-adv-x="695" 
d="M643 330q0 -70 -18.5 -132.5t-55 -109t-92 -74t-129.5 -27.5q-75 0 -131 27.5t-92.5 75t-55 109.5t-18.5 131q0 70 19 129.5t56 103t92.5 68t129.5 24.5q75 0 130.5 -25t92 -69t54.5 -103t18 -128zM536 330q0 53 -9.5 97t-31.5 75.5t-58 49t-89 17.5t-89.5 -17.5t-59 -49
t-32 -75.5t-9.5 -97t9.5 -100t32 -81.5t59 -54.5t89.5 -20t89 20t58 54.5t31.5 81.5t9.5 100z" />
    <glyph glyph-name="P" unicode="P" horiz-adv-x="565" 
d="M512 452q0 -59 -21.5 -95.5t-56 -57.5t-78.5 -28.5t-90 -7.5h-94v-263h-103v643h197q47 0 91.5 -8t79 -29.5t55 -58.5t20.5 -95zM411 452q0 59 -39.5 82t-114.5 23h-85v-208h85q74 0 114 22.5t40 80.5z" />
    <glyph glyph-name="Q" unicode="Q" horiz-adv-x="714" 
d="M447 0q-35 -7 -58.5 -10t-40.5 -3q-75 0 -131 28t-93 75t-55 109t-18 131q0 70 18.5 129.5t56 103t93 68t129.5 24.5q75 0 130.5 -25t92 -69t54.5 -103t18 -128q0 -78 -22 -144.5t-67 -109.5h131v-76h-238zM536 330q0 53 -9.5 97t-31.5 75.5t-58 49t-89 17.5t-89.5 -17.5
t-59 -49t-32 -75.5t-9.5 -97t9.5 -100t32 -81.5t59 -54.5t89.5 -20t89 20t58 54.5t31.5 81.5t9.5 100z" />
    <glyph glyph-name="R" unicode="R" horiz-adv-x="576" 
d="M434 0q-7 28 -11 48t-6.5 36.5l-5 32.5t-6.5 37q-8 42 -17 67t-24.5 38.5t-39.5 18t-62 4.5h-90v-282h-103v643h218q118 0 177.5 -40t59.5 -135q0 -26 -10.5 -48t-28 -39.5t-40 -31.5t-46.5 -24q29 -7 51.5 -21t35.5 -46q8 -20 12.5 -50.5l9.5 -66t12 -72.5t20 -69h-106z
M420 461q0 27 -10.5 45t-28.5 29.5t-42.5 16.5t-52.5 5h-114v-190h111q28 0 53 5.5t43.5 16.5t29.5 29t11 43z" />
    <glyph glyph-name="S" unicode="S" horiz-adv-x="595" 
d="M543 181q0 -54 -24.5 -91.5t-62.5 -60t-85 -32.5t-92 -10q-47 0 -88.5 14t-72.5 41t-49 65.5t-18 87.5h106q1 -55 34.5 -88t87.5 -33q25 0 53.5 3.5t52.5 14t40 29.5t16 51q0 34 -16 54.5t-43 33t-61 19.5l-69 14.5t-69 18.5t-61 30.5t-43 50.5t-16 79q0 44 21 78
t54 57.5t73 35.5t79 12q44 0 85.5 -9.5t73.5 -31t51.5 -56t19.5 -83.5h-105q0 29 -11 47.5t-29 29.5t-41 15t-47 4t-46 -5.5t-38.5 -17t-26.5 -29.5t-10 -44q0 -39 28 -58t70 -31t90.5 -22.5t90.5 -30t70 -55t28 -97.5z" />
    <glyph glyph-name="T" unicode="T" horiz-adv-x="553" 
d="M328 557v-557h-104v557h-203v86h511v-86h-204z" />
    <glyph glyph-name="U" unicode="U" horiz-adv-x="661" 
d="M594 279q0 -151 -67 -221.5t-198 -70.5q-134 0 -197 71.5t-63 220.5v364h103v-364q0 -63 12 -103t33 -62.5t50 -31t63 -8.5t63 8.5t50.5 31t33.5 62.5t12 103v364h105v-364v0z" />
    <glyph glyph-name="V" unicode="V" horiz-adv-x="607" 
d="M361 0h-118l-231 643h114l177 -517l178 517h113z" />
    <glyph glyph-name="W" unicode="W" horiz-adv-x="874" 
d="M681 0h-104l-141 517l-140 -517h-104l-180 643h110l123 -501l133 501h118l132 -501l123 501h111z" />
    <glyph glyph-name="X" unicode="X" horiz-adv-x="624" 
d="M479 0l-175 267l-172 -267h-115l232 340l-205 303h126l148 -230l145 230h116l-207 -303l233 -340h-126z" />
    <glyph glyph-name="Y" unicode="Y" horiz-adv-x="590" 
d="M346 252v-252h-103v252l-231 391h122l164 -296l163 296h116z" />
    <glyph glyph-name="Z" unicode="Z" horiz-adv-x="554" 
d="M40 0v102l349 455h-331v86h447v-103l-349 -454h357v-86h-473z" />
    <glyph glyph-name="bracketleft" unicode="[" horiz-adv-x="351" 
d="M87 -177v820h177v-58h-90v-705h90v-57h-177z" />
    <glyph glyph-name="backslash" unicode="\" horiz-adv-x="516" 
d="M406 -233l-351 999l55 53l350 -997z" />
    <glyph glyph-name="bracketright" unicode="]" horiz-adv-x="351" 
d="M87 -177v57h91v705h-91v58h177v-820h-177z" />
    <glyph glyph-name="asciicircum" unicode="^" horiz-adv-x="494" 
d="M437 591l-190 189l-190 -189l-39 39l229 229l229 -229z" />
    <glyph glyph-name="underscore" unicode="_" horiz-adv-x="576" 
d="M0 -158v72h576v-72h-576z" />
    <glyph glyph-name="grave" unicode="`" horiz-adv-x="211" 
d="M105 534l-128 155h99l86 -155h-57z" />
    <glyph glyph-name="a" unicode="a" horiz-adv-x="491" 
d="M353 0q-3 14 -6 29.5t-5 30.5q-17 -19 -32.5 -32.5t-31 -22.5t-33 -13t-38.5 -4q-30 0 -59.5 8.5t-53 25t-38 41t-14.5 56.5q0 49 21.5 81t55.5 51t75 26t80 7h63q2 24 -1 44t-12.5 34.5t-28 22.5t-47.5 8q-36 0 -61.5 -15.5t-27.5 -53.5h-95q0 36 15 61t40 41t58 23
t70 7q24 0 50.5 -3t51 -12t44 -24.5t28.5 -40.5q5 -15 7 -46t2 -63v-130q0 -18 0.5 -38t2 -38.5t4 -34.5t6.5 -26h-90zM336 220q-8 1 -21 1.5t-23 0.5q-24 0 -51.5 -4.5t-50 -15.5t-37.5 -28.5t-15 -44.5q0 -34 24 -54.5t58 -20.5q37 0 60 13.5t35.5 36t16.5 53t4 63.5z" />
    <glyph glyph-name="b" unicode="b" horiz-adv-x="532" 
d="M490 233q0 -58 -16 -103.5t-43 -77t-62.5 -48t-73.5 -16.5q-49 0 -84.5 19t-56.5 45v-52h-94v643h92v-252q19 24 52.5 44.5t92.5 20.5q56 0 93.5 -22.5t59.5 -56t31 -72.5t9 -72zM392 227q0 30 -6 60.5t-20 55t-37 39.5t-57 15q-30 0 -52.5 -13.5t-37.5 -36.5t-22 -53.5
t-7 -65.5q0 -38 7 -69.5t21.5 -55t37 -36.5t53.5 -13q27 0 49 13t38 36t24.5 54.5t8.5 69.5z" />
    <glyph glyph-name="c" unicode="c" horiz-adv-x="462" 
d="M420 154q0 -35 -10 -65t-31.5 -52.5t-55.5 -35.5t-83 -13q-197 0 -197 232q0 118 46.5 177t144.5 59q99 0 143.5 -42t39.5 -114h-92q3 25 -4 42.5t-20.5 28.5t-31.5 15.5t-37 4.5q-23 0 -41 -8.5t-30.5 -28.5t-19.5 -52.5t-7 -80.5q0 -92 25.5 -130t78.5 -38
q26 0 43.5 9.5t27.5 24.5t14 33t4 34h93v0z" />
    <glyph glyph-name="d" unicode="d" horiz-adv-x="533" 
d="M378 0v54q-22 -26 -55 -46t-73 -20q-43 0 -81 17.5t-66 48t-44 72t-16 89.5q0 46 11 89t34 77t58.5 54.5t85.5 20.5q46 0 83 -15t63 -48v250h93v-643h-93zM377 219q0 38 -9 70.5t-25 56t-39.5 37t-51.5 13.5q-32 0 -54 -16.5t-35.5 -42t-19.5 -56.5t-6 -59q0 -32 8 -61.5
t23.5 -52.5t38 -37t51.5 -14q32 0 54.5 15.5t37 39.5t21 52.5t6.5 54.5z" />
    <glyph glyph-name="e" unicode="e" horiz-adv-x="495" 
d="M447 141q-5 -31 -18.5 -58.5t-38 -48.5t-60 -33.5t-83.5 -12.5q-56 0 -95 21t-63 54t-35 74.5t-11 83.5q0 45 11.5 87.5t36.5 75t65 52.5t97 20q61 0 100 -21t61 -52.5t30 -68.5t8 -69q0 -9 -0.5 -19.5t-2.5 -19.5h-308q0 -33 5.5 -61.5t18 -49t33 -32t51.5 -11.5
q26 0 44 8t29.5 20.5t18 28.5t8.5 32h98zM351 270q2 25 -2.5 47.5t-16.5 39.5t-32.5 27t-51.5 10q-29 0 -48.5 -11t-32 -29t-18.5 -40t-8 -44h210z" />
    <glyph glyph-name="f" unicode="f" horiz-adv-x="301" 
d="M301 572q-11 5 -23 8.5t-26 3.5q-35 0 -49 -17t-14 -57v-65h102v-64h-102v-381h-95v381h-85v64h85v68q0 40 9 67t26 43t42 22.5t58 6.5q36 0 72 -10v-70v0z" />
    <glyph glyph-name="g" unicode="g" horiz-adv-x="532" 
d="M471 18q0 -44 -14 -79.5t-41.5 -61.5t-68.5 -40t-94 -14q-57 0 -93.5 14.5t-57 35.5t-28.5 45t-8 42h95q0 -19 8.5 -33t22.5 -23.5t32.5 -14t38.5 -4.5q31 0 52.5 9.5t35 32t20 60t6.5 93.5q-22 -34 -59 -53t-75 -19q-94 0 -147 56.5t-53 165.5q0 51 14 92.5t39 71t60 46
t78 16.5q54 0 87.5 -13t55.5 -44v46h94v-427zM377 230q0 75 -28.5 119.5t-93.5 44.5q-34 0 -56.5 -14t-36 -37t-19 -52.5t-5.5 -60.5q0 -34 7 -63t22 -50t37 -32.5t52 -11.5q33 0 56 13.5t37.5 36t21 50.5t6.5 57z" />
    <glyph glyph-name="h" unicode="h" horiz-adv-x="517" 
d="M362 0v276q0 62 -25 90t-63 28q-29 0 -51.5 -10.5t-37.5 -26t-23 -34.5t-8 -35v-288h-94v643h94v-251q22 30 56 47t86 17q85 0 123 -43t38 -128v-285h-95z" />
    <glyph glyph-name="i" unicode="i" horiz-adv-x="214" 
d="M55 549v94h104v-94h-104zM60 0v445h94v-445h-94z" />
    <glyph glyph-name="j" unicode="j" horiz-adv-x="275" 
d="M161 549l-45 55l56 39l46 -55zM214 -72q0 -23 -7 -44t-21 -37t-36 -25.5t-53 -9.5q-29 0 -63 11.5t-58 34.5l52 59q22 -25 52 -25q40 0 40 63v490h94v-517z" />
    <glyph glyph-name="k" unicode="k" horiz-adv-x="459" 
d="M323 0l-169 235v-235h-94v643h94v-381l160 183h115l-173 -193l187 -252h-120z" />
    <glyph glyph-name="l" unicode="l" horiz-adv-x="214" 
d="M60 0v643h94v-643h-94z" />
    <glyph glyph-name="m" unicode="m" horiz-adv-x="803" 
d="M648 0v287q0 47 -23 77t-69 30q-23 0 -42.5 -10.5t-34 -27t-22.5 -37t-8 -39.5v-280h-94v287q0 21 -6 40.5t-18 34t-28.5 23.5t-37.5 9q-25 0 -45.5 -11t-35 -28.5t-22.5 -38t-8 -38.5v-278h-94v445h94v-61q26 35 58 53.5t77 18.5q59 0 91 -18.5t55 -60.5q32 45 66.5 62
t79.5 17q49 0 80.5 -15t49.5 -38.5t24.5 -53.5t6.5 -60v-289h-94z" />
    <glyph glyph-name="n" unicode="n" horiz-adv-x="518" 
d="M359 0v286q0 50 -28 80.5t-71 30.5q-47 0 -78.5 -34t-31.5 -90v-273h-94v445h94v-56q22 32 53.5 49.5t85.5 17.5q44 0 75 -11.5t51 -32.5t29 -50.5t9 -65.5v-296h-94z" />
    <glyph glyph-name="o" unicode="o" horiz-adv-x="531" 
d="M488 222q0 -57 -17.5 -100.5t-47.5 -73.5t-70.5 -45t-86.5 -15q-48 0 -89 15.5t-70.5 45.5t-46.5 73.5t-17 99.5q0 57 17 100.5t47 73.5t71 45t88 15q48 0 88.5 -15.5t70 -45.5t46.5 -73.5t17 -99.5zM392 222q0 34 -7.5 65t-23 55t-39.5 38t-56 14q-33 0 -57 -14t-40 -38
t-23.5 -55t-7.5 -65q0 -33 7.5 -64t23.5 -54.5t40 -37.5t57 -14q32 0 56 14t39.5 37t23 54t7.5 65z" />
    <glyph glyph-name="p" unicode="p" horiz-adv-x="538" 
d="M495 224q0 -52 -12 -95.5t-37 -75t-63.5 -49t-91.5 -17.5q-45 0 -76.5 16t-60.5 41v-221h-94v622h94v-58q31 32 62 50.5t72 18.5q54 0 93.5 -18t64.5 -49.5t37 -73.5t12 -91zM398 224q0 31 -7 61.5t-21.5 54.5t-38 38.5t-56.5 14.5t-56.5 -15t-37.5 -39.5t-20.5 -55
t-6.5 -60.5q0 -36 7 -67.5t21.5 -55t37 -36.5t54.5 -13q34 0 57.5 15.5t38.5 40t21.5 55.5t6.5 62z" />
    <glyph glyph-name="q" unicode="q" horiz-adv-x="538" 
d="M382 -177v221q-30 -25 -61 -41t-76 -16q-53 0 -91 17.5t-62.5 49t-36.5 75t-12 95.5q0 49 12 91.5t36.5 73.5t63.5 49t93 18q43 0 74.5 -18.5t59.5 -50.5v58h94v-622h-94zM384 223q0 31 -7 61.5t-21.5 54.5t-37.5 39t-56 15t-56.5 -15t-38.5 -39t-21.5 -54t-6.5 -61
q0 -32 6.5 -63t21.5 -55.5t39 -39.5t58 -15q31 0 54 13t37.5 36.5t21.5 55t7 67.5z" />
    <glyph glyph-name="r" unicode="r" horiz-adv-x="330" 
d="M314 367q-84 0 -122 -32.5t-38 -92.5v-242h-94v445h94v-64q10 17 21.5 30t29 21.5t44 12.5t65.5 4v-82v0z" />
    <glyph glyph-name="s" unicode="s" horiz-adv-x="453" 
d="M410 133q0 -41 -17 -68.5t-45 -44.5t-63 -24.5t-71 -7.5t-67 7.5t-54 25t-36.5 45t-13.5 66.5h94q2 -45 25 -62.5t63 -17.5q17 0 33.5 4.5t29 13.5t20.5 22.5t8 31.5q0 26 -19.5 39t-48.5 21t-63 14.5t-63 21t-48.5 40t-19.5 71.5q0 24 9.5 47t30.5 40t53.5 27.5
t77.5 10.5q39 0 70.5 -6.5t54 -22t35 -41t12.5 -64.5h-94q0 14 -3 27t-12 23t-25 16t-41 6q-32 0 -53.5 -17.5t-21.5 -44.5q0 -25 19.5 -37.5t48.5 -20t63.5 -14.5t63.5 -21t48.5 -38.5t19.5 -67.5z" />
    <glyph glyph-name="t" unicode="t" horiz-adv-x="332" 
d="M307 1q-19 -6 -37 -9.5t-38 -3.5q-58 0 -90.5 28.5t-32.5 97.5v268h-83v63h83v82l94 43v-125h101v-63h-101v-257q0 -40 14.5 -54t40.5 -14q28 0 49 7v-63v0z" />
    <glyph glyph-name="u" unicode="u" horiz-adv-x="517" 
d="M362 0v58q-21 -34 -52.5 -52t-85.5 -18q-85 0 -124.5 41.5t-39.5 118.5v297h94v-286q0 -51 28 -81t70 -30q48 0 79 32.5t31 90.5v274h95v-445h-95z" />
    <glyph glyph-name="v" unicode="v" horiz-adv-x="479" 
d="M289 0h-99l-178 445h105l126 -335l124 335h100z" />
    <glyph glyph-name="w" unicode="w" horiz-adv-x="737" 
d="M580 0h-101l-110 350l-111 -350h-101l-145 445h98l99 -330l101 330h117l101 -330l100 330h97z" />
    <glyph glyph-name="x" unicode="x" horiz-adv-x="487" 
d="M357 0l-121 170l-115 -170h-106l171 233l-157 212h114l107 -151l103 151h106l-157 -212l170 -233h-115z" />
    <glyph glyph-name="y" unicode="y" horiz-adv-x="479" 
d="M258 -101q-13 -35 -40.5 -58t-76.5 -23q-43 0 -75.5 21.5t-50.5 59.5l67 42q19 -43 56 -43q14 0 23.5 13t18.5 38l18 51l-186 445h107l128 -319l119 319h101z" />
    <glyph glyph-name="z" unicode="z" horiz-adv-x="429" 
d="M43 0v80l236 298h-223v67h325v-80l-237 -299h241v-66h-342z" />
    <glyph glyph-name="braceleft" unicode="{" horiz-adv-x="418" 
d="M363 -428q-66 0 -103.5 37.5t-56.5 102.5t-23.5 153t-4.5 189q0 34 -16.5 58t-36 42.5l-36 34.5t-16.5 36q0 19 16.5 35.5l36 35.5t36 42.5t16.5 58.5q0 100 4.5 188t23.5 153t56.5 102.5t103.5 37.5v-70q-38 0 -60.5 -28t-35 -82t-16.5 -133.5t-4 -182.5
q0 -41 -15.5 -68.5t-33.5 -45.5t-33.5 -28t-15.5 -15t15.5 -15t33.5 -27.5t33.5 -45.5t15.5 -69q0 -102 4 -181.5t16.5 -134t35 -82.5t60.5 -28v-70v0z" />
    <glyph glyph-name="bar" unicode="|" horiz-adv-x="321" 
d="M127 -230v939h67v-939h-67z" />
    <glyph glyph-name="braceright" unicode="}" horiz-adv-x="418" 
d="M347 225q0 -20 -16.5 -36l-36 -34.5t-35.5 -42.5t-16 -58q0 -101 -4.5 -189t-23.5 -153t-56.5 -102.5t-103.5 -37.5v71q37 0 60 28t35.5 82t16.5 133.5t4 181.5q0 41 15.5 68.5t33.5 45.5t33.5 28t15.5 15t-15.5 15t-33.5 27.5t-33.5 45.5t-15.5 69q0 103 -4 182.5
t-16.5 134t-35.5 82.5t-60 28v69q66 0 103.5 -37.5t56.5 -102.5t23.5 -152.5t4.5 -188.5q0 -35 16 -58.5t35.5 -42l36 -35t16.5 -36.5z" />
    <glyph glyph-name="asciitilde" unicode="~" horiz-adv-x="567" 
d="M511 236q-35 -33 -70.5 -48t-68.5 -15q-31 0 -56 9.5t-46 21l-38.5 21t-34.5 9.5q-11 0 -23 -2t-26 -8.5t-31.5 -18.5t-39.5 -31l-22 57q38 35 72 49.5t70 14.5q29 0 50.5 -9.5t40.5 -20.5t38.5 -20.5t45.5 -9.5q23 0 46 11t54 36l39 -46v0z" />
    <glyph glyph-name="multiply" unicode="&#xd7;" horiz-adv-x="512" 
d="M368 60l-111 112l-112 -112l-52 52l112 112l-111 111l50 51l112 -112l112 113l52 -52l-113 -112l111 -112z" />
    <glyph glyph-name="u1000" unicode="&#x1000;" horiz-adv-x="993" 
d="M938 222q0 -50 -19 -93.5t-51 -76t-75 -51.5t-91 -19q-14 0 -34 3t-37 11l28 66q22 -8 43 -8q34 0 64 13.5t52 36t35 53t13 65.5q0 34 -13 64.5t-35 53.5t-52 36.5t-64 13.5t-64.5 -18t-53.5 -46t-36.5 -62t-13.5 -67q-1 -78 -25 -127.5t-70 -87.5l-42 60
q32 32 48.5 68.5t16.5 93.5q0 39 -12.5 72.5t-35 58t-53 39t-66.5 14.5t-67 -14.5t-53.5 -39t-35 -58t-12.5 -72.5q0 -57 17 -93.5t48 -68.5l-42 -60q-46 39 -70.5 90.5t-24.5 131.5q0 55 18.5 102t51 81.5t76.5 53.5t94 19q68 0 123 -34.5t84 -94.5q30 55 82 92.5t118 37.5
q48 0 91 -19t75 -51.5t51 -76t19 -92.5z" />
    <glyph glyph-name="u1000.med" 
d="M-55 -272q0 -39 -14.5 -72.5t-39.5 -58.5t-58 -39.5t-70 -14.5q-33 0 -55 11l23 51q7 -4 15 -5t17 -1q26 0 49 10.5t40.5 28t27.5 41t10 49.5t-10 49.5t-27.5 41t-40.5 28t-49 10.5t-49.5 -13.5t-41 -35t-28 -48t-10.5 -52.5q0 -59 -19 -97.5t-54 -67.5l-33 46
q24 26 37 53.5t13 71.5q0 31 -10 57.5t-27 45.5t-40.5 29.5t-51.5 10.5t-51.5 -10.5t-41 -29.5t-27 -45.5t-9.5 -57.5q0 -44 13.5 -71.5t37.5 -53.5l-33 -46q-36 30 -55 70t-19 101q0 42 14.5 78.5t39 63t58.5 41.5t73 15q52 0 94.5 -26t65.5 -74q23 44 63 72t91 28
q37 0 70 -14.5t58 -39.5t39.5 -58.5t14.5 -71.5z" />
    <glyph glyph-name="u1000_u1001_u103B" horiz-adv-x="1151" 
d="M833 -390q-24 -24 -56.5 -38t-70.5 -14q-39 0 -71.5 13.5t-56.5 34t-37.5 45t-13.5 45.5q36 26 69 37t61 11q18 0 39 -5.5t41.5 -16t38 -25t29.5 -31.5q29 32 29 77q0 22 -8.5 45t-25 41.5t-40.5 30t-54 11.5q-35 0 -67.5 -17.5t-55.5 -56.5l-47 27q13 28 33.5 48
t44 32.5t47.5 18t45 5.5q40 0 73.5 -15.5t58 -41t38 -59t13.5 -69.5q0 -37 -16 -68l151 -39v808h71v-901zM938 222q0 -50 -18.5 -93.5t-51 -76t-75.5 -51.5t-91 -19q-14 0 -34 3.5t-37 10.5l28 66q11 -2 21.5 -5t21.5 -3q34 0 64 13.5t52 36t35 53t13 65.5q0 34 -13 64.5
t-35 53.5t-52 36.5t-64 13.5t-64 -18t-53 -46t-37 -62t-14 -67q-1 -77 -25 -127t-70 -88l-42 60q31 32 48 68.5t17 93.5q0 39 -12.5 72.5t-35 58.5t-53 39t-66.5 14t-67 -14t-53.5 -39t-35 -58.5t-12.5 -72.5q0 -57 17.5 -93.5t47.5 -68.5l-42 -60q-46 38 -70.5 90
t-24.5 132q0 55 18.5 102t51 81.5t76.5 53.5t94 19q68 0 122.5 -34.5t84.5 -94.5q15 27 36 50.5t46.5 41.5t55.5 28t62 10q48 0 91 -19t75.5 -51.5t51 -76t18.5 -92.5zM742 -355q-16 23 -43.5 37t-60.5 12q-5 -10 -9 -16.5t-11 -13.5q16 -24 45.5 -35.5t59.5 -9.5
q8 6 12.5 13.5t6.5 12.5z" />
    <glyph glyph-name="u1000_u103B_u1015_u103A" horiz-adv-x="1736" 
d="M766 -370v361q-32 -9 -64 -9q-17 0 -36 3t-35 11l28 66q19 -8 43 -8q34 0 64 13.5t52 36t35 53t13 65.5q0 34 -13 64.5t-35 53.5t-52 36.5t-64 13.5t-64.5 -18t-53.5 -46t-36.5 -62t-13.5 -67q-1 -78 -25 -127.5t-70 -87.5l-42 60q32 32 48.5 68.5t16.5 93.5
q0 39 -12.5 72.5t-35 58t-53 39t-66.5 14.5t-67 -14.5t-53.5 -39t-35 -58t-12.5 -72.5q0 -57 17 -93.5t48 -68.5l-42 -60q-46 39 -70.5 90.5t-24.5 131.5q0 55 18.5 102t51 81.5t76.5 53.5t94 19q68 0 122 -34.5t85 -94.5q30 55 82 92.5t118 37.5q48 0 91 -19t75 -51.5
t51 -76t19 -92.5q0 -62 -27.5 -112t-73.5 -82v-341l197 -51v808h71v-901zM1680 239q0 -56 -18.5 -103t-51 -81t-76.5 -53.5t-94 -19.5t-93.5 19.5t-76 53.5t-51 81t-18.5 103q0 78 23.5 130t71.5 91l42 -60q-32 -32 -48.5 -68t-16.5 -93q0 -39 12.5 -73t35 -58.5t53 -39
t66.5 -14.5t67 14.5t53.5 39t35 58.5t12.5 73q0 57 -16.5 93t-48.5 68l42 60q46 -39 70.5 -91t24.5 -130zM1625 799q-18 27 -44 41.5t-52 14.5q-22 0 -45 -8.5t-41.5 -25t-30.5 -41t-12 -55.5q0 -36 16 -62t37.5 -42.5t43 -24t33.5 -7.5v-54q-30 0 -62.5 13t-59.5 38t-45 60
t-18 79q0 42 15.5 76t41 58t59 37.5t68.5 13.5q39 0 77 -19.5t58 -58.5z" />
    <glyph glyph-name="u1001" unicode="&#x1001;" horiz-adv-x="584" 
d="M529 222q0 -49 -18 -92.5t-50.5 -76.5t-76.5 -52t-95 -19q-41 0 -80.5 13t-72 36.5t-54.5 57t-26 75.5q50 31 91.5 44t75.5 13q27 0 55.5 -8t55 -21.5t49 -31.5t37.5 -39q17 20 27 45.5t10 55.5q0 28 -11.5 58t-33 54.5t-53 40t-70.5 15.5q-46 0 -88.5 -25t-70.5 -73
l-62 35q15 33 38.5 58t53 42t62.5 25.5t67 8.5q52 0 96.5 -20t76 -53.5t49.5 -76.5t18 -89zM371 75q-21 35 -61 58t-85 23q-37 0 -88 -20q29 -45 69.5 -63.5t82.5 -18.5q24 0 43.5 5.5t38.5 15.5z" />
    <glyph glyph-name="u1001.med" 
d="M-56 -272q0 -39 -14.5 -73t-39 -58.5t-58 -39t-71.5 -14.5t-70.5 13t-57 34t-38.5 46t-14 49q34 23 67.5 33t62.5 10q19 0 40 -5t40.5 -15t37 -24.5t30.5 -32.5q30 31 30 76q0 26 -9.5 49.5t-27 41.5t-41 28.5t-50.5 10.5q-36 0 -69.5 -19t-54.5 -56l-46 27
q12 25 30.5 44.5t41.5 33t48 20t50 6.5q40 0 73.5 -15.5t58 -41t38 -59t13.5 -69.5zM-204 -370q-4 23 -19 33t-38 4q-17 -2 -33 -7t-33 -12q5 -24 22 -33.5t36 0.5q17 2 34 6t31 9z" />
    <glyph glyph-name="u1002" unicode="&#x1002;" horiz-adv-x="590" 
d="M535 204q0 -80 -24.5 -131.5t-71.5 -90.5l-42 60q32 32 48.5 68.5t16.5 93.5q0 39 -12.5 72.5t-35 58t-53 39t-66.5 14.5t-67 -14.5t-53.5 -39t-35 -58t-12.5 -72.5q0 -57 17 -93.5t48 -68.5l-42 -60q-46 39 -70.5 90.5t-24.5 131.5q0 55 18.5 102t51 81.5t76.5 53.5
t94 19q48 0 91.5 -18.5t76.5 -52t52.5 -80.5t19.5 -105z" />
    <glyph glyph-name="u1002.med" 
d="M-56 -286q0 -62 -18.5 -101.5t-54.5 -69.5l-33 46q25 25 37.5 55t12.5 70q0 27 -9 52.5t-25.5 46t-40.5 32.5t-54 12q-28 0 -51.5 -11t-41 -30.5t-27 -45t-9.5 -55.5q0 -41 13.5 -71t37.5 -55l-33 -46q-36 30 -55 69.5t-19 101.5q0 42 14.5 78.5t39 63t58.5 41.5t73 15
t73 -15t58.5 -41.5t39 -63t14.5 -78.5z" />
    <glyph glyph-name="u1003" unicode="&#x1003;" horiz-adv-x="989" 
d="M934 222q0 -50 -19 -93.5t-51 -76t-75.5 -51.5t-91.5 -19q-66 0 -118.5 37t-83.5 93q-31 -61 -86 -95.5t-122 -34.5q-53 0 -96 17.5t-73 44.5t-46.5 60t-16.5 63q0 34 10.5 56t25.5 36.5t33.5 24l33.5 17.5t25.5 16.5t10.5 22.5q0 29 -14 40.5t-29 11.5
q-16 0 -26.5 -10.5t-12.5 -17.5l-57 34q3 11 12.5 22t23 19.5t29.5 14t31 5.5q21 0 41 -7.5t35 -22.5t24.5 -37t9.5 -52q0 -25 -10 -42t-25 -29.5t-32 -22t-32 -20.5t-25 -25t-10 -34q0 -10 9.5 -29t29 -37.5t49.5 -32.5t72 -14q38 0 69 15t53 41t34 61.5t12 76.5
q0 47 -18.5 87t-46.5 65l42 60q45 -35 70 -89.5t25 -132.5q0 -30 14.5 -62.5t38.5 -59.5t54.5 -44.5t62.5 -17.5q34 0 64 13.5t52.5 36t35.5 53t13 65.5q0 34 -13 64.5t-35.5 53.5t-52.5 36.5t-64 13.5q-10 0 -21 -2t-21 -7l-28 66q15 8 33.5 11t36.5 3q48 0 91.5 -19
t75.5 -51.5t51 -76t19 -92.5z" />
    <glyph glyph-name="u1003.med" 
d="M-56 -272q0 -38 -14.5 -72t-39 -59t-57.5 -39.5t-70 -14.5q-50 0 -90.5 28.5t-65.5 71.5q-23 -48 -66 -74t-94 -26q-41 0 -74 13.5t-56.5 34.5t-36 46t-12.5 48q0 37 16.5 57t37 32.5t37 21.5t16.5 26q0 21 -10.5 29t-22.5 8t-20 -6.5t-10 -14.5l-44 26q3 18 25.5 32.5
t48.5 14.5q16 0 31.5 -6t27.5 -17.5t19 -29t7 -39.5q0 -29 -16.5 -44.5t-36 -27t-35.5 -25t-16 -37.5q0 -8 7.5 -22.5t22.5 -28.5t38.5 -24.5t55.5 -10.5q29 0 53 11.5t40.5 31.5t25.5 47t9 58q0 33 -15 66t-35 52l34 47q32 -27 53 -67t21 -104q0 -25 11 -50t29 -45.5
t41.5 -33.5t48.5 -13q26 0 49 10.5t40 28t27 41t10 49.5t-10 49.5t-27 41t-40 28t-49 10.5q-7 0 -15.5 -1.5t-16.5 -6.5l-22 51q11 8 25 10t29 2q37 0 70 -14.5t57.5 -39.5t39 -58.5t14.5 -71.5z" />
    <glyph glyph-name="u1004" unicode="&#x1004;" horiz-adv-x="571" 
d="M516 117q-15 -33 -39 -58t-53.5 -42t-62.5 -26t-67 -9q-49 0 -92.5 19t-76 51.5t-51.5 76t-19 93.5q0 49 19 92.5t51.5 76t76 51.5t92.5 19q33 0 66 -8.5t62.5 -25.5t54 -42t39.5 -58l-63 -35q-27 48 -69 73t-90 25q-34 0 -64.5 -13.5t-53 -36.5t-36 -53.5t-13.5 -64.5
q0 -35 13.5 -65.5t36 -53t53 -36t64.5 -13.5q49 0 91 25t68 72l63 -34v0z" />
    <glyph glyph-name="u1004.med" 
d="M-49 -356q-26 -53 -72 -77t-100 -24q-38 0 -71.5 14.5t-59 40t-40 59t-14.5 71.5t14.5 71.5t40 58.5t59 39.5t71.5 14.5q54 0 100 -24t72 -77l-47 -28q-20 36 -52.5 55.5t-70.5 19.5q-27 0 -51 -10.5t-42 -28.5t-28.5 -41.5t-10.5 -49.5t10.5 -49.5t28 -41t41.5 -28
t51 -10.5q38 0 70.5 18t53.5 56l47 -29v0z" />
    <glyph glyph-name="u1004.kinzi" 
d="M0 592q-15 -28 -40.5 -41.5t-54.5 -13.5q-21 0 -40 8.5t-33 23t-22.5 33t-8.5 39.5q0 29 11 49t31 34q-20 14 -31 33.5t-11 48.5q0 22 8 41t22.5 33t33.5 22t40 8q32 0 51.5 -14t30.5 -34l-40 -31q-7 13 -16.5 20.5t-26.5 7.5q-21 0 -37 -15t-16 -38t16.5 -41t36.5 -18
q29 0 55 -15t41 -41l-42 -23q-11 14 -23 21.5t-29 7.5q-19 0 -36.5 -15.5t-17.5 -40.5q0 -22 17 -38t37 -16q17 0 29 7.5t23 21.5l42 -24v0z" />
    <glyph glyph-name="u1004.kinzi_u102D" 
d="M0 724q0 -38 -14 -71.5t-38.5 -59t-57.5 -40t-70 -14.5t-70 14.5t-57.5 40t-39 59t-14.5 71.5t14.5 71.5t39 59t57 40t69.5 14.5q38 0 71 -14.5t57.5 -40t38.5 -59t14 -71.5zM-55 724q0 26 -10 49.5t-27 41t-39.5 28t-48.5 10.5t-49 -10.5t-40 -28t-27 -41t-10 -49.5
t10 -49.5t27 -41t39.5 -28t48.5 -10.5t49 10.5t40 28t27 41t10 49.5zM-399 592q-15 -28 -40.5 -41.5t-54.5 -13.5q-21 0 -40 8.5t-33 23t-22.5 33t-8.5 39.5q0 29 11 49t31 34q-20 14 -31 33.5t-11 48.5q0 22 8 41t22.5 33t33.5 22t40 8q32 0 51.5 -14t30.5 -34l-40 -31
q-7 13 -16.5 20.5t-26.5 7.5q-21 0 -37 -15t-16 -38t16.5 -41t36.5 -18q29 0 55 -15t41 -41l-42 -23q-11 14 -23 21.5t-29 7.5q-19 0 -36.5 -15.5t-17.5 -40.5q0 -22 17 -38t37 -16q17 0 29 7.5t23 21.5z" />
    <glyph glyph-name="u1004.kinzi_u102E" 
d="M0 723q0 -38 -14 -71.5t-38.5 -58.5t-57.5 -39t-70 -14t-70 14.5t-57.5 39.5t-39 58.5t-14.5 72.5q0 38 14.5 72t39 59t57 39.5t69.5 14.5q38 0 71 -15t57.5 -40.5t38.5 -59.5t14 -72zM-61 692q6 16 6 37q-1 25 -11 47.5t-27 40t-39.5 27.5t-47.5 10t-47.5 -10t-40 -27.5
t-27.5 -40.5t-11 -48q0 -17 7 -37q29 26 59.5 35.5t59.5 9.5q28 0 60 -9t59 -35zM-79 647q-24 25 -52.5 34t-48.5 9q-19 0 -46.5 -9t-53.5 -34q17 -22 43.5 -37t55.5 -15q32 0 58.5 13.5t43.5 38.5zM-399 592q-15 -28 -40.5 -41.5t-54.5 -13.5q-21 0 -40 8.5t-33 23
t-22.5 33t-8.5 39.5q0 29 11 49t31 34q-20 15 -31 34.5t-11 48.5q0 22 8 40.5t22.5 32.5t33.5 22t40 8q32 0 51.5 -14t30.5 -34l-40 -31q-7 14 -16.5 21.5t-26.5 7.5q-21 0 -37 -15t-16 -38q0 -12 5 -22.5t12.5 -19t17 -13.5t18.5 -5q29 0 55 -15t41 -41l-42 -23
q-11 14 -23 21.5t-29 7.5q-19 0 -36.5 -15.5t-17.5 -39.5q0 -23 17 -38.5t37 -15.5q17 0 29 7t23 21z" />
    <glyph glyph-name="u1004.kinzi_u1032" 
d="M-33 590l-301 239l32 45l302 -240zM-399 592q-15 -28 -40.5 -41.5t-54.5 -13.5q-21 0 -40 8.5t-33 23t-22.5 33t-8.5 39.5q0 29 11 49t31 34q-20 15 -31 34.5t-11 48.5q0 22 8 40.5t22.5 32.5t33.5 22t40 8q32 0 51.5 -14t30.5 -34l-40 -31q-7 14 -16.5 21.5t-26.5 7.5
q-21 0 -37 -15t-16 -38q0 -12 5 -22.5t12.5 -19t17 -13.5t18.5 -5q29 0 55 -15t41 -41l-42 -23q-11 14 -23 21.5t-29 7.5q-19 0 -36.5 -15.5t-17.5 -39.5q0 -23 17 -38.5t37 -15.5q17 0 29 7t23 21z" />
    <glyph glyph-name="u1004.kinzi_u1033" 
d="M0 725q0 -38 -14 -72t-38.5 -59t-57 -39.5t-69.5 -14.5q-38 0 -71 14.5t-58 39.5t-39 59t-14 72q0 37 14 70.5t38.5 59t57 40t69.5 14.5q38 0 71.5 -14.5t58 -40t38.5 -59t14 -70.5zM-55 725q0 26 -9.5 49.5t-26.5 41t-39.5 28t-48.5 10.5q-27 0 -50 -10.5t-40 -28
t-27 -41t-10 -49.5q0 -27 10 -50.5t26.5 -41t39 -28t48.5 -10.5q27 0 50 10.5t40.5 28t27 41t9.5 50.5zM-100 725q0 -32 -21 -57.5t-58 -25.5q-14 0 -28 5.5t-25.5 16.5t-19 26t-7.5 35q0 19 7.5 34t19 25.5t25.5 16.5t28 6q15 0 29 -6t25 -16.5t18 -25.5t7 -34zM-141 725
q0 16 -11 27.5t-27 11.5t-27 -11.5t-11 -27.5q0 -17 11 -28.5t27 -11.5t27 11.5t11 28.5zM-399 592q-15 -28 -40.5 -41.5t-54.5 -13.5q-21 0 -40 8.5t-33 23t-22.5 33t-8.5 39.5q0 29 11 49t31 34q-20 15 -31 34.5t-11 48.5q0 22 8 40.5t22.5 32.5t33.5 22t40 8
q32 0 51.5 -14t30.5 -34l-40 -31q-7 14 -16.5 21.5t-26.5 7.5q-21 0 -37 -15t-16 -38q0 -12 4.5 -22.5t12 -19t17 -13.5t19.5 -5q29 0 55 -15t41 -41l-42 -23q-11 14 -23 21.5t-29 7.5q-19 0 -36.5 -15.5t-17.5 -39.5q0 -23 17 -38.5t37 -15.5q17 0 29 7t23 21z" />
    <glyph glyph-name="u1004.kinzi_u1036" 
d="M0 678q0 -18 -7 -34t-19 -28t-27.5 -19t-33.5 -7t-33.5 7t-27.5 19t-19 28t-7 34q0 17 7 32.5t19 27.5t27.5 19t33.5 7t33.5 -7t27.5 -19t19 -27.5t7 -32.5zM-41 678q0 17 -13.5 30.5t-32.5 13.5q-20 0 -33 -13.5t-13 -30.5q0 -20 13 -34t33 -14q19 0 32.5 13.5
t13.5 34.5zM-189 592q-14 -28 -40 -41t-55 -13q-21 0 -39.5 8.5t-33 23t-23 33t-8.5 39.5q0 28 11.5 48t30.5 34q-19 15 -30.5 34.5t-11.5 48.5q0 22 8 40.5t22.5 32.5t33.5 22t40 8q33 0 52 -14t30 -34l-39 -30q-8 13 -17.5 20.5t-26.5 7.5q-21 0 -36.5 -15t-15.5 -38
t16 -41t36 -18q29 0 55 -15.5t41 -41.5l-42 -22q-11 14 -23 21.5t-29 7.5q-19 0 -36.5 -15.5t-17.5 -40.5q0 -23 17 -38.5t37 -15.5q17 0 29 7t23 21z" />
    <glyph glyph-name="u1004.kinzi_u103A" 
d="M-40 799q-17 27 -43 41.5t-53 14.5q-22 0 -45 -8.5t-41.5 -25t-30 -41t-11.5 -55.5q0 -36 15.5 -62t36.5 -42.5t43 -24t35 -7.5v-54q-30 0 -62.5 13t-59.5 38t-45 60t-18 79q0 42 15.5 76t41 58t58 37.5t67.5 13.5q41 0 78.5 -19.5t58.5 -58.5zM-399 592
q-15 -28 -40.5 -41.5t-54.5 -13.5q-21 0 -40 8.5t-33 23t-22.5 33t-8.5 39.5q0 29 11 49t31 34q-20 15 -31 34.5t-11 48.5q0 22 8 40.5t22.5 32.5t33.5 22t40 8q32 0 51.5 -14t30.5 -34l-40 -31q-7 14 -16.5 21.5t-26.5 7.5q-21 0 -37 -15t-16 -38q0 -12 4.5 -22.5t12 -19
t17 -13.5t19.5 -5q29 0 55 -15t41 -41l-42 -23q-11 14 -23 21.5t-29 7.5q-19 0 -36.5 -15.5t-17.5 -39.5q0 -23 17 -38.5t37 -15.5q17 0 29 7t23 21z" />
    <glyph glyph-name="u1004.kinzi_u102D_u1036" 
d="M-188 724q0 -38 -14 -71.5t-38.5 -59t-57.5 -40t-70 -14.5t-70 14.5t-57.5 40t-39 59t-14.5 71.5t14.5 71.5t39 59t57 40t69.5 14.5t70 -14.5t58 -40t39 -59t14 -71.5zM-243 724q0 26 -10 49.5t-27 41t-39.5 28t-48.5 10.5t-49 -10.5t-40 -28t-27 -41t-10 -49.5t10 -49.5
t27 -41t39.5 -28t48.5 -10.5t49 10.5t40 28t27 41t10 49.5zM0 638q0 -18 -7 -34t-19 -28t-27.5 -19t-33.5 -7t-33.5 7t-27.5 19t-19 28t-7 34t7 33.5t19 27t27.5 18.5t33.5 7t33.5 -7t27.5 -18.5t19 -27t7 -33.5zM-41 638q0 18 -13.5 31t-32.5 13q-20 0 -33 -13t-13 -31
q0 -20 13 -34t33 -14q19 0 32.5 14t13.5 34zM-587 592q-15 -28 -41 -41.5t-55 -13.5q-21 0 -39.5 8.5t-32.5 23t-22.5 33t-8.5 39.5q0 29 11 49t30 34q-19 15 -30 34.5t-11 48.5q0 22 8 40.5t22.5 32.5t33.5 22t40 8q32 0 51.5 -14t29.5 -34l-39 -31q-8 14 -17.5 21.5
t-25.5 7.5q-21 0 -37 -15t-16 -38q0 -24 17 -42t36 -18q29 0 55 -15t41 -41l-42 -23q-11 14 -23 21.5t-29 7.5q-19 0 -36.5 -15.5t-17.5 -39.5q0 -23 17 -38.5t37 -15.5q17 0 28.5 7t23.5 21z" />
    <glyph glyph-name="u1005" unicode="&#x1005;" horiz-adv-x="581" 
d="M525 222q0 -50 -18.5 -93.5t-50 -76t-74 -51.5t-91.5 -19q-50 0 -93 19t-74.5 51.5t-50 76t-18.5 93.5q0 49 18.5 92.5t50 76t74 51.5t91.5 19q50 0 93 -19t75 -51.5t50 -76t18 -92.5zM453 222q0 33 -12.5 63.5t-34 53.5t-50 36.5t-61.5 14.5q-13 0 -24.5 -2.5
t-22.5 -7.5q35 -38 48 -79t13 -79t-13 -79.5t-48 -79.5q11 -4 22.5 -6.5t22.5 -2.5q33 1 62.5 14.5t51 36.5t34 53t12.5 64zM244 222q0 26 -11.5 61t-43.5 69q-28 -23 -45 -57.5t-17 -72.5q0 -41 16 -74t45 -56q32 33 44 68t12 62z" />
    <glyph glyph-name="u1005.med" 
d="M-55 -272q0 -39 -14 -72.5t-38.5 -58.5t-57.5 -39.5t-70 -14.5q-38 0 -70.5 14.5t-57.5 39.5t-39 58.5t-14 72.5q0 38 14 72t38.5 59t57.5 39.5t70 14.5t70 -14.5t58 -39.5t39 -59t14 -72zM-110 -272q0 26 -9.5 49t-26 41t-39 28.5t-47.5 10.5q-19 0 -35 -6
q27 -30 36.5 -62t9.5 -61t-11 -61.5t-37 -61.5q18 -6 37 -6q25 0 47.5 10.5t39 28.5t26 41t9.5 49zM-267 -272q0 20 -9.5 48t-33.5 54q-23 -17 -37 -43.5t-14 -58.5t13.5 -58.5t36.5 -42.5q24 26 34 53t10 48z" />
    <glyph glyph-name="u1006" unicode="&#x1006;" horiz-adv-x="982" 
d="M927 222q0 -50 -18.5 -93.5t-51 -76t-75 -51.5t-90.5 -19q-65 0 -117.5 32t-82.5 84q-30 -52 -83.5 -84t-119.5 -32q-38 0 -78 12.5t-73.5 36.5t-56 58t-25.5 77q48 27 88.5 41t78.5 14q53 0 106 -25.5t90 -73.5q17 20 27 45t10 55q0 28 -11.5 58t-33 54.5t-52.5 40
t-70 15.5q-45 0 -87 -24t-73 -74l-61 35q14 32 37.5 57t52.5 42t62.5 26t68.5 9q67 0 120 -32.5t83 -83.5q30 53 82.5 84.5t117.5 31.5q48 0 91 -19t75 -51.5t50.5 -76t18.5 -92.5zM855 222q0 34 -13 64.5t-35 53.5t-51.5 36.5t-63.5 13.5t-64 -13.5t-52 -36.5t-35 -53.5
t-13 -64.5q0 -35 13 -65.5t35.5 -53t52.5 -36t63 -13.5q34 0 64 13.5t52 36t34.5 53t12.5 65.5zM371 75q-23 35 -61 58t-84 23q-41 0 -89 -21q29 -45 69.5 -63t82.5 -18q23 0 43 5.5t39 15.5z" />
    <glyph glyph-name="u1006.med" 
d="M-55 -272q0 -39 -14.5 -72.5t-39 -58.5t-57.5 -39.5t-70 -14.5q-50 0 -90 25t-64 64q-23 -39 -64.5 -64t-92.5 -25q-32 0 -63 11t-56 30t-41 45t-19 56q73 44 129 44q19 0 40.5 -5.5t42 -16t38 -24.5t29.5 -32q30 34 30 77q0 22 -9 45t-25.5 41.5t-40.5 30.5t-55 12
q-32 0 -64.5 -17.5t-56.5 -57.5l-49 27q13 28 33.5 47.5t44 32t47.5 18.5t45 6q51 0 92.5 -25.5t64.5 -64.5q23 40 63.5 65t90.5 25q37 0 70 -14.5t58 -39.5t39 -59t14 -72zM-110 -272q0 26 -10 49.5t-27 41t-40 28t-49 10.5q-27 0 -50 -10.5t-40 -28t-26.5 -41t-9.5 -49.5
t10 -49.5t27 -41t40 -28t49 -10.5t49 10.5t40 28t27 41t10 49.5zM-480 -384q-16 28 -48 46.5t-69 18.5q-31 0 -68 -17q20 -34 53.5 -49.5t65.5 -15.5q18 0 34.5 4.5t31.5 12.5z" />
    <glyph glyph-name="u1007" unicode="&#x1007;" horiz-adv-x="622" 
d="M527 115l-24.5 42.5l-25.5 42.5q-18 -26 -47.5 -39t-60.5 -13q-21 0 -40.5 6t-34 18t-23.5 29t-9 40q0 39 24 68.5t72 33.5q22 0 43 -10q-12 23 -38 40.5t-71 17.5q-34 0 -64 -14t-52.5 -37.5t-35.5 -54t-13 -63.5q0 -36 12.5 -66.5t34.5 -53t51.5 -35.5t64.5 -13
q42 0 71.5 12.5t57.5 36.5l49 -53q-36 -33 -75.5 -50.5t-102.5 -17.5q-50 0 -93 19t-74.5 51.5t-49.5 76t-18 93.5q0 48 19 91.5t51 76.5t74.5 52t90.5 19q42 0 78.5 -12.5t64.5 -35.5t45 -56t20 -74q24 -27 45 -62t38 -67zM434 256q-15 14 -30 20.5t-37 6.5q-19 0 -31 -10
t-12 -32q0 -16 14 -23.5t31 -7.5q23 0 42.5 10t22.5 36z" />
    <glyph glyph-name="u1007.med" 
d="M-98 -355q-7 13 -19.5 34l-19.5 32q-14 -20 -36.5 -30t-46.5 -10q-32 0 -57.5 18t-25.5 54q0 31 19 53.5t56 24.5q15 0 33 -8q-9 17 -29.5 30.5t-55.5 13.5q-26 0 -49.5 -10.5t-40.5 -28.5t-27 -41.5t-10 -48.5q0 -27 9.5 -51t27 -41t40.5 -27t50 -10q32 0 54 8.5
t45 28.5l38 -41q-28 -26 -59 -39t-79 -13q-38 0 -71 14.5t-57.5 39.5t-38.5 58.5t-14 72.5q0 37 14.5 71t39.5 59t58 40t70 15q33 0 61 -9.5t49.5 -27.5t34.5 -43.5t15 -56.5q17 -20 33 -46t31 -55zM-170 -245q-12 12 -23.5 16t-28.5 4q-33 0 -33 -32q0 -11 10 -17.5
t25 -6.5q18 0 32 8t18 28z" />
    <glyph glyph-name="u1008" unicode="&#x1008;" horiz-adv-x="760" 
d="M345 -371v361q-25 -7 -53 -7q-50 0 -93 19t-75 51t-50.5 75.5t-18.5 93.5q0 49 18.5 92.5t50 76.5t74.5 52t91 19q50 0 93 -19t75 -52t50 -76.5t18 -92.5q0 -65 -29 -117.5t-78 -84.5v-334l202 -50v815h72v-908zM453 222q0 34 -12.5 64.5t-34 53.5t-50.5 36.5t-62 13.5
q-12 0 -23 -2.5t-22 -6.5q34 -38 47 -80t13 -79t-13.5 -79t-47.5 -80q19 -9 44 -9q34 1 63 15t51 36.5t34.5 52.5t12.5 64zM244 222q0 26 -11.5 61.5t-43.5 69.5q-29 -23 -45.5 -57t-16.5 -74t16 -73.5t44 -56.5q32 34 44.5 69t12.5 61z" />
    <glyph glyph-name="u1008.med" horiz-adv-x="183" 
d="M-104 -397q-24 -20 -53 -32.5t-63 -12.5q-38 0 -70.5 14.5t-57.5 40t-39 59t-14 71.5t13.5 71.5t37.5 58.5t56 39.5t70 14.5q37 0 70.5 -14.5t59 -39.5t40 -58.5t14.5 -71.5q0 -20 -4.5 -40t-15.5 -37l115 -30v808h72v-901zM-95 -257q0 26 -9.5 49t-26.5 40.5t-39.5 28
t-47.5 10.5q-19 0 -34 -6q28 -29 37 -61t9 -61t-10.5 -61.5t-36.5 -61.5q15 -6 35 -6q25 1 47.5 11.5t39.5 28t26.5 40.5t9.5 49zM-252 -257q0 20 -9.5 48t-33.5 54q-24 -17 -37.5 -43.5t-13.5 -58.5t13.5 -58.5t36.5 -42.5q24 26 34 53.5t10 47.5z" />
    <glyph glyph-name="u1009" unicode="&#x1009;" horiz-adv-x="572" 
d="M910 -346q0 -35 -4.5 -53t-14.5 -29q-11 -14 -28 -21.5t-51 -7.5h-516q-62 0 -104.5 16t-74.5 49q-34 35 -48 77t-14 98v334l64 34q29 -53 73.5 -75t84.5 -22q34 0 65 13.5t53.5 36t36 53t13.5 65.5q0 34 -13.5 64.5t-36 53.5t-53.5 36.5t-65 13.5q-40 0 -84.5 -22.5
t-73.5 -75.5l-64 35q16 34 40.5 59.5t54.5 42t62.5 24.5t64.5 8q49 0 92.5 -19t76 -51.5t51.5 -76t19 -92.5q0 -50 -19 -93.5t-51.5 -76t-76 -51.5t-92.5 -19q-38 0 -77.5 13t-72.5 38v-235q0 -45 8.5 -80t33.5 -60q26 -26 61 -34.5t80 -8.5h480q16 0 25.5 2t14.5 7.5
t6.5 16t1.5 27.5v40h72v-54z" />
    <glyph glyph-name="u1009_u102C" horiz-adv-x="978" 
d="M923 222q0 -50 -19 -93.5t-51 -76t-75.5 -51.5t-91.5 -19q-37 0 -70 14l28 66q10 -5 21 -6.5t21 -1.5q34 0 64 13.5t52.5 36t35.5 53t13 65.5q0 34 -13 64.5t-35.5 53.5t-52.5 36.5t-64 13.5q-31 0 -60.5 -16t-52.5 -41t-38.5 -55.5t-18.5 -59.5l-1 -16q-2 -41 -20.5 -80
t-50 -70.5t-74 -50.5t-93.5 -19q-38 0 -78 13t-72 39v-236q0 -45 8.5 -80t33.5 -60q26 -26 61 -34.5t80 -8.5h476q16 0 26 2t15 7.5t6.5 16t1.5 27.5v40h72v-54q0 -35 -4.5 -53t-14.5 -29q-11 -14 -28 -21.5t-51 -7.5h-513q-62 0 -104.5 16t-74.5 49q-34 35 -47.5 76.5
t-13.5 97.5l-1 335l64 34q25 -47 67 -72t91 -25q33 0 63.5 13t53.5 35.5t37 53.5t14 66q0 34 -13.5 64.5t-36 53.5t-53.5 36.5t-65 13.5q-40 0 -84.5 -22.5t-73.5 -75.5l-64 35q16 34 40.5 59.5t54.5 42t62.5 24.5t64.5 8q68 0 123 -35t84 -92q32 54 84.5 90.5t117.5 36.5
q48 0 91.5 -19t75.5 -51.5t51 -76t19 -92.5z" />
    <glyph glyph-name="u100A" unicode="&#x100a;" horiz-adv-x="978" 
d="M923 222q0 -50 -19 -93.5t-51 -76t-75.5 -51.5t-91.5 -19q-66 0 -117.5 36.5t-83.5 90.5q-29 -57 -84.5 -92t-123.5 -35q-38 0 -78 13t-72 39v-236q0 -45 8.5 -80t33.5 -60q26 -26 61 -34.5t80 -8.5h476q16 0 26 2t15 7.5t6.5 16t1.5 27.5v40h72v-54q0 -35 -4.5 -53
t-14.5 -29q-11 -14 -28 -21.5t-51 -7.5h-513q-62 0 -104.5 16t-74.5 49q-34 35 -48 77t-14 98v334l64 34q25 -48 67.5 -72.5t90.5 -24.5q34 0 65 13.5t53.5 36t36 52.5t13.5 64q0 31 -12.5 61.5t-35 54.5t-53.5 39t-67 15q-49 0 -90 -24t-68 -74l-64 35q16 34 40.5 59.5
t54.5 42t62.5 24.5t64.5 8q48 0 91 -19t75.5 -51t52 -75t20.5 -91q4 -31 19.5 -61.5t38.5 -55t52 -39.5t60 -15q34 0 64 13.5t52.5 36t35.5 53t13 65.5q0 34 -13 64.5t-35.5 53.5t-52.5 36.5t-64 13.5q-10 0 -21.5 -2.5t-20.5 -6.5l-28 66q15 6 34 10t36 4q48 0 91.5 -19
t75.5 -51t51 -76t19 -93z" />
    <glyph glyph-name="u100A.alt" horiz-adv-x="978" 
d="M923 222q0 -50 -19 -93.5t-51 -76t-75.5 -51.5t-91.5 -19q-66 0 -117.5 36.5t-83.5 90.5q-29 -57 -84.5 -92t-123.5 -35q-38 0 -78 13t-72 39v-298q0 -57 32 -87q34 -34 80 -34h61v-72h-65q-34 0 -68 15t-60 41t-39 58.5t-13 67.5v392l64 34q25 -48 67.5 -72.5
t90.5 -24.5q34 0 65 13.5t53.5 36t36 52.5t13.5 64q0 31 -12.5 61.5t-35 54.5t-53.5 39t-67 15q-49 0 -90 -24t-68 -74l-64 35q16 34 40.5 59.5t54.5 42t62.5 24.5t64.5 8q48 0 91 -19t75.5 -51t52 -75t20.5 -91q4 -31 19.5 -61.5t38.5 -55t52 -39.5t60 -15q34 0 64 13.5
t52.5 36t35.5 53t13 65.5q0 34 -13 64.5t-35.5 53.5t-52.5 36.5t-64 13.5q-10 0 -21.5 -2.5t-20.5 -6.5l-28 66q15 6 34 10t36 4q48 0 91.5 -19t75.5 -51t51 -76t19 -93z" />
    <glyph glyph-name="u100A.med" 
d="M-69 -221q0 -61 -40 -94.5t-115 -33.5q-47 0 -79.5 11t-63.5 46q-23 -32 -55 -44.5t-82 -12.5q-31 0 -59 9.5t-53 32.5q0 -28 7.5 -47t20 -31t28.5 -17t33 -5h368q16 0 22 6t6 24v23h49v-22q0 -40 -16.5 -60.5t-58.5 -20.5h-374q-63 0 -98.5 41.5t-35.5 105.5
q0 10 0.5 25t1.5 26l46 21q19 -31 50 -46t63 -15q48 0 80 20t32 58q0 15 -6 30t-19.5 27t-34.5 20t-52 8q-26 0 -54.5 -12.5t-52.5 -44.5l-34 39q20 28 57 47.5t84 19.5q74 0 117.5 -36t43.5 -98q0 -19 10 -33.5t26.5 -24.5t38 -15t44.5 -5q53 0 79.5 21t26.5 57
q0 43 -27 64t-72 21q-12 0 -26 -4t-23 -9l-21 45q14 8 36 12.5t34 4.5q69 0 108.5 -36.5t39.5 -97.5z" />
    <glyph glyph-name="u100A_u100A" horiz-adv-x="1385" 
d="M1330 222q0 -50 -19 -93.5t-51 -76t-75.5 -51.5t-91.5 -19q-66 0 -117.5 36.5t-83.5 90.5q-29 -57 -84 -92t-122 -35q-66 0 -117.5 36.5t-83.5 90.5q-29 -57 -84.5 -92t-123.5 -35q-38 0 -78 13t-72 39v-236q0 -45 8.5 -80t33.5 -60q26 -26 61 -34.5t80 -8.5h882
q16 0 26 2t15 7.5t6.5 16t1.5 27.5v40h72v-54q0 -35 -4.5 -53t-14.5 -29q-12 -14 -29 -21.5t-51 -7.5h-918q-62 0 -104.5 16t-74.5 49q-34 35 -48 77t-14 98v334l64 34q25 -48 67.5 -72.5t90.5 -24.5q34 0 65 13.5t53.5 36t36 52.5t13.5 64q0 31 -12.5 61.5t-35 54.5
t-53.5 39t-67 15q-49 0 -90 -24t-68 -74l-64 35q16 34 40.5 59.5t54.5 42t62.5 24.5t64.5 8q48 0 91 -19t75.5 -51t52 -75t20.5 -91q4 -31 19.5 -61.5t38.5 -55t52 -39.5t60 -15q34 0 64 13.5t52.5 36t35.5 53t13 65.5q0 34 -13 64.5t-35.5 53.5t-52.5 36.5t-64 13.5
q-10 0 -21.5 -2.5t-20.5 -6.5l-28 66q15 6 34 10t36 4q48 0 91 -18.5t75.5 -51t51.5 -75.5t19 -91q4 -31 19.5 -61.5t38.5 -55t52 -39.5t60 -15q34 0 64 13.5t52.5 36t35.5 53t13 65.5q0 34 -13 64.5t-35.5 53.5t-52.5 36.5t-64 13.5q-10 0 -21.5 -2.5t-20.5 -6.5l-28 66
q15 6 34 10t36 4q48 0 91.5 -19t75.5 -51t51 -76t19 -93z" />
    <glyph glyph-name="u100B" unicode="&#x100b;" horiz-adv-x="595" 
d="M596 -426q-10 -5 -22.5 -10.5t-24.5 -10t-22 -7.5t-16 -3q-35 0 -51 20.5t-16 55.5v100q-35 -14 -73 -19t-77 -5q-55 0 -108.5 12.5t-99.5 41.5v228q45 -32 96.5 -52t111.5 -20q41 0 78 10.5t72 28.5v89q-33 -25 -72.5 -38t-77.5 -13q-49 0 -92.5 19t-76 51.5t-51.5 76
t-19 93.5q0 49 19 92.5t51.5 76t76 51.5t92.5 19q31 0 64 -8t63 -24.5t54.5 -42t40.5 -59.5l-63 -35q-26 47 -68.5 72.5t-90.5 25.5q-34 0 -64.5 -13.5t-53 -36.5t-36 -53.5t-13.5 -64.5q0 -35 13.5 -65.5t36 -53t53 -36t64.5 -13.5q49 0 91 25t68 72l63 -34v-209
q-51 -35 -106.5 -53.5t-115.5 -18.5q-71 0 -137 26v-70q65 -28 137 -28q60 0 112.5 14.5t109.5 44.5v-175q0 -23 11 -23q8 0 24.5 6.5t26.5 11.5l18 -69v0z" />
    <glyph glyph-name="u100B.alt" horiz-adv-x="587" 
d="M516 117q-16 -35 -40.5 -60t-54.5 -42t-63 -25t-64 -8q-49 0 -92.5 19t-76 51.5t-51.5 76t-19 93.5q0 49 19 92.5t51.5 76t76 51.5t92.5 19q31 0 64 -8t63 -24.5t54.5 -42t40.5 -59.5l-63 -35q-26 46 -67.5 72t-91.5 26q-34 0 -64.5 -13.5t-53 -36.5t-36 -53.5
t-13.5 -64.5q0 -35 13.5 -65.5t36 -53t53 -36t64.5 -13.5q50 0 91 24.5t68 72.5zM430 -457v320q-33 -13 -65.5 -20t-70.5 -7q-55 0 -108 15.5t-100 45.5v80q45 -32 96.5 -52t111.5 -20q33 0 60 5t51.5 14t47.5 21.5t48 27.5v-358h72v-72h-143z" />
    <glyph glyph-name="u100B.med" 
d="M-137 -457v64q-6 0 -15.5 -0.5t-16.5 -0.5q-18 0 -39.5 4t-40 15t-31.5 30t-13 48t13 47.5t32 29.5t41.5 15.5t42.5 4.5q29 0 53.5 -5t47.5 -20l-27 -44q-18 9 -34.5 11.5t-39.5 2.5q-12 0 -25 -2t-24 -7t-18 -13t-7 -20t7 -20t17.5 -13t22.5 -7t22 -2q23 0 41.5 2.5
t37.5 9.5v-76h54v-54h-101z" />
    <glyph glyph-name="u100B_u100B" horiz-adv-x="593" 
d="M516 117q-16 -35 -40.5 -60t-54.5 -42t-63 -25t-64 -8q-49 0 -92.5 19t-76 51.5t-51.5 76t-19 93.5q0 49 19 92.5t51.5 76t76 51.5t92.5 19q31 0 64 -8t63 -24.5t54.5 -42t40.5 -59.5l-63 -35q-26 48 -68 73t-91 25q-34 0 -64.5 -13.5t-53 -36.5t-36 -53.5t-13.5 -64.5
q0 -35 13.5 -65.5t36 -53t53 -36t64.5 -13.5q48 0 90 24.5t69 72.5zM445 -457v326q-36 -16 -74 -24.5t-77 -8.5q-55 0 -108 15.5t-100 45.5v80q45 -32 96.5 -52t111.5 -20q69 0 121 23t101 59v-372h77v-72h-148zM288 -457v65q-5 -1 -15.5 -1.5t-18.5 -0.5q-12 0 -33 3.5
t-40.5 14t-34 29.5t-14.5 50q0 28 12.5 46.5t31.5 30t41.5 16t42.5 4.5q22 0 49 -4t53 -21l-28 -45q-20 10 -38 12.5t-36 2.5q-11 0 -24 -2t-24 -6.5t-18 -13t-7 -20.5q0 -13 7.5 -21t18 -12.5t22 -6.5t19.5 -2q26 0 42.5 2.5t37.5 9.5v-76h54v-54h-100z" />
    <glyph glyph-name="u100B_u100C" horiz-adv-x="564" 
d="M506 -277q0 -47 -13.5 -77.5t-28.5 -47.5q-19 -23 -48.5 -39t-69.5 -16h-172q-29 0 -50.5 9.5t-35.5 25.5t-21 36.5t-7 41.5q0 45 31.5 78t88.5 33q27 0 45 -7.5t31 -19.5l-39 -54q-9 6 -18 11t-19 5q-27 0 -41 -13t-14 -33t15 -33t41 -13h130q19 0 32 1.5t23 4.5t18 9
t18 15q32 28 32 87v133q-33 -14 -67 -21.5t-73 -7.5q-55 0 -108 15.5t-100 45.5v80q45 -32 96.5 -52t111.5 -20q33 0 60.5 5.5t53 15.5t49.5 23.5t49 29.5v-251zM516 117q-16 -35 -40.5 -60t-54.5 -42t-63 -25t-64 -8q-49 0 -92.5 19t-76 51.5t-51.5 76t-19 93.5
q0 49 19 92.5t51.5 76t76 51.5t92.5 19q31 0 64 -8t63 -24.5t54.5 -42t40.5 -59.5l-63 -35q-15 26 -34 44.5t-40 30.5t-43 17.5t-42 5.5q-34 0 -64.5 -13.5t-53 -36.5t-36 -53.5t-13.5 -64.5q0 -35 13.5 -65.5t36 -53t53 -36t64.5 -13.5q47 0 89 24t70 73z" />
    <glyph glyph-name="u100C" unicode="&#x100c;" horiz-adv-x="571" 
d="M516 -272q0 -45 -15.5 -76t-37.5 -53q-23 -23 -54 -39.5t-73 -16.5h-152q-29 0 -50.5 11t-35.5 29t-21 39.5t-7 42.5q0 23 9 44.5t25.5 38t39.5 26.5t51 10q27 0 45.5 -6.5t31.5 -17.5l-39 -60q-10 6 -18.5 9t-19.5 3q-23 0 -38.5 -12.5t-15.5 -34.5q0 -20 14.5 -35
t37.5 -15h115q21 0 36 1.5t26 5t20.5 10t20.5 16.5q16 15 24.5 39.5t8.5 50.5v295q-33 -25 -72.5 -38t-77.5 -13q-49 0 -92.5 19t-76 51.5t-51.5 76t-19 93.5q0 49 19 92.5t51.5 76t76 51.5t92.5 19q31 0 64 -8t63 -24.5t54.5 -42t40.5 -59.5l-63 -35q-27 48 -69 73t-90 25
q-34 0 -64.5 -13.5t-53 -36.5t-36 -53.5t-13.5 -64.5q0 -35 13.5 -65.5t36 -53t53 -36t64.5 -13.5q48 0 90 24t69 73l63 -34v-389z" />
    <glyph glyph-name="u100C.med" 
d="M-56 -287q0 -24 -6.5 -49t-19 -48t-32 -42t-45.5 -31l-26 48q37 21 55.5 54t18.5 68q0 27 -10.5 50.5t-28 41t-41 27.5t-49.5 10t-49.5 -10t-41 -27.5t-28 -41t-10.5 -50.5q0 -35 18.5 -68t56.5 -54l-26 -48h-304q-32 0 -57.5 12.5t-39.5 27.5q-16 17 -29 42.5t-13 60.5
v112q0 22 8.5 38.5t22 27.5t30 16.5t33.5 5.5q38 0 65 -26.5t27 -69.5q0 -37 -20 -60l-45 30q6 8 8 15t2 15q0 19 -11.5 30t-25.5 11t-26.5 -10t-12.5 -29v-88q0 -17 1.5 -28.5t4.5 -20t8 -15.5t13 -16q11 -13 28.5 -19.5t36.5 -6.5h231q-20 25 -29.5 55.5t-9.5 59.5
q0 38 14.5 71.5t39.5 58.5t58.5 39.5t71.5 14.5t71.5 -14.5t58.5 -39.5t39.5 -58.5t14.5 -71.5z" />
    <glyph glyph-name="u100D" unicode="&#x100d;" horiz-adv-x="579" 
d="M400 -457v310q-30 -11 -59.5 -16.5t-63.5 -5.5q-57 0 -115.5 16.5t-106.5 51.5v218l64 34q26 -49 68.5 -73t89.5 -24q34 0 65 13.5t53.5 36t36 53t13.5 65.5q0 34 -13.5 64.5t-36 53.5t-53.5 36.5t-65 13.5q-47 0 -89.5 -25t-68.5 -73l-64 35q16 34 40.5 59.5t54.5 42
t62.5 24.5t64.5 8q49 0 92.5 -19t76 -51.5t51.5 -76t19 -92.5q0 -50 -19 -93.5t-51.5 -76t-76 -51.5t-92.5 -19q-38 0 -77.5 13t-72.5 38v-94q35 -18 72 -28.5t78 -10.5q59 0 108 18.5t87 42.5v-346h74v-72h-146z" />
    <glyph glyph-name="u100D.med" 
d="M-137 -447v55q-12 -5 -25.5 -7.5t-42.5 -2.5q-9 0 -23 1.5t-29.5 3.5t-29.5 5t-23 6v106q26 -8 52.5 -10t52.5 -2q12 0 25 2t24 6.5t18 11.5t7 16t-7.5 16t-18.5 11.5t-24 6.5t-24 2q-35 0 -57.5 -2.5t-42.5 -10.5l-14 33q43 17 114 17q14 0 33 -3t36.5 -11t29.5 -22.5
t12 -36.5t-12 -36t-29 -22.5t-36 -11.5t-34 -3q-18 0 -37.5 1.5t-31.5 4.5v-34q11 -3 30 -5.5t39 -2.5q37 0 60.5 7.5t43.5 18.5v-72h46v-36h-82z" />
    <glyph glyph-name="u100D_u100D" horiz-adv-x="579" 
d="M410 -457v314q-32 -14 -65.5 -20t-67.5 -6q-57 0 -115.5 16.5t-106.5 51.5v218l64 34q26 -48 68 -72.5t90 -24.5q34 0 65 13.5t53.5 36t36 53t13.5 65.5q0 34 -13.5 64.5t-36 53.5t-53.5 36.5t-65 13.5q-48 0 -90.5 -25.5t-67.5 -72.5l-64 35q16 34 40.5 59.5t54.5 42
t62.5 24.5t64.5 8q49 0 92.5 -19t76 -51.5t51.5 -76t19 -92.5q0 -50 -19 -93.5t-51.5 -76t-76 -51.5t-92.5 -19q-38 0 -77.5 13t-72.5 38v-94q35 -18 72 -28.5t78 -10.5q59 0 110.5 19t94.5 49v-353h76v-72h-148zM288 -457v55q-12 -5 -25.5 -7.5t-42.5 -2.5q-9 0 -23 1.5
t-29.5 3.5t-29.5 5t-23 6v106q26 -8 52 -10t53 -2q11 0 24 2t24 6.5t18.5 11.5t7.5 16t-7.5 16t-18.5 11.5t-24 6.5t-24 2q-35 0 -57.5 -2t-42.5 -10l-14 33q41 16 114 16q14 0 33 -3t36.5 -11t29.5 -22.5t12 -36.5t-12 -36t-29 -22.5t-36 -11.5t-34 -3q-18 0 -38 1.5
t-32 4.5v-34q12 -3 31 -5.5t39 -2.5q37 0 60.5 7.5t43.5 18.5v-72h46v-36h-82z" />
    <glyph glyph-name="u100D_u100E" horiz-adv-x="582" 
d="M527 240q0 -52 -15.5 -96t-43.5 -77t-65.5 -54.5t-80.5 -27.5v-370h78v-72h-145v442q-47 5 -84 23.5t-62.5 45t-39.5 57.5t-14 61q0 47 19 75.5t42.5 47l42.5 33t19 32.5q0 14 -6.5 24t-23.5 10t-27.5 -10.5t-13.5 -16.5l-52 31q1 9 9 20t21 20t29 15t34 6q45 0 71 -26.5
t26 -72.5q0 -33 -19 -54.5t-42.5 -40t-42.5 -39.5t-19 -54q0 -16 7.5 -35t24 -36.5t41.5 -31t60 -18.5q-1 29 -6.5 43.5t-16.5 19.5v45q9 -3 21.5 -5t23.5 -2q23 0 39 9t16 26q0 16 -17 25.5t-41 9.5q-11 0 -22 -1.5t-20 -4.5v46q20 11 48 11q19 0 38 -5t34 -15.5
t24.5 -26.5t9.5 -39q0 -22 -9 -36.5t-21.5 -23t-25 -12.5t-19.5 -5q5 -8 7.5 -22t3.5 -35q28 5 53 20t44 38.5t30 56t11 72.5q0 54 -17.5 94t-49.5 70l39 56q45 -34 70 -86.5t25 -133.5z" />
    <glyph glyph-name="u100E" unicode="&#x100e;" horiz-adv-x="582" 
d="M527 240q0 -58 -19 -105.5t-52 -81.5t-76.5 -52.5t-92.5 -18.5q-53 0 -96 17.5t-73 44.5t-46.5 60t-16.5 63q0 34 10.5 56t25.5 36.5t33.5 24l33.5 17.5t25.5 16.5t10.5 22.5q0 29 -14 40.5t-31 11.5q-14 0 -24.5 -9t-12.5 -14l-57 35q2 7 10 17t21 18t29 14t33 6
q22 0 42.5 -7.5t36.5 -22.5t25 -37t9 -52q0 -25 -10 -42t-25 -29.5t-32 -22t-32 -20.5t-25 -25t-10 -34q0 -10 9.5 -29t29 -37.5t49.5 -32.5t72 -14q31 0 61 12t54 36t38.5 58.5t14.5 79.5q0 52 -17 91.5t-48 68.5l42 60q44 -34 69.5 -86t25.5 -134z" />
    <glyph glyph-name="u100E.med" 
d="M-52 -259q0 -47 -16 -84t-42 -62.5t-59 -38.5t-67 -13q-41 0 -74 13.5t-56.5 34.5t-36 46t-12.5 48q0 39 16.5 59t37 31.5t37 19.5t16.5 24q0 25 -11 32.5t-22 7.5q-13 0 -20.5 -7.5t-9.5 -13.5l-44 26q3 18 25.5 32.5t48.5 14.5q33 0 59 -23t26 -69q0 -20 -7.5 -32.5
t-19.5 -22t-25 -17t-25 -16t-19.5 -19.5t-7.5 -27q0 -8 7.5 -22.5t22.5 -28.5t38.5 -24.5t55.5 -10.5q27 0 50.5 11t41 30t27 45t9.5 56q0 45 -13 72.5t-37 51.5l34 47q34 -30 53 -68.5t19 -102.5z" />
    <glyph glyph-name="u100F" unicode="&#x100f;" horiz-adv-x="1039" 
d="M984 222q0 -50 -15 -93.5t-42.5 -76t-66.5 -51.5t-87 -19q-13 0 -28 2.5t-26 9.5l26 67q13 -7 28 -7q34 0 60 13.5t43.5 36t26.5 53t9 65.5q0 34 -10.5 64.5t-30 53.5t-47 36.5t-61.5 13.5q-33 0 -57.5 -13.5t-41 -36.5t-24.5 -53.5t-8 -64.5q0 -21 3 -35.5t7 -27.5
t7 -26t3 -30q0 -27 -11 -49.5t-29 -38t-42 -24.5t-49 -9q-24 0 -48 9t-42.5 24.5t-30 38t-11.5 49.5q0 18 3.5 31t7.5 26t7.5 27t3.5 35q0 34 -8.5 64.5t-26 53.5t-42.5 36.5t-58 13.5q-34 0 -61.5 -13.5t-47 -36.5t-30 -53.5t-10.5 -64.5q0 -35 9 -65.5t26.5 -53t43.5 -36
t60 -13.5q20 0 30 7l24 -67q-10 -7 -25.5 -9.5t-28.5 -2.5q-48 0 -87 19t-66.5 51.5t-42.5 76t-15 93.5q0 49 16 92.5t45.5 76t70 51.5t89.5 19q32 0 63 -10.5t57 -29.5q23 19 52.5 29.5t72.5 10.5q42 0 71.5 -10.5t52.5 -29.5q55 40 118 40q48 0 89 -19t70 -51.5t45.5 -76
t16.5 -92.5zM597 365q-15 11 -35 18t-41 7q-20 0 -41 -7t-36 -18q18 -29 28 -65t10 -78q0 -11 -3 -26t-7 -30.5t-7 -29.5t-3 -21q0 -32 17 -46.5t42 -14.5q9 0 19.5 3.5t19 11t14 19t5.5 27.5q0 11 -3 25t-6.5 28.5t-6.5 28.5t-3 25q0 81 37 143z" />
    <glyph glyph-name="u100F.med" 
d="M-55 -272q0 -39 -11.5 -72.5t-32.5 -58.5t-51 -39.5t-67 -14.5q-14 0 -25.5 3t-17.5 6l21 52q10 -5 22 -5q26 0 46 10.5t33.5 28t20.5 41t7 49.5t-8 49.5t-23 41t-36.5 28t-47.5 10.5q-25 0 -44 -10.5t-32 -28t-19.5 -41t-6.5 -49.5q0 -16 2.5 -27t5.5 -21t5.5 -20
t2.5 -23q0 -21 -8.5 -38.5t-22.5 -29.5t-32 -19t-38 -7q-18 0 -36 7t-32 19t-23 29.5t-9 38.5q0 13 2.5 23l5 20l5 21t2.5 27q0 26 -6.5 49.5t-19.5 41t-32.5 28t-44.5 10.5q-26 0 -47.5 -10.5t-36.5 -28t-23 -41t-8 -49.5t7 -49.5t21 -41t34 -28t46 -10.5q13 0 21 5l21 -52
q-7 -5 -19 -7t-23 -2q-37 0 -67 14.5t-51.5 39.5t-33 58.5t-11.5 72.5q0 38 12.5 72t35 59t53.5 39.5t69 14.5q25 0 49 -7.5t44 -24.5q18 16 40.5 24t54.5 8q62 0 96 -31q21 16 44.5 23.5t46.5 7.5q38 0 69 -14.5t53.5 -39.5t35 -59t12.5 -72zM-353 -162q-12 8 -26 13.5
t-33 5.5q-18 0 -32 -5.5t-27 -13.5q30 -45 30 -110q0 -8 -2.5 -20t-5.5 -24l-5.5 -22t-2.5 -16q0 -26 12.5 -36.5t32.5 -10.5q15 0 30 10.5t15 36.5q0 18 -7.5 41t-7.5 41q0 64 29 110z" />
    <glyph glyph-name="u100F_u100B" horiz-adv-x="1039" 
d="M758 -457v114q-33 -9 -71 -9q-31 0 -61 6t-54 21t-38.5 40.5t-14.5 64.5t14.5 64t38.5 39.5t54 20.5t61 6q29 0 63.5 -6t72.5 -20l-10 -54q-27 9 -58 16.5t-68 7.5q-21 0 -41 -3.5t-35.5 -12t-25 -23t-9.5 -36.5q0 -21 9 -35.5t24 -23.5t35 -12.5t43 -3.5q35 0 67.5 5.5
t58.5 14.5v-125h70v-56h-125zM984 222q0 -50 -15 -93.5t-42.5 -76t-66.5 -51.5t-87 -19q-13 0 -28 2.5t-26 9.5l26 67q13 -7 28 -7q34 0 60 13.5t43.5 36t26.5 53t9 65.5q0 34 -10.5 64.5t-30 53.5t-47 36.5t-61.5 13.5q-33 0 -57.5 -13.5t-41 -36.5t-24.5 -53.5t-8 -64.5
q0 -21 3 -35.5t7 -27.5t7 -26t3 -30q0 -27 -11 -49.5t-29 -38t-42 -24.5t-49 -9q-24 0 -48 9t-42.5 24.5t-30 38t-11.5 49.5q0 18 3.5 31t7.5 26t7.5 27t3.5 35q0 34 -8.5 64.5t-26 53.5t-42.5 36.5t-58 13.5q-34 0 -61.5 -13.5t-47 -36.5t-30 -53.5t-10.5 -64.5
q0 -35 9 -65.5t26.5 -53t43.5 -36t60 -13.5q20 0 30 7l24 -67q-10 -7 -25.5 -9.5t-28.5 -2.5q-48 0 -87 19t-66.5 51.5t-42.5 76t-15 93.5q0 49 16 92.5t45.5 76t70 51.5t89.5 19q32 0 63 -10.5t57 -29.5q23 19 52.5 29.5t72.5 10.5q42 0 71.5 -10.5t52.5 -29.5
q55 40 118 40q48 0 89 -19t70 -51.5t45.5 -76t16.5 -92.5zM597 365q-15 11 -35 18t-41 7q-20 0 -41 -7t-36 -18q18 -29 28 -65t10 -78q0 -11 -3 -26t-7 -30.5t-7 -29.5t-3 -21q0 -32 17 -46.5t42 -14.5q9 0 19.5 3.5t19 11t14 19t5.5 27.5q0 11 -3 25t-6.5 28.5t-6.5 28.5
t-3 25q0 81 37 143z" />
    <glyph glyph-name="u100F_u100D" horiz-adv-x="1039" 
d="M641 -191q16 -42 16 -95q0 -96 -52 -171h-168l-26 48q37 22 56 55t19 68q0 27 -10 50.5t-28 41t-41.5 27.5t-50.5 10t-50 -10t-40.5 -27.5t-27.5 -41t-10 -50.5q0 -35 18 -68t56 -55l-27 -48q-27 12 -46 31.5t-31.5 42.5t-18.5 48t-6 49q0 38 14.5 71.5t39 58.5t58 39.5
t71.5 14.5t72 -14.5t59 -39.5t39.5 -58.5t14.5 -71.5q0 -30 -9.5 -60t-30.5 -56h73q14 26 22 55t8 61q0 44 -12.5 79.5t-35.5 70.5h268v54h55v-109h-238zM984 222q0 -50 -15 -93.5t-42.5 -76t-66.5 -51.5t-87 -19q-13 0 -28 2.5t-26 9.5l26 67q13 -7 28 -7q34 0 60 13.5
t43.5 36t26.5 53t9 65.5q0 34 -10.5 64.5t-30 53.5t-47 36.5t-61.5 13.5q-33 0 -57.5 -13.5t-41 -36.5t-24.5 -53.5t-8 -64.5q0 -21 3 -35.5t7 -27.5t7 -26t3 -30q0 -27 -11 -49.5t-29 -38t-42 -24.5t-49 -9q-24 0 -48 9t-42.5 24.5t-30 38t-11.5 49.5q0 18 3.5 31t7.5 26
t7.5 27t3.5 35q0 34 -8.5 64.5t-26 53.5t-42.5 36.5t-58 13.5q-34 0 -61.5 -13.5t-47 -36.5t-30 -53.5t-10.5 -64.5q0 -35 9 -65.5t26.5 -53t43.5 -36t60 -13.5q20 0 30 7l24 -67q-10 -7 -25.5 -9.5t-28.5 -2.5q-48 0 -87 19t-66.5 51.5t-42.5 76t-15 93.5q0 49 16 92.5
t45.5 76t70 51.5t89.5 19q32 0 63 -10.5t57 -29.5q23 19 52.5 29.5t72.5 10.5q42 0 71.5 -10.5t52.5 -29.5q55 40 118 40q48 0 89 -19t70 -51.5t45.5 -76t16.5 -92.5zM597 365q-15 11 -35 18t-41 7q-20 0 -41 -7t-36 -18q18 -29 28 -65t10 -78q0 -11 -3 -26t-7 -30.5
t-7 -29.5t-3 -21q0 -32 17 -46.5t42 -14.5q9 0 19.5 3.5t19 11t14 19t5.5 27.5q0 11 -3 25t-6.5 28.5t-6.5 28.5t-3 25q0 81 37 143z" />
    <glyph glyph-name="u1010" unicode="&#x1010;" horiz-adv-x="987" 
d="M932 222q0 -50 -19 -93.5t-51.5 -76t-75.5 -51.5t-91 -19q-18 0 -36.5 3t-33.5 11l29 66q10 -5 20.5 -6.5t20.5 -1.5q34 0 64.5 13.5t52.5 36t35 53t13 65.5q0 34 -13 64.5t-35 53.5t-52.5 36.5t-64.5 13.5q-39 0 -70 -19.5t-53 -47.5t-34 -58.5t-13 -51.5q0 -38 -16 -79
t-46.5 -74.5t-73.5 -55.5t-97 -22q-50 0 -93 19t-75 51.5t-50.5 76t-18.5 93.5q0 49 18.5 92.5t50 76t74.5 51.5t91 19q67 0 122 -35t84 -92q15 27 36.5 50t47.5 40t55 27t61 10q48 0 91 -19t75.5 -51.5t51.5 -76t19 -92.5zM453 219q0 34 -12.5 65.5t-34 54.5t-51 37
t-63.5 14q-35 0 -65 -13.5t-52 -36.5t-35 -53.5t-13 -64.5q0 -35 13 -65.5t35 -53t51.5 -36t62.5 -13.5q36 0 66 14t51.5 37t34 52.5t12.5 61.5z" />
    <glyph glyph-name="u1010.med" 
d="M-45 -272q0 -39 -14.5 -72.5t-39 -58.5t-58 -39.5t-70.5 -14.5q-15 0 -29 2.5t-26 8.5l23 51q8 -5 16 -5.5t16 -0.5q26 0 49 10.5t40.5 28t27.5 41t10 49.5t-10 49.5t-27.5 41t-40.5 28t-49 10.5q-29 0 -52.5 -15t-40.5 -36t-26.5 -44.5t-10.5 -40.5q0 -26 -12 -57
t-35 -58t-57 -45t-77 -18q-38 0 -71 14.5t-58 39.5t-39 58.5t-14 72.5q0 38 14 72t39 59t57.5 39.5t70.5 14.5q51 0 93 -27t65 -71q25 42 65 70t89 28q37 0 70.5 -14.5t58 -39.5t39 -59t14.5 -72zM-413 -274q0 26 -9.5 50t-26 42t-39.5 28.5t-50 10.5t-50 -10.5t-40 -28
t-27 -41t-10 -49.5t10 -49.5t27 -41t40 -28t49 -10.5q28 0 51 11t39.5 28.5t26 40.5t9.5 47z" />
    <glyph glyph-name="u1010_u103D.med" 
d="M-65 -369q0 -18 -7 -34t-18.5 -28t-27.5 -19t-34 -7q-38 0 -63 26t-25 63q0 18 6.5 34.5t18.5 28.5t28 19.5t35 7.5q39 0 63 -27.5t24 -63.5zM-103 -369q0 20 -14.5 37t-34.5 17t-35.5 -15.5t-15.5 -37.5t15 -37t36 -15q20 0 34.5 15.5t14.5 35.5zM-55 -157
q0 -20 -7.5 -38t-20 -31.5t-30.5 -21.5t-39 -8q-9 0 -17 1t-13 4l16 41q5 -2 14 -2q22 0 37.5 16.5t15.5 38.5q0 23 -16 40.5t-37 17.5q-13 0 -24 -7t-19 -17t-12.5 -21.5t-5.5 -21.5q-2 -36 -28.5 -62.5t-67.5 -26.5q-21 0 -39 8t-31.5 22t-21 32t-7.5 38q0 19 7.5 37.5
t21 32t31.5 22t39 8.5q26 0 45.5 -11.5t33.5 -31.5q14 21 34.5 31.5t43.5 10.5q21 0 38.5 -8.5t30.5 -22.5t20.5 -32.5t7.5 -37.5zM-253 -156q0 23 -16.5 40.5t-39.5 17.5q-22 0 -38.5 -17.5t-16.5 -39.5t16 -39t39 -17t39.5 16.5t16.5 38.5z" />
    <glyph glyph-name="u1011" unicode="&#x1011;" horiz-adv-x="980" 
d="M925 222q0 -50 -18.5 -93.5t-51 -76t-75 -51.5t-90.5 -19q-64 0 -117.5 31.5t-82.5 84.5q-32 -52 -83.5 -84t-114.5 -32q-50 0 -93 19t-75 51.5t-50.5 76t-18.5 93.5q0 49 18.5 92.5t50 76t74.5 51.5t91 19q65 0 117 -32t84 -84q29 52 82.5 84t116.5 32q48 0 91 -19
t75.5 -51.5t51 -76t18.5 -92.5zM853 222q0 34 -13 64.5t-35 53.5t-51.5 36.5t-63.5 13.5t-63.5 -13.5t-51.5 -36.5t-35 -53.5t-13 -64.5q0 -35 13 -65.5t35 -53t51.5 -36t62.5 -13.5q34 0 64 13.5t52 36t35 53t13 65.5zM453 222q0 34 -13 64.5t-34.5 53.5t-51 36.5
t-62.5 13.5q-35 0 -65 -13.5t-52 -36.5t-35 -53.5t-13 -64.5q0 -35 13 -65.5t35 -53t51.5 -36t62.5 -13.5q34 0 64 13.5t52 36t35 53t13 65.5z" />
    <glyph glyph-name="u1011.med" 
d="M-55 -272q0 -39 -14.5 -72.5t-39.5 -58.5t-58 -39.5t-70 -14.5q-50 0 -90 25t-63 65q-24 -40 -64 -65t-90 -25q-38 0 -71 14.5t-57.5 39.5t-39 58.5t-14.5 72.5q0 38 14.5 72t39 59t57.5 39.5t71 14.5q50 0 90 -25t64 -66q23 41 63 66t90 25q37 0 70 -14.5t58 -39.5
t39.5 -59t14.5 -72zM-114 -272q0 26 -10 49.5t-27 41t-40 28t-49 10.5t-49 -10.5t-40 -28t-26.5 -41t-9.5 -49.5t9.5 -49.5t26.5 -41t40 -28t49 -10.5q27 0 50 10.5t40 28t26.5 41t9.5 49.5zM-418 -272q0 26 -10 49.5t-27 41t-40 28t-49 10.5t-49.5 -10.5t-40.5 -28t-27 -41
t-10 -49.5t10 -49.5t27 -41t40.5 -28t49.5 -10.5t49 10.5t40 28t27 41t10 49.5z" />
    <glyph glyph-name="u1012" unicode="&#x1012;" horiz-adv-x="540" 
d="M485 126q0 -30 -12.5 -56t-39 -45.5t-67 -31t-96.5 -11.5q-107 0 -161 38t-54 97l68 26q0 -38 37.5 -63t109.5 -26q26 0 51.5 3.5t46 12t33 22.5t12.5 35q0 17 -12.5 28.5t-32 19t-43 11t-45.5 4.5v64q22 1 45.5 4.5t43 10.5t32 18.5t12.5 29.5q0 20 -12.5 34t-33 22.5
t-46 12.5t-51.5 4q-72 0 -109.5 -25.5t-37.5 -63.5l-68 25q0 59 54.5 97t160.5 38q56 0 96.5 -11.5t67 -31t39 -45.5t12.5 -56q0 -32 -18.5 -58.5t-50.5 -37.5q32 -11 50.5 -37t18.5 -58z" />
    <glyph glyph-name="u1012.med" 
d="M-60 -346q0 -23 -9.5 -43t-30 -35t-51.5 -24t-74 -9q-83 0 -124.5 29.5t-41.5 74.5l52 20q0 -28 28 -48t86 -21q20 0 39.5 2.5t35 9.5t25.5 17.5t10 27.5q0 13 -10 21.5t-25 14t-33.5 8.5t-34.5 4v49q16 0 34 2.5t33.5 8.5t25.5 15.5t10 22.5q0 16 -10 27t-25.5 18
t-35 9.5t-39.5 2.5q-58 0 -86 -21t-28 -49l-52 21q0 45 42 74.5t124 29.5q43 0 74 -9t51.5 -24t30 -35.5t9.5 -43.5q0 -25 -14 -45.5t-39 -28.5q25 -7 39 -28t14 -45z" />
    <glyph glyph-name="u1013" unicode="&#x1013;" horiz-adv-x="581" 
d="M525 222q0 -50 -18.5 -93.5t-50 -76t-74 -51.5t-90.5 -19q-50 0 -93.5 19t-75.5 51.5t-50 76t-18 93.5q0 49 18.5 92.5t50 76t74 51.5t91.5 19q50 0 93 -19t75 -51.5t50 -76t18 -92.5zM453 225q-1 33 -14 63t-34.5 52.5t-50.5 36t-62 13.5q-34 0 -63.5 -13t-52 -35.5
t-36 -52.5t-13.5 -64q0 -26 9 -47q36 34 77 46.5t77 12.5q37 0 78 -13t76 -45q9 21 9 46zM418 119q-33 32 -66.5 42.5t-59.5 10.5t-60.5 -11.5t-69.5 -43.5q23 -29 56 -46t71 -17q40 0 73 18t56 47z" />
    <glyph glyph-name="u1013.med" 
d="M-55 -272q0 -39 -14 -72.5t-38.5 -58.5t-57.5 -39.5t-70 -14.5q-38 0 -70.5 14.5t-57.5 39.5t-39 58.5t-14 72.5q0 38 14 72t38.5 59t57.5 39.5t70 14.5t70 -14.5t58 -39.5t39 -59t14 -72zM-110 -269q-1 26 -11 49t-27 40t-39.5 27t-47.5 10q-26 0 -48.5 -10t-40 -27.5
t-27.5 -40.5t-10 -49q0 -17 7 -35q29 26 59.5 35.5t59.5 9.5q28 0 59 -9.5t60 -35.5q6 16 6 36zM-160 -340q-27 20 -54 24.5t-47 0.5q-10 -5 -22.5 -16t-26.5 -31q20 -17 44.5 -24.5t55.5 -1.5q21 4 33 17t17 31z" />
    <glyph glyph-name="u1014" unicode="&#x1014;" horiz-adv-x="542" 
d="M491 143q0 -66 -36.5 -102t-108.5 -50v-448h-72v439h-33q-33 0 -66.5 4t-60.5 16t-44.5 34.5t-17.5 60.5q0 22 10.5 42.5t28.5 36t43 24.5t54 9q59 0 101 -43q41 -42 53 -107q32 8 54.5 26.5t22.5 57.5q0 29 -20.5 47.5t-51 32.5t-66.5 25.5t-66.5 26t-51 35t-20.5 51.5
q0 24 11.5 43t30.5 31.5t44 19t52 6.5q35 0 63 -10t48 -28l-37 -52q-9 8 -29 16.5t-45 8.5q-24 0 -45 -7.5t-21 -26.5q0 -15 20.5 -25.5t51 -20.5l66.5 -22.5t66.5 -31.5t51 -47.5t20.5 -71.5zM271 48q-8 38 -29 66t-54 28q-26 0 -47.5 -12.5t-21.5 -32.5q0 -17 10.5 -26.5
t27 -14.5t36.5 -6.5t39 -1.5h39z" />
    <glyph glyph-name="u1014.alt" horiz-adv-x="553" 
d="M476 -64l-29.5 29t-44.5 41q-32 -14 -73 -19t-86 -5q-33 0 -66 4t-60 16t-44 34.5t-17 60.5q0 22 10 42.5t28 36t42.5 24.5t53.5 9q26 0 53 -9.5t54.5 -26t55 -37.5l55.5 -44q7 9 11.5 21.5t4.5 29.5q0 29 -20.5 48.5t-51.5 33t-67 25t-67 26t-51.5 34.5t-20.5 51
q0 24 11.5 43t30.5 31.5t44 19t52 6.5q35 0 62.5 -10.5t47.5 -27.5l-37 -52q-10 7 -29.5 16t-43.5 9q-12 0 -23.5 -1.5t-21.5 -5.5t-16 -11t-6 -17q0 -15 20.5 -25t51.5 -20l66.5 -22.5t66.5 -31.5t51.5 -47.5t20.5 -71.5q0 -32 -10 -57t-24 -42l38.5 -36.5t24.5 -24.5z
M346 56l-33 27t-40.5 28.5t-43 23t-39.5 9.5q-30 0 -49.5 -13.5t-19.5 -33.5q0 -17 10.5 -27t26.5 -15t36 -6.5t39 -1.5q34 0 62 1t51 8z" />
    <glyph glyph-name="u1014.med" 
d="M-68 -498l-23 24t-37 36q-25 -11 -56 -15t-66 -4q-24 0 -50 3t-47.5 12.5t-35 26.5t-13.5 45q0 18 8 33.5t22 27.5t33 19t42 7q19 0 40 -7.5t42.5 -20t43 -29t41.5 -33.5q13 14 13 39q0 23 -16 37.5t-39.5 25t-51.5 19.5t-51.5 20t-39.5 26.5t-16 39.5q0 19 9 33t23.5 24
t33.5 15t40 5q53 0 85 -29l-29 -40q-6 6 -21.5 13t-34.5 7q-15 0 -33 -6.5t-18 -21.5q0 -11 15.5 -19t39.5 -15.5t51 -17t51 -24.5t39.5 -37t15.5 -55q0 -47 -27 -74q19 -17 33 -31.5t20 -21.5zM-172 -399q-32 27 -63.5 46.5t-55.5 19.5q-23 0 -38.5 -10.5t-15.5 -26.5
q0 -13 8 -20.5t20.5 -11.5t28 -5t30.5 -1q21 0 41 1.5t45 7.5z" />
    <glyph glyph-name="u1014_u1010_u103B" horiz-adv-x="923" 
d="M649 -400q-54 -57 -131 -57q-15 0 -29.5 2.5t-25.5 8.5l23 51q14 -7 32 -7q26 0 49 10.5t40.5 28.5t27.5 41.5t10 49.5t-10 49.5t-27.5 41.5t-40.5 28.5t-49 10.5q-30 0 -53.5 -15.5t-40.5 -37t-26.5 -45t-10.5 -39.5q0 -30 -12.5 -61.5t-36 -57.5t-57 -42.5t-75.5 -16.5
q-37 0 -70 14.5t-57.5 39.5t-39 58.5t-14.5 72.5q0 38 14.5 71.5t39 59t57 40t69.5 14.5q51 0 93.5 -27t65.5 -71q24 42 64.5 70t89.5 28q37 0 70.5 -14.5t58 -40t39 -59t14.5 -71.5q0 -33 -15 -63l110 -29v815h72v-908zM331 -274q0 26 -9.5 50t-26 42t-39.5 29t-50 11
q-26 0 -49 -10.5t-40 -28.5t-27 -41.5t-10 -49.5t10 -49.5t27 -41.5t39.5 -28.5t48.5 -10.5q27 0 50.5 11t40 29t26 41t9.5 47zM540 -50q-9 10 -21.5 22.5t-36.5 33.5q-32 -14 -73 -19t-86 -5q-33 0 -66 4t-60 16t-44 34.5t-17 60.5q0 22 10 42.5t28 36t42.5 24.5t53.5 9
q25 0 52.5 -10t55.5 -26.5t55.5 -37.5t53.5 -43q8 10 12.5 22.5t4.5 28.5q0 30 -20.5 49t-51.5 33t-67 25.5t-67 25.5t-51.5 34t-20.5 51q0 24 11.5 43t30.5 31.5t44 19t52 6.5q34 0 62 -10t48 -28l-37 -52q-8 8 -29 16.5t-44 8.5t-44.5 -7.5t-21.5 -27.5q0 -15 20.5 -25
t51 -20l66 -22.5t66 -31.5t51 -47.5t20.5 -71.5q0 -32 -8.5 -56.5t-24.5 -42.5l29.5 -28.5t18.5 -17.5zM426 56l-33.5 27.5t-41 29t-42.5 22.5t-39 9q-30 0 -50 -13.5t-20 -33.5q0 -17 10.5 -27t27 -15t36.5 -6.5t39 -1.5q35 0 62 1t51 8z" />
    <glyph glyph-name="u1014_u1010_u103C" horiz-adv-x="784" 
d="M728 -190q0 -21 -2.5 -45.5t-9.5 -50.5t-20 -52t-34 -49q-44 -45 -95.5 -57.5t-104.5 -12.5h-125q-54 0 -105 12.5t-96 57.5q-22 22 -35 48t-20 52.5t-9 51t-2 45.5v886q0 20 2.5 45t9.5 51.5t20 52.5t35 48q44 44 95.5 57t104.5 13h125q53 0 104 -13.5t95 -58.5
q17 -18 29.5 -39t21 -42t12.5 -40t4 -34h-71q0 9 -3 22.5t-9.5 28.5t-15.5 30t-21 27q-16 16 -36.5 25.5t-42.5 14.5t-44.5 6t-42.5 1h-86q-22 0 -44.5 -1.5t-44 -6.5t-41 -14t-35.5 -25q-18 -17 -28 -38.5t-15 -43.5t-6 -43.5t-1 -39.5v-852q0 -17 1.5 -38t6.5 -43.5
t15 -44t27 -38.5q32 -32 75.5 -40t84.5 -8h90q19 0 41 1t44 5.5t43 14t39 27.5q17 17 26.5 38.5t14.5 44t6.5 43.5t1.5 38v75h71v-92zM615 -207q0 -24 -9.5 -46.5t-26 -39t-38 -26.5t-46.5 -10q-23 0 -38 8l16 47q10 -5 22 -5q29 0 49.5 21.5t20.5 50.5q0 13 -5.5 26
t-15 23.5t-22 16.5t-27.5 6q-27 0 -48.5 -22t-26.5 -51q0 -25 -9.5 -47t-25.5 -38.5t-37.5 -26t-45.5 -9.5t-45.5 9.5t-38 26t-26.5 38.5t-10 48q0 25 9.5 47.5t26 39t38 26t46.5 9.5q30 0 56 -14t42 -38q16 23 41.5 37.5t53.5 14.5q24 0 45.5 -9.5t38 -26t26.5 -39
t10 -47.5zM372 -206q0 31 -22 51t-48 20q-28 0 -49.5 -21.5t-21.5 -50.5q0 -32 22 -52t49 -20q30 0 50 21.5t20 51.5zM610 -60q-8 10 -26 27.5t-42 38.5q-33 -14 -73.5 -19t-85.5 -5q-33 0 -66 4t-60 16t-44 34.5t-17 60.5q0 22 10 42.5t28 36t42.5 24.5t53.5 9q26 0 53 -10
t55 -26.5t55.5 -37.5l54.5 -43q7 9 11.5 21.5t4.5 29.5q0 30 -20.5 49t-51.5 33t-67 25.5t-67 25.5t-51.5 34t-20.5 51q0 24 11.5 43t30.5 31.5t44 19t52 6.5q35 0 63 -10.5t47 -27.5l-37 -52q-8 7 -27.5 16t-45.5 9q-9 0 -20.5 -2t-21.5 -6t-17 -10.5t-7 -16.5
q0 -15 20.5 -25t51 -20l66 -22.5t66 -31.5t51 -47.5t20.5 -71.5q0 -32 -8.5 -56.5t-24.5 -42.5l34 -33t23 -24zM486 56l-33 27t-40.5 28.5t-43 23t-39.5 9.5q-30 0 -49.5 -13.5t-19.5 -33.5q0 -17 10.5 -27t26.5 -15t36 -6.5t39 -1.5q34 0 61.5 1t51.5 8z" />
    <glyph glyph-name="u1015" unicode="&#x1015;" horiz-adv-x="589" 
d="M534 239q0 -56 -18.5 -103t-51 -81t-76 -53.5t-93.5 -19.5t-94 19.5t-76.5 53.5t-51 81t-18.5 103q0 78 24.5 130t70.5 91l42 -60q-32 -32 -48.5 -68.5t-16.5 -92.5q0 -39 12.5 -73t35 -58.5t53.5 -39t67 -14.5t66.5 14.5t53 39t35 58.5t12.5 73q0 56 -17 92.5t-48 68.5
l42 60q48 -40 71.5 -91.5t23.5 -129.5z" />
    <glyph glyph-name="u1015.med" 
d="M-56 -259q0 -43 -14.5 -79t-39.5 -62.5t-58.5 -41.5t-72.5 -15t-73 15t-58.5 41.5t-39 62.5t-14.5 79q0 60 19 100.5t55 70.5l33 -48q-24 -23 -38 -51t-14 -72q0 -30 10 -56.5t27.5 -45.5t41 -30t51.5 -11q27 0 51 11t41 30t27 45.5t10 56.5q0 44 -13 72t-37 51l33 48
q36 -30 54.5 -70.5t18.5 -100.5z" />
    <glyph glyph-name="u1016" unicode="&#x1016;" horiz-adv-x="590" 
d="M534 239q0 -57 -19 -104t-51 -81t-76 -53t-93 -19q-50 0 -93.5 19t-76 53t-51.5 81t-19 104q0 79 25 131.5t70 89.5l42 -60q-30 -29 -47.5 -66.5t-17.5 -94.5q0 -40 13.5 -74t36 -58.5t53 -38.5t65.5 -14q52 0 87 28q-38 34 -58.5 75t-20.5 95q0 58 25 113t82 95
q22 -19 44.5 -41.5t40 -49.5t28.5 -59t11 -71zM462 239q0 40 -17.5 69t-41.5 54q-20 -29 -27.5 -56.5t-7.5 -53.5q0 -75 62 -123q15 21 23.5 49.5t8.5 60.5z" />
    <glyph glyph-name="u1016.med" 
d="M-56 -259q0 -43 -14.5 -79.5t-39.5 -62.5t-59 -41t-72 -15t-72 15t-59 41t-39.5 62.5t-14.5 79.5q0 60 19.5 101t54.5 70l33 -48q-25 -23 -38.5 -52.5t-13.5 -70.5q0 -30 10 -56.5t27.5 -45.5t41.5 -30t51 -11q37 0 66 20q-31 28 -45 59t-14 73q0 45 19.5 88t62.5 74
q18 -15 35.5 -32.5t31 -38.5t21.5 -45.5t8 -54.5zM-112 -259q0 31 -15 55t-33 43q-14 -23 -20.5 -45.5t-6.5 -42.5q0 -31 12.5 -56t35.5 -44q11 17 19 36.5t8 53.5z" />
    <glyph glyph-name="u1017" unicode="&#x1017;" horiz-adv-x="590" 
d="M534 227q0 -50 -19 -94.5t-51 -78t-76 -53t-93 -19.5q-50 0 -93.5 19.5t-76 53t-51.5 78t-19 94.5q0 37 5 71.5t16.5 65t29 55t42.5 41.5q31 -54 64.5 -83.5t82.5 -29.5t82.5 29.5t64.5 83.5q24 -17 41 -41.5t28.5 -55t17 -65t5.5 -71.5zM462 227q0 37 -6.5 63.5
t-22.5 51.5q-23 -31 -57 -49t-81 -18q-48 0 -81.5 18t-56.5 50q-17 -25 -23.5 -51.5t-6.5 -64.5q0 -35 13 -66t35.5 -55t53 -38t66.5 -14q35 0 65.5 14t53 38t35.5 55t13 66z" />
    <glyph glyph-name="u1017.med" 
d="M-56 -268q0 -39 -14.5 -73.5t-40 -60t-59 -40.5t-71.5 -15t-72 15t-59 40.5t-39.5 60t-14.5 73.5q0 58 17 106t55 74q25 -42 49 -65t62 -23t64.5 23t50.5 65q38 -26 55 -74t17 -106zM-112 -268q0 31 -5 50.5t-18 39.5q-18 -26 -44 -39.5t-62 -13.5q-70 0 -106 53
q-13 -19 -18 -39t-5 -51q0 -27 10 -51t27 -42.5t41 -29.5t51 -11t51 11t41 29.5t27 42.5t10 51z" />
    <glyph glyph-name="u1018" unicode="&#x1018;" horiz-adv-x="975" 
d="M921 222q0 -50 -19 -93.5t-51 -76t-75.5 -51.5t-91.5 -19q-39 0 -70 14l27 66q10 -5 21 -6.5t22 -1.5q34 0 64 13.5t52.5 36t35.5 53t13 65.5q0 34 -13 64.5t-35.5 53.5t-52.5 36.5t-64 13.5q-33 0 -63 -17.5t-53.5 -44.5t-37.5 -60.5t-15 -65.5q0 -34 -16.5 -72.5
t-47.5 -71.5t-75 -54.5t-99 -21.5q-33 0 -66 8.5t-62.5 25.5t-54 42t-39.5 59l64 34q29 -53 73.5 -75t84.5 -22q36 0 67 13.5t53.5 36.5t35 53t12.5 62q0 34 -13 65.5t-35.5 54.5t-53.5 37t-66 14q-40 0 -84.5 -23t-73.5 -75l-64 35q16 34 41 59t54.5 41.5t62 25t64.5 8.5
q68 0 123.5 -34t84.5 -91q31 53 82 89t117 36q48 0 91.5 -19t75.5 -51.5t51 -76t19 -92.5z" />
    <glyph glyph-name="u1018.med" 
d="M-56 -272q0 -39 -14 -72.5t-39 -58.5t-58 -39.5t-71 -14.5q-31 0 -54 11l22 51q8 -5 16 -5.5t16 -0.5q26 0 49 10.5t40.5 28t27.5 41t10 49.5t-10 49.5t-27.5 41t-40.5 28t-49 10.5q-25 0 -48.5 -13.5t-41.5 -34.5t-29 -46.5t-11 -49.5q0 -26 -12.5 -56t-36 -55.5
t-57.5 -42t-76 -16.5q-24 0 -49 6.5t-48.5 19t-43 32t-31.5 45.5l49 28q23 -41 57 -58t66 -17q28 0 51.5 10.5t40.5 28t26.5 40.5t9.5 48q0 26 -9.5 50t-26.5 42t-40.5 28.5t-51.5 10.5q-32 0 -66 -17t-57 -58l-49 27q12 26 31 45.5t42.5 32.5t49 19.5t49.5 6.5
q54 0 95.5 -27t64.5 -71q25 42 63.5 70t88.5 28q38 0 71 -14.5t58 -40t39 -59t14 -71.5z" />
    <glyph glyph-name="u1019" unicode="&#x1019;" horiz-adv-x="590" 
d="M534 239q0 -56 -18.5 -103t-51 -81.5t-76 -53.5t-93.5 -19t-94 19t-76.5 53.5t-51 81.5t-18.5 103q0 79 24.5 131t70.5 90l42 -60q-32 -32 -48.5 -69.5t-16.5 -91.5q0 -29 11 -62q36 33 77 46.5t80 13.5t79.5 -13t76.5 -46q6 15 8.5 30t2.5 31q0 54 -16.5 91.5
t-48.5 69.5l42 60q47 -38 71 -90t24 -131zM424 118q-34 31 -68 42.5t-61 11.5q-26 0 -60 -11.5t-68 -43.5q22 -29 55 -46t73 -17q41 0 73 16.5t56 47.5z" />
    <glyph glyph-name="u1019.med" 
d="M-56 -259q0 -43 -14.5 -79t-39.5 -62.5t-58.5 -41.5t-72.5 -15t-73 15t-58.5 41.5t-39 62.5t-14.5 79q0 60 19 100.5t55 70.5l33 -48q-24 -23 -38 -52t-14 -71q0 -13 2.5 -24.5t6.5 -22.5q28 26 59 35.5t62 9.5q32 0 62.5 -9.5t58.5 -35.5q4 11 6.5 22.5t2.5 24.5
q0 42 -13.5 71t-37.5 52l33 48q36 -30 54.5 -70.5t18.5 -100.5zM-140 -349q-26 24 -52 33t-49 9q-21 0 -47 -9t-53 -33q17 -23 41 -38t59 -15q33 0 58 14t43 39z" />
    <glyph glyph-name="u101A" unicode="&#x101a;" horiz-adv-x="988" 
d="M933 222q0 -50 -19 -93.5t-51 -76t-75 -51.5t-91 -19q-32 0 -61 10t-53.5 27.5t-45 40.5t-35.5 50q-31 -60 -85 -94t-122 -34q-50 0 -94 19.5t-76.5 53.5t-51 81t-18.5 102q0 79 24.5 131t70.5 91l42 -60q-32 -32 -48.5 -69t-16.5 -93q0 -39 12.5 -72.5t35 -58t53.5 -39
t67 -14.5t66.5 14.5t53 39t35 58t12.5 72.5q0 54 -16.5 92t-48.5 70l42 60q54 -46 74.5 -99t20.5 -119q0 -33 13 -66.5t35.5 -60.5t52 -44t62.5 -17q34 0 64 13.5t52.5 36t35.5 53t13 65.5q0 34 -13 64.5t-35.5 53.5t-52.5 36.5t-64 13.5q-22 0 -43 -9l-28 66q16 8 33.5 11
t37.5 3q48 0 91 -19t75 -51.5t51 -76t19 -92.5z" />
    <glyph glyph-name="u101A.med" 
d="M-54 -273q0 -38 -14.5 -71.5t-39.5 -58.5t-58 -39.5t-70 -14.5q-51 0 -91 28t-63 72q-23 -48 -65 -74t-95 -26q-39 0 -73 15t-58.5 41.5t-39 63t-14.5 78.5q0 61 19 101t55 70l33 -47q-25 -26 -38 -53t-13 -71q0 -31 9.5 -57.5t27 -45.5t41 -29.5t51.5 -10.5
q27 0 51 10.5t41 29.5t27 45.5t10 57.5q0 45 -13 71.5t-37 52.5l33 47q35 -29 54 -68t19 -101q1 -26 11.5 -52t28 -46.5t40.5 -33.5t49 -13t49 10.5t40.5 28t27.5 41t10 49.5t-10 49.5t-27.5 41t-40.5 28t-49 10.5q-8 0 -16 -1t-16 -5l-23 50q12 7 26 9.5t29 2.5
q37 0 70 -14.5t58 -39.5t39.5 -59t14.5 -72z" />
    <glyph glyph-name="u101B" unicode="&#x101b;" horiz-adv-x="611" 
d="M481 -457v637q0 51 -16.5 90t-43.5 65.5t-60.5 40.5t-66.5 14q-32 0 -60.5 -11.5t-50 -31.5t-35.5 -46t-17 -55q36 3 75.5 -4.5t71.5 -26.5q58 -32 88 -83t48 -120q-18 -12 -52 -21t-68 -9q-49 0 -92.5 19t-76 51.5t-51.5 76t-19 93.5q0 46 18 89t50.5 76t76 53t94.5 20
t97.5 -18.5t82 -54t57 -86.5t21.5 -117v-569h78v-72h-149zM331 58q-13 35 -33 60.5t-55 42.5q-25 13 -53.5 17.5t-57.5 1.5q14 -54 58 -90t104 -36q22 0 37 4z" />
    <glyph glyph-name="u101B.alt" horiz-adv-x="608" 
d="M481 -290v470q0 51 -16.5 90t-43.5 65.5t-60.5 40.5t-66.5 14q-32 0 -60.5 -11.5t-50 -31.5t-35.5 -46t-17 -55q36 3 75.5 -4.5t71.5 -26.5q58 -32 88 -83t48 -120q-18 -12 -52 -21t-68 -9q-49 0 -92.5 19t-76 51.5t-51.5 76t-19 93.5q0 46 18 89t50.5 76t76 53t94.5 20
t97.5 -18.5t82 -54t57 -86.5t21.5 -117v-474h-71zM331 58q-13 35 -33 60.5t-55 42.5q-25 13 -53.5 17.5t-57.5 1.5q14 -54 58 -90t104 -36q22 0 37 4z" />
    <glyph glyph-name="u101B.long" horiz-adv-x="608" 
d="M481 -457v638q0 50 -16.5 89t-43.5 65.5t-60.5 40.5t-66.5 14q-32 0 -60.5 -11.5t-50 -31t-35.5 -45t-17 -54.5q40 3 79 -6.5t68 -26.5q30 -18 52 -39t38 -46t27 -54.5t20 -63.5q-26 -16 -56 -23t-65 -7q-49 0 -92.5 19t-76 51.5t-51.5 76t-19 93.5q0 47 18 90t50.5 76
t76 52.5t94.5 19.5t97.5 -18.5t82 -54t57 -86.5t21.5 -116v-642h-71zM331 58q-13 33 -33 60t-55 43q-51 26 -111 20q14 -55 58 -90.5t104 -35.5q12 0 20 0.5t17 2.5z" />
    <glyph glyph-name="u101B.med" 
d="M-104 -457v209q0 53 -30.5 82.5t-86.5 29.5q-21 0 -37 -7t-26.5 -16.5t-16.5 -21t-7 -20.5q79 4 122 -34.5t52 -100.5q-2 -3 -10.5 -7t-20 -7.5t-25 -6t-25.5 -2.5q-32 0 -59 7.5t-47.5 24t-32 42t-11.5 61.5q0 33 13 58.5t34 43t46.5 26.5t50.5 9q74 0 120 -40.5
t46 -117.5v-162h60v-50h-109zM-188 -306q-23 36 -51 50.5t-73 7.5q14 -35 35 -48t62 -13q15 0 27 3z" />
    <glyph glyph-name="u101B.kinzi" 
d="M-39 832q-23 29 -73 29q-20 0 -34 -8t-24 -20t-15.5 -25t-6.5 -22q31 3 59 -7t49 -28t33.5 -43t12.5 -52q-14 -17 -35.5 -24t-45.5 -7t-47.5 8.5t-41.5 25.5t-29.5 43t-11.5 62q0 30 11 56.5t29.5 46.5t43.5 31.5t53 11.5q40 0 68 -13t44 -34zM-87 681q-9 21 -22 34
t-28 19.5t-30.5 8t-29.5 -0.5q5 -28 26 -48t52 -20q8 0 16 1t16 6z" />
    <glyph glyph-name="u101B.kinzi_u102D" 
d="M0 725q0 -39 -14 -72.5t-38.5 -58.5t-57.5 -39.5t-70 -14.5q-38 0 -70.5 14.5t-57.5 39.5t-39 58.5t-14 72.5q0 38 14 71.5t38.5 59t57.5 40t70 14.5t70 -14.5t58 -40t39 -59t14 -71.5zM-55 725q0 26 -10 49.5t-27 41.5t-39.5 28.5t-48.5 10.5t-49 -10.5t-40 -28.5
t-27 -41.5t-10 -49.5t10 -49.5t27 -41.5t39.5 -28.5t48.5 -10.5t49 10.5t40 28.5t27 41.5t10 49.5zM-399 832q-23 29 -72 29q-20 0 -34.5 -8t-24.5 -20t-15.5 -25t-6.5 -22q31 3 59.5 -7t49.5 -28t33.5 -43t12.5 -52q-15 -17 -36.5 -24t-44.5 -7q-24 0 -47.5 8.5t-41.5 25.5
t-29.5 43t-11.5 62q0 30 11 56.5t29.5 46.5t43.5 31.5t53 11.5q40 0 67.5 -13t44.5 -34zM-446 681q-9 21 -22 34t-28 19.5t-30.5 8t-30.5 -0.5q5 -28 26.5 -48t52.5 -20q7 0 15 1t17 6z" />
    <glyph glyph-name="u101B.kinzi_u102E" 
d="M0 725q0 -39 -14 -72.5t-38.5 -58.5t-57.5 -39.5t-70 -14.5t-70 14.5t-57.5 39.5t-39 58.5t-14.5 72.5q0 38 14.5 71.5t39 59t57 40t69.5 14.5q38 0 71 -14.5t57.5 -40t38.5 -59t14 -71.5zM-55 728q0 25 -10 48.5t-27 40.5t-39.5 27.5t-48.5 10.5t-48.5 -10.5t-39.5 -28
t-27.5 -40.5t-10.5 -49q0 -8 1.5 -17t5.5 -19q29 26 59.5 36t59.5 10t60 -9.5t59 -35.5q6 16 6 36zM-79 647q-24 25 -53 34t-48 9t-46.5 -9t-53.5 -34q17 -22 43.5 -37t55.5 -15q32 0 58.5 13.5t43.5 38.5zM-399 832q-23 29 -72 29q-20 0 -34.5 -8t-24.5 -20t-15.5 -25
t-6.5 -22q31 3 59.5 -7t49.5 -28t33.5 -43t12.5 -52q-15 -17 -36.5 -24t-44.5 -7q-24 0 -47.5 8.5t-41.5 25.5t-29.5 43t-11.5 62q0 30 11 56.5t29.5 46.5t43.5 31.5t53 11.5q40 0 67.5 -13t44.5 -34zM-446 681q-9 21 -22 34t-28 19.5t-30.5 8t-30.5 -0.5q5 -28 26.5 -48
t52.5 -20q7 0 15 1t17 6z" />
    <glyph glyph-name="u101B.kinzi_u103A" 
d="M-40 799q-17 27 -43 41.5t-53 14.5q-22 0 -45 -8.5t-41.5 -25t-30 -41t-11.5 -55.5q0 -36 15.5 -62t36.5 -42.5t43 -24t35 -7.5v-54q-30 0 -62.5 13t-59.5 38t-45 60t-18 79q0 42 15.5 76t41 58t58 37.5t67.5 13.5q41 0 78.5 -19.5t58.5 -58.5zM-399 832q-23 29 -72 29
q-20 0 -34.5 -8t-24.5 -20t-15.5 -25t-6.5 -22q31 3 59.5 -7t49.5 -28t33.5 -43t12.5 -52q-15 -17 -36.5 -24t-44.5 -7q-24 0 -47.5 8.5t-41.5 25.5t-29.5 43t-11.5 62q0 30 11 56.5t29.5 46.5t43.5 31.5t53 11.5q40 0 67.5 -13t44.5 -34zM-446 681q-9 21 -22 34t-28 19.5
t-30.5 8t-30.5 -0.5q5 -28 26.5 -48t52.5 -20q7 0 15 1t17 6z" />
    <glyph glyph-name="u101C" unicode="&#x101c;" horiz-adv-x="968" 
d="M913 222q0 -50 -17 -93.5t-47.5 -76t-72 -51.5t-90.5 -19q-56 0 -96.5 20t-69 53t-46 76.5t-27.5 90.5q-17 80 -58.5 124t-102.5 44q-33 0 -62 -13.5t-50.5 -36.5t-34 -53.5t-12.5 -64.5q0 -35 12.5 -65.5t34 -53t50.5 -36t62 -13.5q14 0 25 2.5t22 7.5l32 -63
q-14 -8 -35 -13.5t-44 -5.5q-50 0 -92.5 19t-73.5 51.5t-48 76t-17 93.5q0 49 17 92.5t48 76t73.5 51.5t92.5 19t89.5 -19t69 -52t48.5 -76.5t28 -91.5q14 -76 56.5 -122t108.5 -46q34 0 62.5 13.5t49 36.5t32 53.5t11.5 64.5t-12 64.5t-32.5 53.5t-49 36.5t-61.5 13.5
q-14 0 -27 -3t-24 -8l-31 64q18 10 38.5 14t43.5 4q46 0 87.5 -18.5t72.5 -50.5t49 -75.5t18 -94.5z" />
    <glyph glyph-name="u101C.med" 
d="M-55 -272q0 -39 -13.5 -72.5t-37 -58.5t-55.5 -39.5t-70 -14.5q-42 0 -73 15.5t-52.5 41t-35.5 59t-22 69.5q-13 61 -45.5 95t-77.5 34q-26 0 -49 -10.5t-39.5 -28t-26 -41t-9.5 -49.5t9.5 -49.5t26 -41t39.5 -28t49 -10.5q10 0 18.5 2t16.5 5l25 -48q-12 -7 -26.5 -11
t-33.5 -4q-39 0 -72 14.5t-56.5 39.5t-37 58.5t-13.5 72.5q0 38 13.5 71.5t37 59t56.5 40t72 14.5q38 0 68.5 -15t53 -40t37 -59t21.5 -71q11 -58 44 -93.5t82 -35.5q27 0 49 10.5t38 28t25 41t9 49.5t-9 49.5t-25 41t-38 28t-49 10.5q-10 0 -19.5 -1.5t-18.5 -6.5l-25 48
q14 9 30 12.5t33 3.5q36 0 68 -14t56 -39t38 -59t14 -73z" />
    <glyph glyph-name="u101D" unicode="&#x101d;" horiz-adv-x="580" 
d="M525 222q0 -50 -18.5 -93.5t-50 -76t-74 -51.5t-90.5 -19t-91 19t-75.5 51.5t-51.5 76t-19 93.5q0 49 18.5 92.5t50 76t74.5 51.5t91 19q49 0 92.5 -19t75 -51.5t50 -76t18.5 -92.5zM453 222q0 34 -13 64.5t-34.5 53.5t-51 36.5t-62.5 13.5q-35 0 -65 -13.5t-52 -36.5
t-35 -53.5t-13 -64.5q0 -35 13 -65.5t35 -53t51.5 -36t62.5 -13.5q34 0 64 13.5t52.5 36t35 53t12.5 65.5z" />
    <glyph glyph-name="u101E" unicode="&#x101e;" horiz-adv-x="978" 
d="M923 222q0 -50 -19 -93.5t-51 -76t-75.5 -51.5t-91.5 -19q-32 0 -61.5 10t-55.5 27t-47 40t-37 50q-15 -29 -36.5 -52t-48.5 -40t-58 -26t-65 -9q-35 0 -67.5 8.5t-61.5 26t-53 42.5t-40 58l64 34q28 -50 69.5 -73.5t88.5 -23.5q37 0 68 13.5t53 37t34.5 55t12.5 67.5
q0 33 -14 62.5t-37.5 52t-53.5 35.5t-63 13q-47 0 -90 -25.5t-68 -72.5l-64 35q14 31 37 56t52 42t63 26.5t70 9.5q45 0 88 -18t76.5 -49t53.5 -72t20 -87q1 -29 14.5 -61t36.5 -58.5t54 -44t66 -17.5q34 0 64 13.5t52.5 36t35.5 53t13 65.5q0 34 -13 64.5t-35.5 53.5
t-52.5 36.5t-64 13.5q-22 0 -43 -9l-27 66q15 8 32.5 11t37.5 3q48 0 91.5 -19t75.5 -51.5t51 -76t19 -92.5z" />
    <glyph glyph-name="u101E.med" 
d="M-56 -272q0 -38 -14.5 -72t-39.5 -59t-58.5 -39.5t-70.5 -14.5q-50 0 -90 28.5t-64 68.5q-23 -43 -64.5 -70t-95.5 -27q-49 0 -97.5 25t-74.5 78l51 27q20 -39 53 -57t68 -18q28 0 51.5 10.5t40.5 28.5t26.5 42.5t9.5 52.5q0 26 -10.5 48.5t-28.5 39.5t-41 26.5t-48 9.5
q-35 0 -68 -18t-53 -56l-51 27q26 54 74.5 78.5t97.5 24.5q35 0 68 -14t58.5 -37.5t41 -55t15.5 -66.5q1 -23 11.5 -47.5t28 -45.5t41 -34.5t50.5 -13.5t50 10.5t40.5 28.5t27.5 41.5t10 49.5t-10 49.5t-27.5 41t-40.5 27.5t-50 10q-18 0 -32 -5l-22 50q11 5 25.5 8t28.5 3
q37 0 70.5 -14.5t58.5 -39.5t39.5 -58.5t14.5 -71.5z" />
    <glyph glyph-name="u101E_u1010_u103C" horiz-adv-x="1185" 
d="M1129 -190q0 -23 -3 -49t-10.5 -52t-20.5 -51t-32 -45q-23 -23 -47.5 -37t-50 -21.5t-52 -9.5t-51.5 -2h-526q-57 0 -102 15.5t-87 57.5q-42 41 -59.5 93.5t-17.5 100.5v886q0 21 4 46t13.5 51.5t25 52t38.5 47.5q39 37 82.5 53.5t97.5 16.5h531q73 0 121.5 -20.5
t82.5 -57.5q32 -37 46.5 -78.5t16.5 -70.5h-72q0 19 -11.5 48.5t-34.5 56.5q-12 15 -31 24.5t-41.5 15.5t-47 8t-48.5 2h-484q-42 0 -83 -9.5t-72 -38.5q-17 -14 -29 -33.5t-19.5 -41.5t-11 -45t-3.5 -44v-856q0 -18 3.5 -40t11.5 -44t19.5 -42.5t28.5 -35.5q36 -32 79 -39
t82 -7h478q22 0 45.5 1.5t45 6.5t41.5 14.5t35 25.5q16 17 25.5 37t14 42t6 43.5t1.5 41.5v66h72v-83zM1113 222q0 -50 -18.5 -93.5t-51 -76t-75.5 -51.5t-91 -19q-32 0 -61.5 10t-55 27t-46.5 40.5t-37 49.5q-30 -57 -85.5 -92t-124.5 -35q-32 0 -64.5 8t-62 24.5t-54 42
t-40.5 60.5l63 34q29 -51 70.5 -74t87.5 -23q37 0 68 13.5t53.5 37t34.5 55t12 67.5q0 33 -14 63t-37.5 52t-53.5 35t-63 13q-46 0 -88 -24t-70 -74l-63 35q16 34 40.5 59.5t54 42t62 24.5t64.5 8q46 0 89 -18t76.5 -49t53.5 -71.5t20 -86.5q1 -29 14.5 -61t36.5 -59
t53.5 -44.5t66.5 -17.5q34 0 64 13.5t52 36t35 53t13 65.5q0 34 -13 64.5t-35 53.5t-52 36.5t-64 13.5q-23 0 -42 -9l-29 66q17 8 35 11t36 3q48 0 91 -19t75.5 -51.5t51 -76t18.5 -92.5zM952 -203q0 -32 -12 -60t-32.5 -49t-48 -33t-58.5 -12q-10 0 -24 2t-24 8l22 49
q15 -5 26 -5q19 0 36.5 7.5t31 20.5t21.5 31.5t8 40.5q0 21 -8 39.5t-21.5 32t-31 21t-36.5 7.5q-23 0 -42.5 -11.5t-33 -29t-21 -38t-7.5 -38.5q-1 -22 -11.5 -46t-30 -44.5t-47 -33.5t-60.5 -13q-31 0 -58.5 12t-48 33t-32.5 49t-12 60q0 31 12 59t32.5 49t47.5 33t58 12
q43 0 76 -20.5t53 -54.5q22 33 54 54t71 21q31 0 58.5 -12t48 -33t32.5 -49t12 -59zM645 -203q0 21 -8 39.5t-21.5 32t-31 21t-36.5 7.5q-20 0 -37.5 -7.5t-30.5 -21t-21 -32t-8 -39.5q0 -22 8 -40t21 -31.5t30.5 -21t36.5 -7.5t37 7.5t31.5 21t21.5 31.5t8 40z" />
    <glyph glyph-name="u101F" unicode="&#x101f;" horiz-adv-x="993" 
d="M938 222q0 -50 -19 -93.5t-51 -76t-75.5 -51.5t-91.5 -19q-18 0 -36.5 3t-33.5 11l28 66q16 -8 42 -8q34 0 64 13.5t52.5 36t35.5 53t13 65.5q0 34 -13 64.5t-35.5 53.5t-52.5 36.5t-64 13.5t-64 -17.5t-52.5 -43t-36 -55t-14.5 -52.5q-1 -43 -17.5 -86t-47.5 -77
t-75 -55.5t-99 -21.5q-50 0 -93.5 19.5t-76 53.5t-51.5 81t-19 103q0 78 24.5 130t70.5 91l44 -58q-32 -32 -49.5 -69t-17.5 -94q0 -39 13.5 -73t36 -58.5t53 -39t65.5 -14.5q34 0 64.5 14.5t53 39t36 58.5t13.5 73q0 56 -17.5 93.5t-49.5 69.5l44 58q26 -22 45.5 -47
t30.5 -60q32 47 80.5 77.5t105.5 30.5q48 0 91.5 -19t75.5 -51.5t51 -76t19 -92.5z" />
    <glyph glyph-name="u1020" unicode="&#x1020;" horiz-adv-x="593" 
d="M516 -97q-48 -35 -104 -53.5t-118 -18.5q-36 0 -70.5 6t-66.5 20v-130q0 -29 8 -51t25 -36q10 -9 18 -14.5t17.5 -9t22.5 -5t32 -1.5h116q32 0 46 13t14 33t-13.5 32.5t-40.5 12.5q-18 0 -38 -15l-39 54q11 11 30.5 19t46.5 8q28 0 50 -9t37.5 -24t24 -35.5t8.5 -42.5
q0 -47 -26.5 -80t-85.5 -33h-165q-24 0 -42.5 5t-32.5 13t-23.5 16.5t-16.5 16.5q-18 19 -31 51.5t-13 77.5v249q46 -32 97 -52t111 -20q42 0 78.5 10.5t71.5 27.5v95q-33 -26 -72 -38.5t-78 -12.5q-49 0 -92.5 19t-76 51.5t-51.5 76t-19 93.5q0 49 19 92.5t51.5 76t76 51.5
t92.5 19q31 0 63.5 -8t62.5 -24.5t55 -42t41 -59.5l-63 -35q-28 49 -69.5 73.5t-89.5 24.5q-34 0 -64.5 -13.5t-53 -36.5t-36 -53.5t-13.5 -64.5q0 -35 13.5 -65.5t36 -53t53 -36t64.5 -13.5q48 0 90 24t69 73l63 -34v-214v0z" />
    <glyph glyph-name="u1020.long" horiz-adv-x="579" 
d="M400 -457v310q-30 -11 -59.5 -16.5t-63.5 -5.5q-57 0 -115.5 16.5t-106.5 51.5v218l64 34q26 -49 69 -73t89 -24q34 0 65 13.5t53.5 36t36 53t13.5 65.5q0 34 -13.5 64.5t-36 53.5t-53.5 36.5t-65 13.5q-46 0 -89 -24.5t-69 -73.5l-64 35q16 34 40.5 59.5t54.5 42
t62.5 24.5t64.5 8q49 0 92.5 -19t76 -51.5t51.5 -76t19 -92.5q0 -50 -19 -93.5t-51.5 -76t-76 -51.5t-92.5 -19q-38 0 -77.5 13t-72.5 38v-94q35 -18 72 -28.5t78 -10.5q54 0 100.5 16t94.5 45v-418h-72z" />
    <glyph glyph-name="u1020_u1020" horiz-adv-x="593" 
d="M522 -344q0 -47 -26.5 -80t-85.5 -33h-165q-45 0 -73 17t-41 30q-19 20 -32 55t-13 78v255q46 -31 97 -51t111 -20q42 0 78.5 10t71.5 28v88q-33 -26 -72 -38.5t-78 -12.5q-49 0 -92.5 19t-76 51.5t-51.5 76t-19 93.5q0 49 19 92.5t51.5 76t76 51.5t92.5 19q31 0 63.5 -8
t62.5 -24.5t55 -42t41 -59.5l-63 -35q-15 26 -34 44.5t-40 30.5t-43 17.5t-42 5.5q-34 0 -64.5 -13.5t-53 -36.5t-36 -53.5t-13.5 -64.5q0 -35 13.5 -65.5t36 -53t53 -36t64.5 -13.5q20 0 42 5t43 16.5t40 30t34 45.5l63 -34v-208q-48 -34 -104 -51t-118 -17q-44 0 -80.5 9
t-65.5 24v-147q0 -29 7.5 -52.5t25.5 -39.5q10 -9 18.5 -14.5t18.5 -9t23 -5t33 -1.5h122q40 0 53.5 15.5t13.5 35.5t-13 35.5t-48 15.5q-4 0 -9 -1t-10 -3l-18 58q16 6 37 6q28 0 50 -9t37.5 -24t24 -35.5t8.5 -42.5zM297 -373v68q-14 -3 -32 -3q-9 0 -23.5 1.5t-28.5 8
t-24.5 20t-10.5 38.5q0 21 11 34.5t25 21t28.5 10.5t22.5 3q27 0 46.5 -4.5t38.5 -18.5l-22 -35q-15 12 -32 14t-31 2q-3 0 -10.5 -1t-15 -4t-13.5 -8t-6 -14t5 -14t11.5 -7.5t14.5 -3t14 -0.5q14 0 33 2.5t41 10.5v-79h51v-42h-93z" />
    <glyph glyph-name="u1020_u103E" horiz-adv-x="593" 
d="M522 -344q0 -47 -26.5 -80t-85.5 -33h-165q-35 0 -63.5 12.5t-49.5 33.5q-23 25 -34.5 59.5t-11.5 73.5v256q46 -31 97 -51t111 -20q42 0 78.5 10t71.5 28v88q-33 -26 -72 -38.5t-78 -12.5q-49 0 -92.5 19t-76 51.5t-51.5 76t-19 93.5q0 49 19 92.5t51.5 76t76 51.5
t92.5 19q31 0 63.5 -8t62.5 -24.5t55 -42t41 -59.5l-63 -35q-27 49 -69 73.5t-90 24.5q-34 0 -64.5 -13.5t-53 -36.5t-36 -53.5t-13.5 -64.5q0 -35 13.5 -65.5t36 -53t53 -36t64.5 -13.5q48 0 89.5 23.5t69.5 73.5l63 -34v-208q-95 -68 -222 -68q-44 0 -80.5 9t-65.5 24
v-147q0 -56 29 -88q21 -22 41 -28t56 -6h122q39 0 52.5 15t13.5 36q0 23 -14 37t-46 14q-12 0 -25 -7l-25 51q8 7 21.5 11.5t28.5 4.5q28 0 50 -9t37.5 -24t24 -35.5t8.5 -42.5zM290 -366l-99 35l17 45l52 -19l48 126l44 -16z" />
    <glyph glyph-name="u1021" unicode="&#x1021;" horiz-adv-x="936" 
d="M881 222q0 -52 -20 -96t-53 -76t-77 -50t-92 -18q-26 0 -51.5 5.5t-48.5 18.5q10 65 36.5 120t86.5 93q28 19 65.5 29t69.5 10q-3 27 -16.5 51t-34.5 42t-47.5 28.5t-56.5 10.5q-45 0 -87.5 -21.5t-71.5 -61.5q-4 -30 -21 -53t-46 -33q32 -12 50 -38t18 -57
q0 -59 -51 -102q-51 -42 -163 -42q-108 0 -161.5 37.5t-53.5 97.5l68 26q2 -46 41.5 -67t105.5 -22q28 0 53.5 3.5t45.5 12t32 22.5t12 35q0 17 -12.5 28.5t-32 19t-43 11t-45.5 4.5v64q21 1 44.5 4.5t43 10.5t32.5 18.5t13 29.5q0 20 -12 34t-32 22.5t-45.5 12.5t-53.5 4
q-68 0 -106.5 -22t-40.5 -67l-68 25q0 59 54.5 97t160.5 38q75 0 120.5 -19t68.5 -51q35 34 80.5 52t102.5 18q49 0 92.5 -19t76 -51t51.5 -76t19 -93zM806 196q-30 2 -56 -5t-49 -20q-35 -20 -53.5 -48t-29.5 -66q70 -11 126 32q50 38 62 107z" />
    <glyph glyph-name="u1021.med" 
d="M-30 -272q0 -40 -15.5 -74t-41 -58.5t-59 -38t-70.5 -13.5q-20 0 -39 3.5t-38 14.5q8 51 28.5 93t65.5 71q20 14 47 22t58 8q-3 21 -13.5 39t-26.5 31.5t-36.5 21.5t-42.5 8q-34 0 -67.5 -16t-55.5 -46q-3 -23 -16 -41t-35 -26q24 -8 38 -28.5t14 -44.5
q0 -46 -39.5 -78.5t-125.5 -32.5q-82 0 -124 29.5t-42 74.5l52 20q0 -32 30 -50t84 -19q20 0 39.5 3t35 9.5t25 17t9.5 26.5q0 13 -10 22.5t-25 15t-33 8t-34 3.5v49q16 1 34 3.5t33 8.5t25 15t10 22q0 16 -9.5 26.5t-25 17t-35 9t-39.5 2.5q-54 0 -84 -18t-30 -50l-52 21
q0 44 42.5 73.5t123.5 29.5q57 0 93 -15t53 -39q54 54 141 54q38 0 71.5 -14.5t58 -39.5t39 -58.5t14.5 -71.5zM-88 -293q-26 2 -46 -4t-34 -14q-27 -16 -41.5 -37.5t-22.5 -50.5q25 -3 49 3t43.5 19.5t33 35t18.5 48.5z" />
    <glyph glyph-name="u1022" unicode="&#x1022;" horiz-adv-x="989" 
d="M934 222q0 -49 -19 -92.5t-51 -76.5t-75.5 -52t-91.5 -19q-17 0 -35 3t-35 11l28 66q10 -5 20.5 -6.5t21.5 -1.5q34 0 64 13.5t52.5 36t35.5 53t13 65.5q0 34 -13 64.5t-35.5 53.5t-52.5 36.5t-64 13.5q-33 0 -63.5 -17.5t-54 -44.5t-38 -60t-14.5 -64
q0 -80 -25.5 -132.5t-69.5 -87.5l-42 60q25 22 45 60t20 93q0 44 -13.5 80t-36 61t-53.5 38.5t-65 13.5q-42 0 -72 -13.5t-49.5 -32.5t-29 -38t-9.5 -29q0 -21 10 -34t25 -23.5t32.5 -20.5t32.5 -23t25 -31.5t10 -46.5q0 -27 -9.5 -48.5t-25 -35.5t-36.5 -21.5t-43 -7.5
q-14 0 -29 4.5t-28 12t-22.5 18t-13.5 21.5l57 34q11 -23 37 -23q17 0 30.5 11.5t13.5 34.5q0 16 -10 26t-25.5 18.5l-33.5 18t-33.5 24t-25.5 36.5t-10 56q0 31 16.5 63.5t46.5 59.5t73 44.5t96 17.5q67 0 122.5 -35t85.5 -96q31 56 83.5 93t118.5 37q48 0 91.5 -19
t75.5 -51.5t51 -76t19 -92.5z" />
    <glyph glyph-name="u1023" unicode="&#x1023;" horiz-adv-x="996" 
d="M941 204q0 -80 -24.5 -132t-70.5 -90l-42 60q32 32 48.5 68.5t16.5 93.5q0 39 -13 72.5t-35.5 58t-53 39t-66.5 14.5q-35 0 -65.5 -14t-53 -38.5t-35.5 -58.5t-13 -73v-111h-72v111q0 39 -13 73t-35.5 58.5t-53 38.5t-65.5 14q-36 0 -67 -14.5t-53.5 -39t-35 -58
t-12.5 -72.5q0 -57 16.5 -93.5t48.5 -68.5l-42 -60q-46 38 -70.5 90t-24.5 132q0 55 18.5 102t51 81t76.5 53.5t94 19.5q65 0 118 -32t85 -89q32 57 84.5 89t118.5 32q50 0 94 -19.5t76.5 -53.5t51 -81t18.5 -102zM735 -457v46q19 20 34 48.5t15 75.5q0 31 -9.5 57.5
t-27 45.5t-41 29.5t-51.5 10.5t-51.5 -10.5t-41 -29.5t-27 -45.5t-9.5 -57.5v-86h-55v86q0 31 -10 57.5t-28 45.5t-41.5 29.5t-50.5 10.5t-51 -10.5t-41 -29.5t-27 -45.5t-10 -57.5q0 -44 11.5 -72t38.5 -53l-31 -46q-37 29 -55.5 69t-18.5 102q0 42 14.5 78.5t39.5 63
t58.5 41.5t71.5 15q51 0 91.5 -25t65.5 -69q24 44 65 69t92 25q39 0 72.5 -15t58 -41.5t39 -63t14.5 -78.5q0 -44 -8.5 -70.5t-23.5 -49.5h74v-50h-146z" />
    <glyph glyph-name="u1024" unicode="&#x1024;" horiz-adv-x="1191" 
d="M938 -277q0 -41 -17 -72t-35 -51q-7 -7 -18.5 -17t-27 -19t-36 -15t-46.5 -6h-585q-32 0 -54 12t-36.5 29.5t-21 37.5t-6.5 37q0 42 19.5 72t56 48.5t88.5 27.5t116 9q55 0 104 -6t89.5 -16.5t71 -24t47.5 -27.5l-43 -53q-20 10 -45 20t-57 17.5t-73.5 12.5t-93.5 5
q-98 0 -153 -19.5t-55 -65.5q0 -6 2.5 -13.5t8.5 -14t16 -11.5t25 -5h550q22 0 36.5 1t25.5 4.5t20 10t21 16.5q17 16 25.5 39t8.5 47v489q0 30 -11.5 60t-33 54t-52 39t-67.5 15q-34 0 -64.5 -18t-53.5 -45.5t-36.5 -62t-13.5 -67.5q0 -78 -24.5 -128t-70.5 -87l-42 60
q32 32 48.5 68.5t16.5 93.5q0 39 -12.5 72.5t-35 58t-53 39t-66.5 14.5t-67 -14.5t-53.5 -39t-35 -58t-12.5 -72.5q0 -57 16.5 -93.5t48.5 -68.5l-42 -60q-46 38 -70.5 90t-24.5 132q0 55 18.5 102t51 81t76.5 53.5t94 19.5q68 0 123 -34t84 -95q30 56 82 93t118 37
q48 0 91 -19t75 -51.5t51 -76t19 -92.5v-499zM1054 -457v843q0 44 -18.5 74.5t-45.5 54t-59.5 43.5t-59.5 43.5t-45.5 54t-18.5 75.5q0 38 14 71t39 57t58.5 38t71.5 14q30 0 54 -8t42.5 -21.5t30.5 -30.5t18 -35l-62 -34q-9 26 -32.5 41.5t-50.5 15.5q-24 0 -44.5 -8.5
t-35.5 -23.5t-23 -34.5t-8 -41.5q0 -31 18.5 -53.5t45.5 -43t59.5 -41.5t59.5 -49t45.5 -65.5t18.5 -91.5v-844h-72z" />
    <glyph glyph-name="u1025" unicode="&#x1025;" horiz-adv-x="571" 
d="M504 -348q0 -24 -4.5 -47t-19.5 -37q-14 -15 -34.5 -20t-53.5 -5h-157q-26 0 -47 6.5t-37 15t-27 18t-17 15.5q-9 9 -18 21.5t-16.5 29t-12.5 35t-5 39.5v394l64 34q26 -48 68.5 -72.5t89.5 -24.5q34 0 65 13.5t53.5 36t36 53t13.5 65.5q0 34 -13.5 64.5t-36 53.5
t-53.5 36.5t-65 13.5q-47 0 -89.5 -25t-68.5 -73l-64 35q16 34 40.5 59.5t54.5 42t62.5 24.5t64.5 8q49 0 92.5 -19t76 -51.5t51.5 -76t19 -92.5q0 -50 -19 -93.5t-51.5 -76t-76 -51.5t-92.5 -19q-38 0 -77.5 13t-72.5 39v-301q0 -23 8 -46.5t26 -38.5q17 -15 39 -24t48 -9
h136q30 0 39 8.5t9 36.5v48h72v-56z" />
    <glyph glyph-name="u1026" unicode="&#x1026;" horiz-adv-x="571" 
d="M457 725q0 -39 -14 -72.5t-38.5 -58.5t-57.5 -39.5t-70 -14.5t-70 14.5t-57.5 39.5t-38.5 58.5t-14 72.5q0 38 14 71.5t38.5 59t57 40t69.5 14.5q38 0 71 -14.5t57.5 -40t38.5 -59t14 -71.5zM403 728q-1 25 -11 48.5t-27 40.5t-39.5 27.5t-48.5 10.5q-25 0 -47.5 -10.5
t-39.5 -28t-27.5 -40.5t-10.5 -49q0 -17 6 -36q29 26 59.5 36t59.5 10t60.5 -9.5t59.5 -35.5q6 16 6 36zM378 647q-12 12 -25.5 20.5t-27 14t-26.5 7.5t-22 2q-19 0 -46.5 -9.5t-53.5 -34.5q17 -22 43.5 -37t55.5 -15q32 0 58.5 13.5t43.5 38.5zM504 -348q0 -24 -4.5 -47
t-19.5 -37q-14 -15 -34.5 -20t-53.5 -5h-157q-26 0 -47 6.5t-37 15t-27 18t-17 15.5q-9 9 -18 21.5t-16.5 29t-12.5 35t-5 39.5v394l64 34q26 -48 68.5 -72.5t89.5 -24.5q34 0 65 13.5t53.5 36t36 53t13.5 65.5q0 34 -13.5 64.5t-36 53.5t-53.5 36.5t-65 13.5
q-47 0 -89.5 -25t-68.5 -73l-64 35q16 34 40.5 59.5t54.5 42t62.5 24.5t64.5 8q49 0 92.5 -19t76 -51.5t51.5 -76t19 -92.5q0 -50 -19 -93.5t-51.5 -76t-76 -51.5t-92.5 -19q-38 0 -77.5 13t-72.5 39v-301q0 -23 8 -46.5t26 -38.5q17 -15 39 -24t48 -9h136q30 0 39 8.5
t9 36.5v48h72v-56z" />
    <glyph glyph-name="u1027" unicode="&#x1027;" horiz-adv-x="587" 
d="M531 141q-9 -26 -27.5 -54.5t-47 -51.5t-67.5 -38t-90 -15q-55 0 -100 20t-77 53.5t-49.5 76.5t-17.5 90q0 46 17.5 89t49.5 76.5t77 53.5t100 20q44 0 82 -12.5t67.5 -34.5t50.5 -50.5t31 -60.5q-38 -30 -81.5 -43.5t-85.5 -13.5q-63 0 -109 25.5t-79 67.5
q-24 -23 -36 -55t-12 -62q0 -32 12.5 -63.5t35.5 -54.5q33 42 80 67.5t110 25.5q48 0 91 -16.5t75 -39.5zM443 320q-26 37 -66.5 54.5t-77.5 17.5q-21 0 -39 -4.5t-36 -12.5q31 -38 62 -56t78 -18q44 0 79 19zM443 122q-22 10 -40 15t-38 5q-53 0 -84 -20.5t-56 -54.5
q37 -15 74 -15q39 0 78.5 17t65.5 53z" />
    <glyph glyph-name="u1028" unicode="&#x1028;" horiz-adv-x="581" 
d="M525 -219q0 -45 -16.5 -87.5t-47 -76t-73.5 -54t-95 -20.5q-57 0 -101.5 21t-74.5 55t-46 76.5t-16 85.5v443q0 43 16 85.5t46 76.5t74.5 54.5t101.5 20.5q54 0 97 -21.5t73 -56t46 -76.5t16 -84q0 -44 -10.5 -87t-33 -77.5t-58 -55.5t-86.5 -21q-21 0 -41.5 5.5
t-36 17.5t-25.5 30t-10 42q0 29 17 43.5t37.5 23t37.5 14.5t17 18q0 23 -14 34t-31 11q-16 0 -28 -11t-13 -19l-51 31q3 10 11 20.5t20.5 19.5t28 14.5t32.5 5.5q43 0 74 -29t31 -77q0 -29 -16.5 -44t-36.5 -23.5t-36.5 -14t-16.5 -14.5q0 -11 5 -17.5t12.5 -9.5t16.5 -4
t16 -1q24 0 46.5 9.5t39 30.5t26.5 54t10 80q0 39 -15.5 70.5t-39.5 53t-53.5 33t-57.5 11.5q-35 0 -65 -12.5t-52.5 -35t-35.5 -53t-13 -67.5v-440q0 -36 13 -66.5t35.5 -53t52.5 -35t65 -12.5t64.5 14t50.5 37.5t33 53t12 61.5h72v0z" />
    <glyph glyph-name="u1029" unicode="&#x1029;" horiz-adv-x="1185" 
d="M1113 222q0 -50 -18.5 -93.5t-51 -76t-75.5 -51.5t-91 -19q-32 0 -61.5 10t-55 27t-46.5 40.5t-37 49.5q-30 -57 -85.5 -92t-124.5 -35q-32 0 -64.5 8t-62 24.5t-54 42t-40.5 60.5l63 34q29 -50 70.5 -73.5t87.5 -23.5q37 0 68 13.5t53.5 37t34.5 55t12 67.5q0 33 -14 63
t-37.5 52t-53.5 35t-63 13q-46 0 -89 -25t-69 -73l-63 35q16 34 40.5 59.5t54 42t62 24.5t64.5 8q46 0 89 -18t76.5 -49t53.5 -72t20 -87q1 -29 14.5 -61t36.5 -58.5t53.5 -44t66.5 -17.5q34 0 64 13.5t52 36t35 53t13 65.5q0 34 -13 64.5t-35 53.5t-52 36.5t-64 13.5
q-23 0 -42 -9l-29 66q16 8 33.5 11t37.5 3q48 0 91 -19t75.5 -51.5t51 -76t18.5 -92.5zM1129 -190q0 -23 -3 -49t-10.5 -52t-20.5 -51t-32 -45q-23 -23 -47.5 -37t-50 -21.5t-52 -9.5t-51.5 -2h-526q-57 0 -102 15.5t-87 57.5q-40 38 -58.5 90t-18.5 104v886
q0 48 18.5 101.5t62.5 95.5q39 37 82.5 53.5t97.5 16.5h531q63 0 111 -15t89 -58q32 -34 48.5 -77.5t18.5 -76.5h-72q-2 22 -13.5 52.5t-34.5 54.5q-29 32 -72.5 40t-93.5 8h-483q-43 0 -85.5 -10.5t-76.5 -42.5q-17 -15 -28 -35.5t-17.5 -42t-9 -42.5t-2.5 -39v-856
q0 -18 3.5 -40t11.5 -44t19.5 -42.5t28.5 -35.5q36 -32 79 -39t82 -7h478q23 0 46.5 1.5t45 6.5t41.5 15t35 27q16 16 25.5 36.5t14 41.5t5.5 42.5t1 41.5v66h72v-83z" />
    <glyph glyph-name="u102A" unicode="&#x102a;" horiz-adv-x="2171" 
d="M1635 736q-1 10 -4.5 23t-10 27t-15 28t-18.5 25q-32 35 -76.5 43.5t-89.5 8.5h-484q-43 0 -84.5 -9.5t-74.5 -41.5q-18 -16 -29 -36.5t-18 -42.5t-9.5 -43.5t-2.5 -40.5v-854q0 -18 3.5 -40t11.5 -44t19.5 -42.5t28.5 -35.5q36 -32 79 -39t82 -7h477q46 0 91 7.5
t77 40.5q16 17 25.5 37t14 42t6 43.5t1.5 41.5v66h72v-83q0 -23 -3 -49t-10.5 -52t-20.5 -51t-32 -45q-23 -23 -47.5 -37t-50 -21.5t-52 -9.5t-51.5 -2h-526q-57 0 -103.5 17t-85.5 56q-40 38 -58.5 91.5t-18.5 102.5v886q0 21 4 46t13.5 51.5t25 52t38.5 47.5
q39 37 82.5 53.5t97.5 16.5h530q69 0 118.5 -18.5t86.5 -59.5q16 -20 28 -41t19.5 -41t11 -37.5t4.5 -29.5h-72zM2116 222q0 -50 -19 -93.5t-51 -76t-75 -51.5t-91 -19q-17 0 -41.5 4t-46.5 15l28 65q14 -6 31.5 -9t28.5 -3q34 0 64 13.5t52 36t35 53t13 65.5q0 34 -13 64.5
t-35 53.5t-52 36.5t-64 13.5q-55 0 -101.5 -29.5t-97.5 -76.5q5 -16 7.5 -31t2.5 -31q0 -50 -19 -93.5t-51 -76t-74.5 -51.5t-90.5 -19q-32 0 -61.5 10t-55.5 27t-47 40t-37 50q-30 -57 -85.5 -92t-123.5 -35q-33 0 -66 8.5t-62.5 25.5t-54 42t-39.5 59l64 34
q27 -49 69.5 -73t88.5 -24q37 0 68 13.5t53 37t34.5 55t12.5 67.5q0 33 -14 62.5t-37.5 52t-53.5 35.5t-63 13q-46 0 -89 -25t-69 -73l-64 35q16 34 41 59t54.5 41.5t62 25t64.5 8.5q45 0 88 -18t76.5 -49t53.5 -71.5t20 -86.5q1 -29 14.5 -61t36.5 -59t54 -44.5t67 -17.5
q34 0 63.5 13.5t51.5 36t35 53t13 65.5q0 34 -13 64.5t-35 53.5t-51.5 36.5t-63.5 13.5q-25 0 -44 -9l-28 66q15 8 33.5 11t38.5 3q60 0 112 -29.5t82 -77.5q31 27 59 47t55.5 33.5t55.5 20t60 6.5q48 0 91 -19t75 -51.5t51 -76t19 -92.5zM528 166q-1 -29 -18 -61.5
t-47.5 -59.5t-73.5 -45t-95 -18q-51 0 -94.5 19t-76 52t-50.5 76.5t-18 92.5q0 46 18 89t50 76.5t75.5 53.5t95.5 20q32 0 65 -8.5t63 -25.5t54 -42t39 -58l-62 -35q-26 46 -68 72t-91 26q-38 0 -68.5 -14.5t-52.5 -38.5t-34 -54t-12 -61q0 -29 10 -54.5t27 -45.5
q38 50 90 74t106 24q43 0 84.5 -15t83.5 -39zM446 136q-45 19 -88 19q-50 0 -86.5 -22.5t-59.5 -57.5q19 -10 39 -15.5t43 -5.5q42 0 82.5 18.5t69.5 63.5zM2074 799q-17 27 -43.5 41.5t-53.5 14.5q-22 0 -44.5 -8.5t-41 -25t-30 -41t-11.5 -55.5q0 -36 15.5 -62t36.5 -42.5
t43 -24t35 -7.5v-54q-30 0 -62.5 13t-60 38t-45 60t-17.5 79q0 42 15.5 76t41 58t58 37.5t67.5 13.5q42 0 79.5 -20.5t56.5 -57.5z" />
    <glyph glyph-name="u102B" unicode="&#x102b;" horiz-adv-x="196" 
d="M69 0v716q0 65 -26.5 90t-72.5 26q-44 0 -71.5 -25t-27.5 -89h-71q0 37 10 71t31 59.5t53 40.5t77 15q36 0 67 -11.5t53.5 -34.5t35.5 -58.5t13 -83.5v-716h-71z" />
    <glyph glyph-name="u102B_u103A" horiz-adv-x="465" 
d="M338 718q0 62 -27 88t-71 26q-47 0 -73.5 -26.5t-26.5 -89.5v-716h-71v716q0 63 -26 89.5t-72 26.5t-73 -25.5t-27 -88.5h-71q0 40 11 74t32.5 59t53.5 39t74 14q50 0 81 -17t53 -51q22 34 53 51t82 17q42 0 73.5 -14t53 -39t32 -59t10.5 -74h-71z" />
    <glyph glyph-name="u102C" unicode="&#x102c;" horiz-adv-x="424" 
d="M368 222q0 -50 -18.5 -93.5t-51 -76t-75 -51.5t-90.5 -19q-22 0 -45 4.5t-43 14.5l28 65q12 -6 30 -9t30 -3q34 0 63.5 13.5t52 36t35.5 53t13 65.5q0 34 -13 64.5t-35 53.5t-52 36.5t-64 13.5q-27 0 -51.5 -8.5t-50 -23.5t-52.5 -36.5l-57 -46.5l-42 63l64.5 51t59 39
t60.5 24.5t69 8.5q48 0 90.5 -19t75 -51.5t51 -76t18.5 -92.5z" />
    <glyph glyph-name="u102D" unicode="&#x102d;" 
d="M-55 725q0 -39 -14 -72.5t-38.5 -58.5t-57.5 -39.5t-70 -14.5q-38 0 -70.5 14.5t-57.5 39.5t-39 58.5t-14 72.5q0 38 14 71.5t38.5 59t57.5 40t70 14.5t70 -14.5t58 -40t39 -59t14 -71.5zM-110 725q0 26 -10 49.5t-27 41.5t-39.5 28.5t-48.5 10.5t-49 -10.5t-40 -28.5
t-27 -41.5t-10 -49.5t10 -49.5t27 -41.5t39.5 -28.5t48.5 -10.5t49 10.5t40 28.5t27 41.5t10 49.5z" />
    <glyph glyph-name="u102D_u1036" horiz-adv-x="55" 
d="M-204 725q0 -39 -14 -72.5t-38.5 -58.5t-57.5 -39.5t-70 -14.5t-70 14.5t-57.5 39.5t-38.5 58.5t-14 72.5q0 38 14 71.5t38.5 59t57 40t69.5 14.5q38 0 71 -14.5t57.5 -40t38.5 -59t14 -71.5zM-259 725q0 26 -10 49.5t-27 41.5t-39.5 28.5t-48.5 10.5t-49 -10.5
t-40 -28.5t-27 -41.5t-10 -49.5t10 -49.5t27 -41.5t39.5 -28.5t48.5 -10.5t49 10.5t40 28.5t27 41.5t10 49.5zM0 725q0 -18 -7 -34t-19 -28t-27.5 -19t-33.5 -7t-33.5 7t-27.5 19t-19 28t-7 34t7 33.5t19 27t27.5 18.5t33.5 7t33.5 -7t27.5 -18.5t19 -27t7 -33.5zM-41 725
q0 18 -13.5 31t-32.5 13q-20 0 -33 -13t-13 -31q0 -20 13 -34t33 -14q19 0 32.5 14t13.5 34z" />
    <glyph glyph-name="u102E" unicode="&#x102e;" 
d="M-55 725q0 -39 -14 -72.5t-38.5 -58.5t-57.5 -39.5t-70 -14.5t-70 14.5t-57.5 39.5t-39 58.5t-14.5 72.5q0 38 14.5 71.5t39 59t57 40t69.5 14.5q38 0 71 -14.5t57.5 -40t38.5 -59t14 -71.5zM-235 855q-26 0 -48.5 -10.5t-39.5 -28t-27 -40.5t-11 -49q0 -8 1.5 -17
t5.5 -19q29 26 59.5 36t59.5 10t60 -9.5t59 -35.5q6 16 6 36q0 25 -10 48.5t-27 40.5t-39.5 27.5t-48.5 10.5zM-134 647q-24 25 -53 34t-48 9t-46.5 -9t-53.5 -34q17 -22 43.5 -37t55.5 -15q32 0 58.5 13.5t43.5 38.5z" />
    <glyph glyph-name="u102F" unicode="&#x102f;" horiz-adv-x="168" 
d="M40 -457v901h72v-829h83v-72h-155z" />
    <glyph glyph-name="u102F.med" 
d="M-126 -457v359h68v-292h85v-67h-153z" />
    <glyph glyph-name="u1030" unicode="&#x1030;" horiz-adv-x="326" 
d="M200 -457v901h72v-829h80v-72h-152zM40 -457v901h71v-901h-71z" />
    <glyph glyph-name="u1030.med" 
d="M-125 -457v359h67v-292h85v-67h-152zM-281 -457v359h68v-359h-68z" />
    <glyph glyph-name="u1031" unicode="&#x1031;" horiz-adv-x="584" 
d="M528 166q-1 -29 -18 -61.5t-47.5 -59.5t-73.5 -45t-95 -18q-51 0 -94.5 19t-76 52t-50.5 76.5t-18 92.5q0 46 18 89t50 76.5t75.5 53.5t95.5 20q33 0 66.5 -8.5t63 -25.5t53.5 -42t38 -58l-62 -35q-26 46 -67.5 72t-91.5 26q-39 0 -70 -15.5t-52.5 -40t-33 -54.5
t-11.5 -58q0 -29 10 -54.5t27 -45.5q38 50 89 74t107 24q38 0 80 -14t88 -40zM446 136q-45 19 -88 19q-48 0 -84 -21t-62 -59q19 -10 39 -15.5t43 -5.5q43 0 84.5 19.5t67.5 62.5z" />
    <glyph glyph-name="u1032" unicode="&#x1032;" 
d="M-88 590l-301 239l32 45l302 -240z" />
    <glyph glyph-name="u1032_u102D" horiz-adv-x="55" 
d="M-427 590l-301 239l32 45l302 -240zM0 725q0 -39 -14 -72.5t-38.5 -58.5t-57.5 -39.5t-70 -14.5q-38 0 -70.5 14.5t-57.5 39.5t-39 58.5t-14 72.5q0 38 14 71.5t38.5 59t57.5 40t70 14.5t70 -14.5t58 -40t39 -59t14 -71.5zM-55 725q0 26 -10 49.5t-27 41.5t-39.5 28.5
t-48.5 10.5t-49 -10.5t-40 -28.5t-27 -41.5t-10 -49.5t10 -49.5t27 -41.5t39.5 -28.5t48.5 -10.5t49 10.5t40 28.5t27 41.5t10 49.5z" />
    <glyph glyph-name="u1033" unicode="&#x1033;" 
d="M-55 725q0 -38 -14 -72t-38.5 -59t-57 -39.5t-69.5 -14.5q-38 0 -71 14.5t-58 39.5t-39 59t-14 72q0 37 14 70.5t38.5 59t57 40t69.5 14.5q38 0 71.5 -14.5t58 -40t38.5 -59t14 -70.5zM-110 725q0 26 -9.5 49.5t-26.5 41t-39.5 28t-48.5 10.5q-27 0 -50 -10.5t-40 -28
t-27 -41t-10 -49.5q0 -27 10 -50.5t26.5 -41t39 -28t48.5 -10.5q27 0 50 10.5t40.5 28t27 41t9.5 50.5zM-167 725q0 -27 -20 -48t-47 -21t-46.5 21t-19.5 48t19.5 47.5t46.5 20.5t47 -20.5t20 -47.5zM-203 725q0 13 -9 22t-22 9q-14 0 -22.5 -9t-8.5 -22q0 -14 8.5 -23.5
t22.5 -9.5q13 0 22 9.5t9 23.5z" />
    <glyph glyph-name="u1034" unicode="&#x1034;" 
d="M-357 590l-33 44l303 241l32 -45z" />
    <glyph glyph-name="u1035" unicode="&#x1035;" 
d="M-56 683q0 -23 -13.5 -48t-37.5 -46t-57 -34.5t-72 -13.5t-72.5 14.5t-58 40t-38.5 59t-14 71.5q0 36 13.5 69t38 58.5t58 41t73.5 15.5q25 0 50.5 -7t48.5 -20t41.5 -32t29.5 -44l-47 -27q-22 38 -53.5 56.5t-69.5 18.5q-28 0 -51.5 -10.5t-40.5 -28.5t-26.5 -41.5
t-9.5 -48.5q0 -47 30 -78q25 35 64 56t85 21q29 0 60.5 -10t68.5 -32zM-117 662q-36 17 -68 17q-35 0 -67.5 -18t-49.5 -48q16 -8 32.5 -12.5t33.5 -4.5q32 0 65.5 16t53.5 50z" />
    <glyph glyph-name="u1036" unicode="&#x1036;" 
d="M-55 667q0 -18 -7 -33.5t-19 -27.5t-27.5 -19t-33.5 -7t-33.5 7t-27.5 19t-19 27.5t-7 33.5t7 33.5t19 27.5t27.5 19t33.5 7t33.5 -7t27.5 -19t19 -27.5t7 -33.5zM-96 667q0 18 -13.5 31.5t-32.5 13.5q-20 0 -33 -13.5t-13 -31.5q0 -19 13 -33t33 -14q19 0 32.5 13.5
t13.5 33.5z" />
    <glyph glyph-name="u1037" unicode="&#x1037;" 
d="M0 -231q0 -18 -7 -33.5t-19 -27.5t-27.5 -19t-33.5 -7t-33.5 7t-27.5 19t-19 27.5t-7 33.5t7 33.5t19 27.5t27.5 19t33.5 7t33.5 -7t27.5 -19t19 -27.5t7 -33.5zM-41 -231q0 19 -13.5 32t-32.5 13q-20 0 -33 -13t-13 -32q0 -18 13 -32.5t33 -14.5q19 0 32.5 14t13.5 33z
" />
    <glyph glyph-name="u1038" unicode="&#x1038;" horiz-adv-x="284" 
d="M228 84q0 -18 -7 -34t-18.5 -27.5t-27 -18.5t-33.5 -7q-36 0 -61.5 25.5t-25.5 61.5q0 37 25.5 62t61.5 25q18 0 33.5 -6.5t27 -18.5t18.5 -28t7 -34zM187 84q0 17 -12.5 32t-32.5 15t-33 -15t-13 -32t12 -31.5t34 -14.5q20 0 32.5 14.5t12.5 31.5zM228 375q0 -18 -7 -34
t-18.5 -28t-27 -19t-33.5 -7q-36 0 -61.5 25.5t-25.5 62.5t25.5 62t61.5 25q18 0 33.5 -6.5t27 -18.5t18.5 -28t7 -34zM187 375q0 17 -12.5 31t-32.5 14t-33 -14t-13 -31t13 -32t33 -15t32.5 15t12.5 32z" />
    <glyph glyph-name="u1039" unicode="&#x1039;" horiz-adv-x="55" 
d="M0 -271q0 -17 -17 -17t-17 17t17 17t17 -17zM-14 -207q0 -17 -15 -17q-17 0 -17 17q0 16 17 16q15 0 15 -16zM-50 -153q0 -17 -17 -17t-17 17t17 17t17 -17zM-105 -116q0 -17 -17 -17q-16 0 -16 17t16 17q17 0 17 -17zM-170 -103q0 -17 -15 -17q-17 0 -17 17t17 17
q15 0 15 -17zM-233 -116q0 -17 -17 -17q-18 0 -18 17t18 17q17 0 17 -17zM-289 -153q0 -17 -16 -17q-17 0 -17 17t17 17q16 0 16 -17zM-325 -207q0 -17 -17 -17t-17 17q0 16 17 16t17 -16zM-339 -271q0 -17 -16 -17q-17 0 -17 17t17 17q16 0 16 -17zM-325 -337
q0 -16 -17 -16t-17 16q0 17 17 17t17 -17zM-289 -391q0 -18 -16 -18q-17 0 -17 18q0 17 17 17q16 0 16 -17zM-233 -428q0 -15 -17 -15q-18 0 -18 15q0 17 18 17q17 0 17 -17zM-170 -441q0 -15 -15 -15q-17 0 -17 15q0 17 17 17q15 0 15 -17zM-105 -428q0 -15 -17 -15
q-16 0 -16 15q0 17 16 17q17 0 17 -17zM-50 -391q0 -18 -17 -18t-17 18q0 17 17 17t17 -17zM-14 -337q0 -16 -15 -16q-17 0 -17 16q0 17 17 17q15 0 15 -17z" />
    <glyph glyph-name="u103A" unicode="&#x103a;" horiz-adv-x="55" 
d="M-40 799q-17 29 -43.5 42.5t-52.5 13.5q-24 0 -47 -9t-41 -25.5t-29 -41t-11 -54.5q0 -36 15.5 -62t36.5 -42.5t43 -24t35 -7.5v-54q-30 0 -62.5 13t-59.5 38t-45 60t-18 79q0 42 15.5 76t41 58t58 37.5t67.5 13.5q41 0 78.5 -19.5t58.5 -58.5z" />
    <glyph glyph-name="u103A_u1036" horiz-adv-x="55" 
d="M-40 799q-17 30 -44.5 42.5t-51.5 12.5q-23 0 -46 -8.5t-41 -25t-29.5 -40.5t-11.5 -55q0 -36 15.5 -62t37 -42.5t43.5 -24t34 -7.5v-54q-30 0 -62.5 13t-59.5 38t-45 60t-18 79q0 42 15.5 76t41 58.5t58.5 37.5t68 13q40 0 78 -19.5t58 -58.5zM-89 725q0 -19 -13.5 -33
t-32.5 -14q-20 0 -33 14.5t-13 32.5t13 31.5t33 13.5q19 0 32.5 -13.5t13.5 -31.5z" />
    <glyph glyph-name="u103B" unicode="&#x103b;" horiz-adv-x="183" 
d="M-213 -370v426h72v-369l196 -51v808h72v-901z" />
    <glyph glyph-name="u103B_u103D" horiz-adv-x="183" 
d="M-108 -396q-24 -21 -53.5 -33.5t-63.5 -12.5q-38 0 -70.5 14.5t-57.5 40t-39 59t-14 71.5t14 72t38.5 59t57.5 39.5t70 14.5t70 -14.5t58 -39.5t39 -59t14 -72q0 -42 -20 -75l120 -32v808h72v-901zM-100 -257q0 27 -10 50.5t-27 41t-39.5 28t-48.5 10.5t-49 -10.5
t-40 -28t-27 -41t-10 -50.5q0 -26 10 -49.5t27 -41.5t39.5 -28.5t48.5 -10.5t49 10.5t40 28.5t27 41.5t10 49.5z" />
    <glyph glyph-name="u103B_u103D_u103E" horiz-adv-x="183" 
d="M-108 -396q-25 -20 -52.5 -33t-65.5 -13q-32 0 -61 10.5t-52 29.5t-39 45t-23 57l-63 -103l-156 88l29 49l108 -61l93 155q60 100 164 100q37 0 69.5 -14.5t57.5 -40t39.5 -59t14.5 -71.5q0 -26 -6 -43t-14 -32l120 -32v808h72v-901zM-100 -257q0 26 -10 49.5t-27.5 41.5
t-40.5 28.5t-49 10.5t-48.5 -10.5t-39.5 -28.5t-26.5 -41.5t-9.5 -49.5t10 -49.5t26.5 -41.5t39 -28.5t48.5 -10.5t49 10.5t40.5 28.5t27.5 41.5t10 49.5z" />
    <glyph glyph-name="u103B_u103E" horiz-adv-x="210" 
d="M-213 -370v164l-115 -196l-132 78l36 58l72 -45l150 252l61 -37v-217l196 -51v808h72v-901z" />
    <glyph glyph-name="u103C" unicode="&#x103c;" horiz-adv-x="192" 
d="M728 -190q0 -20 -2.5 -45t-9.5 -51.5t-20 -52.5t-34 -48q-22 -23 -45.5 -36.5t-49 -21t-52 -10t-53.5 -2.5h-125q-27 0 -53.5 2.5t-52 10t-49.5 21t-46 36.5q-21 22 -34 47t-20 51.5t-9.5 51.5t-2.5 47v886q0 20 2.5 45.5t9.5 52t20.5 52.5t34.5 47q44 44 95.5 57
t104.5 13h125q54 0 104.5 -13.5t94.5 -58.5q16 -17 29 -38t21 -42t12.5 -41t4.5 -34h-71q0 8 -3.5 21.5t-10 29t-16 30.5t-20.5 26q-17 18 -37.5 27.5t-42.5 14t-44 5.5t-41 1h-86q-19 0 -41 -1t-43.5 -5.5t-42.5 -14t-38 -26.5q-18 -17 -28 -39t-15 -44.5t-6 -44t-1 -39.5
v-850q0 -18 1.5 -39.5t6.5 -44t15 -43.5t27 -38q32 -32 77 -39.5t89 -7.5h84q45 0 90 8t77 39q16 16 25.5 36.5t15 42.5t7 44t1.5 42v81h71v-98z" />
    <glyph glyph-name="u103C.alt.narr" horiz-adv-x="192" 
d="M728 -190q0 -20 -2.5 -45t-9.5 -51.5t-20 -52.5t-34 -48q-22 -23 -45.5 -36.5t-49 -21t-52 -10t-53.5 -2.5h-125q-27 0 -53.5 2.5t-52 10t-49.5 21t-46 36.5q-21 22 -34 47t-20 51.5t-9.5 51.5t-2.5 47v886q0 20 2.5 45t9.5 51.5t20.5 52t34.5 46.5q22 22 46 36
t50.5 21.5t56.5 10t65 2.5v-72q-45 0 -88.5 -7.5t-75.5 -38.5q-18 -17 -28 -38.5t-15 -44t-6 -44t-1 -39.5v-850q0 -18 1.5 -39.5t6.5 -44t15 -43.5t27 -38q32 -32 77 -39.5t89 -7.5h84q45 0 90 8t77 39q16 16 25.5 36.5t15 42.5t7 44t1.5 42v81h71v-98z" />
    <glyph glyph-name="u103C.alt.wide" horiz-adv-x="192" 
d="M1129 -190q0 -20 -2.5 -44.5t-10 -51t-20.5 -52.5t-34 -48q-22 -23 -46 -37t-49 -21.5t-51.5 -10t-53.5 -2.5h-526q-54 0 -98.5 14.5t-86.5 53.5q-23 21 -38.5 47.5t-25 53.5t-13.5 52.5t-4 45.5v886q0 21 4 46t13.5 51.5t25 52t38.5 47.5q42 40 86.5 55t98.5 15h364v-72
h-335q-19 0 -39.5 -1.5t-41.5 -6t-41.5 -14.5t-38.5 -26q-19 -16 -31.5 -37.5t-19.5 -44t-9.5 -44.5t-2.5 -40v-850q0 -16 2.5 -37.5t9.5 -44.5t19.5 -45t31.5 -39q18 -16 37.5 -25t40 -13.5t41.5 -6t42 -1.5h477q48 0 92 8.5t74 38.5q31 31 40 74.5t9 90.5v81h72v-98z" />
    <glyph glyph-name="u103C.wide" horiz-adv-x="192" 
d="M1129 -190q0 -20 -2.5 -44.5t-10 -51t-20.5 -52.5t-34 -48q-22 -23 -46 -37t-49 -21.5t-51.5 -10t-53.5 -2.5h-526q-54 0 -98.5 14.5t-86.5 53.5q-23 21 -38.5 47.5t-25 53.5t-13.5 52.5t-4 45.5v886q0 21 4 46t13.5 51.5t25 52t38.5 47.5q42 40 86.5 55t98.5 15h526
q56 0 105 -13.5t94 -58.5q16 -17 29 -38t21.5 -42t13 -41t4.5 -34h-72q0 8 -3.5 21.5t-10.5 28.5t-16 30t-20 27q-16 17 -35.5 26.5t-41 14.5t-44 6t-44.5 1h-477q-19 0 -39.5 -1.5t-41.5 -6t-41.5 -14.5t-38.5 -26q-19 -16 -31.5 -37.5t-19.5 -44t-9.5 -44.5t-2.5 -40v-850
q0 -16 2.5 -37.5t9.5 -44.5t19.5 -45t31.5 -39q18 -16 37.5 -25t40 -13.5t41.5 -6t42 -1.5h477q48 0 92 8.5t74 38.5q31 31 40 74.5t9 90.5v66h72v-83z" />
    <glyph glyph-name="u103C_u103D.narr" horiz-adv-x="192" 
d="M628 -270q0 26 -10 49.5t-27 41t-40 27.5t-49 10t-49 -10t-40 -27.5t-27 -41t-10 -49.5q0 -42 22 -73.5t58 -45.5q11 -3 20 -4t26 -1q26 0 49 9.5t40 26t27 39t10 49.5zM658 736q-1 20 -12.5 51t-36.5 57q-15 16 -34.5 25.5t-41.5 14t-45 6t-45 1.5h-98q-15 0 -34 -1.5
t-40 -6.5t-41.5 -14.5t-36.5 -25.5q-18 -17 -28 -38t-15.5 -43.5t-7 -44t-1.5 -38.5v-852q0 -17 1.5 -38.5t7 -44t16 -44t28.5 -37.5q31 -29 66 -38t77 -9h26q-41 47 -41 112q0 38 14 71.5t38.5 59t57.5 40t70 14.5t70 -14.5t57.5 -40t39 -59t14.5 -71.5q0 -39 -14.5 -72.5
t-39 -58.5t-57 -39.5t-69.5 -14.5h-142q-36 0 -66 2t-56 9t-50 21t-48 37q-21 21 -35 47t-22 53t-11 52.5t-3 45.5v886q0 20 3 45.5t11 52t21.5 52.5t35.5 47q44 43 92.5 56.5t102.5 13.5h126q60 0 108.5 -13.5t92.5 -58.5q17 -18 29.5 -38.5t20.5 -41.5t12.5 -40.5
t4.5 -34.5h-72z" />
    <glyph glyph-name="u103C_u103D.wide" horiz-adv-x="192" 
d="M1057 736q-1 20 -12.5 51t-36.5 57q-15 16 -34.5 25.5t-41.5 14t-45 6t-45 1.5h-477q-19 0 -40 -1.5t-42 -6t-41 -14.5t-38 -26q-19 -17 -31 -38t-19 -43t-10 -43.5t-3 -39.5v-852q0 -16 2.5 -37.5t9.5 -44.5t19.5 -45t31.5 -38q36 -32 78.5 -39.5t82.5 -7.5h379
q-41 49 -41 113q0 38 14 71.5t38.5 59t57.5 40t70 14.5t70 -14.5t58 -40t39 -59t14 -71.5q0 -39 -14 -72.5t-38.5 -58.5t-57.5 -39.5t-70 -14.5h-548q-54 0 -98 14t-87 55q-23 21 -38.5 47t-25 53t-13.5 52.5t-4 45.5v886q0 21 4 46.5t13.5 51.5t25 52t38.5 47
q42 40 86.5 55t98.5 15h526q60 0 107.5 -13.5t91.5 -58.5q17 -18 29.5 -38.5t21 -41.5t13 -40.5t4.5 -34.5h-72zM1009 -272q0 26 -10 49.5t-27 41.5t-39.5 28.5t-48.5 10.5t-49.5 -10.5t-40.5 -28.5t-27 -41.5t-10 -49.5q0 -41 21.5 -71.5t57.5 -45.5q11 -3 20 -4t27 -1
q27 0 50.5 9.5t40 26t26 38.5t9.5 48z" />
    <glyph glyph-name="u103C_u103D.alt.narr" horiz-adv-x="192" 
d="M683 -272q0 -39 -14.5 -72.5t-39 -58.5t-57 -39.5t-69.5 -14.5h-142q-36 0 -66 2t-56 9t-50 21t-48 37q-21 21 -35 47t-22 53t-11 52.5t-3 45.5v886q0 20 3 45.5t11 52t21.5 52.5t35.5 47q44 43 92.5 56.5t102.5 13.5h19v-72q-18 0 -39.5 -1.5t-43.5 -6.5t-42.5 -14.5
t-36.5 -25.5q-18 -17 -28 -38t-15.5 -43.5t-7 -44t-1.5 -38.5v-852q0 -17 1.5 -38.5t7 -44t16 -44t28.5 -37.5q31 -29 66 -38t77 -9h26q-41 47 -41 112q0 38 14 71.5t38.5 59t57.5 40t70 14.5t70 -14.5t57.5 -40t39 -59t14.5 -71.5zM628 -270q0 26 -10 49.5t-27 41t-40 27.5
t-49 10t-49 -10t-40 -27.5t-26.5 -41t-9.5 -49.5q0 -42 23.5 -75.5t56.5 -44.5q8 -2 18 -3t27 -1q26 0 49 9.5t40 26t27 39t10 49.5z" />
    <glyph glyph-name="u103C_u103D.alt.wide" horiz-adv-x="192" 
d="M1064 -272q0 -39 -14 -72.5t-38.5 -58.5t-57.5 -39.5t-70 -14.5h-548q-54 0 -98 14t-87 55q-23 21 -38.5 47t-25 53t-13.5 52.5t-4 45.5v886q0 21 4 46.5t13.5 51.5t25 52t38.5 47q42 40 86.5 55t98.5 15h364v-72h-335q-19 0 -40 -1.5t-42 -6t-41 -14.5t-38 -26
q-19 -17 -31 -38t-19 -43t-10 -43.5t-3 -39.5v-852q0 -16 2.5 -37.5t9.5 -44.5t19.5 -45t31.5 -38q36 -32 78.5 -39.5t82.5 -7.5h379q-41 49 -41 113q0 38 14 71.5t38.5 59t57.5 40t70 14.5t70 -14.5t58 -40t39 -59t14 -71.5zM1009 -272q0 26 -10 49.5t-27 41.5t-39.5 28.5
t-48.5 10.5t-49.5 -10.5t-40.5 -28.5t-27 -41.5t-10 -49.5q0 -39 23 -71.5t57 -45.5q10 -3 19 -4t27 -1q27 0 50.5 9.5t40 26t26 38.5t9.5 48z" />
    <glyph glyph-name="u103C_u102F.narr" horiz-adv-x="192" 
d="M658 736q0 10 -4 23.5t-10.5 28.5t-16 29.5t-19.5 25.5q-32 32 -74 40t-92 8h-86q-46 0 -89.5 -8t-75.5 -39q-17 -16 -27 -37t-15 -43.5t-6.5 -45t-1.5 -41.5v-850q0 -17 1.5 -38.5t6.5 -43.5t15 -44t27 -40q21 -24 42 -35t59 -11h54q39 0 59 5t30 14q13 11 15.5 26.5
t2.5 33.5v208h71v-213q0 -31 -6 -60t-29 -52q-19 -19 -52.5 -26.5t-70.5 -7.5h-83q-49 0 -82.5 16.5t-64.5 54.5q-20 23 -32.5 49t-20 52t-10.5 50.5t-3 44.5v886q0 20 2.5 45t9.5 51.5t20 52.5t35 48q44 44 95.5 57t104.5 13h126q53 0 104 -13.5t95 -57.5q17 -18 29.5 -39
t21 -42t13 -40.5t4.5 -34.5h-72zM612 -457v359h67v-292h86v-67h-153z" />
    <glyph glyph-name="u103C_u102F.wide" horiz-adv-x="192" 
d="M1002 -457v359h67v-292h85v-67h-152zM915 -305q0 -30 -4 -58t-21 -50q-8 -9 -18 -17t-26 -14t-39.5 -9.5t-57.5 -3.5h-412q-56 0 -99.5 14.5t-85.5 55.5q-23 21 -38.5 47t-25 52.5t-14 52t-4.5 45.5v886q0 20 4 45t13.5 52t25.5 53t39 47q42 40 86.5 55t98.5 15h525
q54 0 104 -13t95 -58q16 -17 28.5 -38t21 -42.5t13 -41t5.5 -34.5h-72q0 8 -3.5 21.5t-10.5 28.5t-16 30t-20 27q-17 17 -37.5 27t-42 14.5t-44 5.5t-41.5 1h-477q-38 0 -80.5 -7.5t-80.5 -40.5q-19 -16 -31.5 -37.5t-19.5 -44t-9.5 -44.5t-2.5 -40v-850q0 -16 2.5 -37.5
t9.5 -44.5t19.5 -45t31.5 -38q37 -32 80 -39.5t81 -7.5h373q39 0 60 5.5t32 19.5q8 10 10.5 29.5t2.5 42.5v190h72v-207z" />
    <glyph glyph-name="u103C_u102F.alt.narr" horiz-adv-x="192" 
d="M612 -457v359h67v-292h86v-67h-153zM524 -311q0 -32 -6 -61t-29 -52q-19 -19 -52.5 -26t-70.5 -7h-83q-49 0 -82.5 16.5t-64.5 54.5q-20 23 -32.5 49t-20 52.5t-10.5 50.5t-3 44v886q0 20 2.5 45.5t9.5 52t20.5 52.5t34.5 47q44 44 95.5 57t104.5 13h18v-72h-12
q-16 0 -35.5 -1t-39.5 -6t-40 -14.5t-37 -26.5q-18 -17 -28 -38.5t-15 -44t-6 -44t-1 -39.5v-850q0 -17 1.5 -38.5t6.5 -43.5t15 -44t27 -40q11 -12 21 -21t21.5 -14.5t26.5 -8t37 -2.5h49q40 0 59 4.5t30 14.5q13 11 15.5 27t2.5 33v208h71v-213z" />
    <glyph glyph-name="u103C_u102F.alt.wide" horiz-adv-x="192" 
d="M1002 -457v359h67v-292h85v-67h-152zM915 -305q0 -30 -4 -58t-21 -50q-8 -9 -18 -17t-26 -14t-39.5 -9.5t-57.5 -3.5h-412q-54 0 -99 14.5t-87 55.5q-23 21 -38 47t-25 53t-14 52t-4 45v886q0 20 4 45t13.5 52t25.5 53t39 47q42 40 86.5 55t98.5 15h363v-72h-335
q-38 0 -80.5 -7.5t-80.5 -40.5q-19 -16 -31.5 -37.5t-19.5 -44t-9.5 -44.5t-2.5 -40v-850q0 -16 2.5 -37.5t9.5 -44.5t19.5 -45t31.5 -38q37 -32 80 -39.5t81 -7.5h373q41 0 60.5 5.5t30.5 18.5q9 9 11.5 28t2.5 45v190h72v-207z" />
    <glyph glyph-name="u103D" unicode="&#x103d;" 
d="M-55 -272q0 -39 -14 -72.5t-38.5 -58.5t-57.5 -39.5t-70 -14.5q-38 0 -70.5 14.5t-57.5 39.5t-39 58.5t-14 72.5q0 38 14 71.5t38.5 59t57.5 40t70 14.5t70 -14.5t58 -40t39 -59t14 -71.5zM-110 -272q0 26 -10 49.5t-27 41.5t-39.5 28.5t-48.5 10.5t-49 -10.5t-40 -28.5
t-27 -41.5t-10 -49.5t10 -49.5t27 -41.5t39.5 -28.5t48.5 -10.5t49 10.5t40 28.5t27 41.5t10 49.5z" />
    <glyph glyph-name="u103D_u103E" 
d="M-55 -272q0 -39 -14.5 -72.5t-39.5 -58.5t-57.5 -39.5t-69.5 -14.5q-32 0 -61 10.5t-52 29.5t-39 45t-23 57l-63 -103l-156 88l29 49l108 -61l93 155q32 54 71 77t93 23q38 0 71 -14.5t57.5 -40t38.5 -59t14 -71.5zM-110 -272q0 26 -10 49.5t-27.5 41.5t-40.5 28.5
t-48 10.5q-24 0 -47 -9.5t-40 -27t-27.5 -41.5t-10.5 -52q0 -26 10 -49.5t27 -41.5t39.5 -28.5t48.5 -10.5q27 0 50.5 10.5t40 28.5t26 41.5t9.5 49.5z" />
    <glyph glyph-name="u103D_u103E.small" 
d="M-92 -233q0 -31 -11.5 -58t-31 -47t-46.5 -31.5t-57 -11.5q-50 0 -87 30t-51 81l-49 -80l-110 64l24 41l71 -42l75 127q44 75 127 75q30 0 56.5 -11.5t46.5 -32t31.5 -47.5t11.5 -57zM-138 -233q0 19 -8 37.5t-21.5 32.5t-32 22.5t-38.5 8.5q-17 0 -34.5 -7.5t-31 -21
t-22 -32t-8.5 -40.5q0 -21 7.5 -39t20.5 -32t30.5 -22t37.5 -8t38.5 8t32 22t21.5 32t8 39z" />
    <glyph glyph-name="u103E" unicode="&#x103e;" 
d="M-208 -457v67h85v292h68v-359h-153z" />
    <glyph glyph-name="u103E.alt" 
d="M-152 -354l-138 48l24 65l71 -26l73 197l64 -22z" />
    <glyph glyph-name="u103E_u102F" 
d="M-197 -457v359h67v-292h85v-67h-152zM-438 -457v67h85v292h68v-359h-153z" />
    <glyph glyph-name="u103E_u1030" 
d="M-198 -457v359h68v-292h84v-67h-152zM-351 -457v359h67v-359h-67zM-590 -457v67h85v292h68v-359h-153z" />
    <glyph glyph-name="u103F" unicode="&#x103f;" horiz-adv-x="1384" 
d="M1329 222q0 -50 -18.5 -93.5t-51 -76t-75.5 -51.5t-92 -19q-65 0 -116.5 36t-83.5 91q-29 -57 -83.5 -92t-122.5 -35q-32 0 -61.5 10t-55 27t-47 40t-37.5 50q-29 -57 -84 -92t-124 -35q-32 0 -64.5 8t-62 25t-54.5 42t-41 60l64 34q27 -50 69.5 -73.5t88.5 -23.5
q36 0 66.5 13.5t53 36.5t35.5 54.5t13 66.5q0 33 -13.5 63t-36.5 52.5t-53.5 36t-64.5 13.5q-46 0 -89 -25t-69 -73l-64 35q15 33 39.5 58t54 42t62.5 25.5t66 8.5q48 0 91.5 -19t76.5 -51t52 -74.5t19 -88.5q1 -18 12.5 -47t33 -57.5t52.5 -49t72 -20.5q35 0 65.5 13.5
t52.5 37t34.5 54.5t12.5 66q0 30 -12 59.5t-34 53t-52 38t-67 14.5q-24 0 -43 -9l-27 66q14 8 32 11t38 3q52 0 95.5 -20t74.5 -53t48.5 -75t17.5 -85q1 -18 13 -47.5t33.5 -57.5t52.5 -48.5t71 -20.5q34 0 64 13.5t52.5 36t35.5 53t13 65.5q0 34 -13 64.5t-35.5 53.5
t-52.5 36.5t-64 13.5q-22 0 -41 -9l-29 66q15 8 32.5 11t37.5 3q49 0 92 -19t75.5 -51.5t51 -76t18.5 -92.5z" />
    <glyph glyph-name="u1040" unicode="&#x1040;" horiz-adv-x="581" 
d="M525 222q0 -50 -18.5 -93.5t-50 -76t-74 -51.5t-91.5 -19q-50 0 -93 19t-75 51.5t-50 76t-18 93.5q0 49 18.5 92.5t50 76t74 51.5t90.5 19q50 0 93 -19t75 -51.5t50.5 -76t18.5 -92.5zM453 222q0 34 -12.5 64.5t-34.5 53.5t-51.5 36.5t-63.5 13.5t-64 -13.5t-52 -36.5
t-35 -53.5t-13 -64.5q0 -35 12.5 -65.5t34.5 -53t51.5 -36t62.5 -13.5q34 0 64 13.5t52.5 36t35.5 53t13 65.5z" />
    <glyph glyph-name="u1041" unicode="&#x1041;" horiz-adv-x="577" 
d="M518 222q0 -50 -19 -93.5t-51.5 -76t-76 -51.5t-92.5 -19q-34 0 -67 8.5t-62.5 26t-53.5 42.5t-39 58l63 34q28 -49 69.5 -73t89.5 -24q34 0 65 13.5t53.5 36t36 53t13.5 65.5q0 34 -13.5 64.5t-36 53.5t-53.5 36.5t-65 13.5q-48 0 -90 -25t-69 -73l-63 35q15 33 39 58
t53 42t62.5 25.5t67.5 8.5q49 0 92.5 -19t76 -51.5t51.5 -76t19 -92.5z" />
    <glyph glyph-name="u1042" unicode="&#x1042;" horiz-adv-x="535" 
d="M468 -287q0 -34 -12.5 -64.5t-37.5 -54t-62.5 -37.5t-87.5 -14q-101 0 -150.5 54.5t-49.5 142.5h71q0 -36 10.5 -60t28.5 -38.5t41 -20.5t49 -6q25 0 48 6.5t41 20t28.5 35.5t10.5 52v723h72v-739z" />
    <glyph glyph-name="u1043" unicode="&#x1043;" horiz-adv-x="584" 
d="M520 222q0 -50 -19 -93.5t-51.5 -76t-76 -51.5t-92.5 -19q-31 0 -66 11l269 -450h-85l-319 537q-7 10 -12.5 19t-8.5 18l63 34q26 -49 69 -73t90 -24q34 0 65 13.5t53.5 36t36 53t13.5 65.5q0 34 -13.5 64.5t-36 53.5t-53.5 36.5t-65 13.5q-47 0 -89 -25t-70 -73l-63 35
q16 34 41 59t54.5 41.5t62 25t64.5 8.5q49 0 92.5 -19t76 -51.5t51.5 -76t19 -92.5z" />
    <glyph glyph-name="u1044" unicode="&#x1044;" horiz-adv-x="584" 
d="M524 117q-5 -11 -10.5 -20t-11.5 -17l-317 -537h-86l269 450q-36 -11 -66 -11q-49 0 -92.5 19t-76 51.5t-51.5 76t-19 93.5q0 49 19 92.5t51.5 76t76 51.5t92.5 19q33 0 66 -8.5t63 -25.5t54 -42t39 -58l-63 -35q-28 48 -70 73t-89 25q-34 0 -64.5 -13.5t-53 -36.5
t-36 -53.5t-13.5 -64.5q0 -35 13.5 -65.5t36 -53t53 -36t64.5 -13.5q47 0 88 23t71 74l63 -34v0z" />
    <glyph glyph-name="u1045" unicode="&#x1045;" horiz-adv-x="584" 
d="M527 -220q0 -44 -16 -86t-46.5 -76t-74.5 -54.5t-101 -20.5q-54 0 -97 21t-73 55t-46 76.5t-16 86.5h71q0 -32 12 -62t33.5 -53t51 -37.5t64.5 -14.5q34 0 64.5 12.5t53 34.5t35.5 52.5t13 67.5v440q0 36 -13 66.5t-35.5 53t-53 35.5t-64.5 13q-36 0 -65 -16t-49 -41
q19 1 40 -6.5t37.5 -21.5t27.5 -35t11 -46q0 -24 -9.5 -46t-26 -38t-38 -25.5t-45.5 -9.5t-45 10t-36.5 26.5t-24.5 38t-9 44.5v8q1 44 18 85t47.5 73t73 51.5t93.5 19.5q57 0 101 -21t74.5 -55t46.5 -76.5t16 -85.5v-443zM228 224q0 23 -16 38t-39 15q-24 0 -39 -15
t-15 -38t15.5 -39.5t37.5 -16.5q23 0 39.5 16.5t16.5 39.5z" />
    <glyph glyph-name="u1046" unicode="&#x1046;" horiz-adv-x="584" 
d="M527 221q0 -42 -16 -84.5t-46 -77t-73 -56t-97 -21.5q-57 0 -101.5 21t-74.5 54.5t-46 76t-16 86.5v442q0 43 16 85.5t46 76.5t74.5 55t101.5 21q52 0 95 -20t73.5 -53.5t47 -76t16.5 -87.5h-72q0 31 -12 61t-33 53.5t-50.5 37.5t-64.5 14t-65 -13t-53 -35.5t-36 -53
t-13 -66.5v-439q0 -37 13 -68t36 -53t53 -34.5t65 -12.5q28 0 53 10t45 27t34.5 39t20.5 47l-141 47q-42 14 -65.5 42.5t-23.5 70.5q0 24 9.5 45t26 37t37.5 25.5t45 9.5t45 -9.5t37 -26t25 -37.5t9 -44q0 -49 -33 -80zM389 337q0 23 -15 38.5t-38 15.5t-39 -15.5t-16 -38.5
t15.5 -40t38.5 -17t38.5 17t15.5 40z" />
    <glyph glyph-name="u1047" unicode="&#x1047;" horiz-adv-x="581" 
d="M453 -409q-23 -29 -51 -38.5t-60 -9.5q-43 0 -70 18t-42.5 43.5t-21 54t-5.5 48.5q0 39 18.5 85.5t46.5 96t60 99l60 94.5t46.5 82.5t18.5 62.5q0 44 -16 75t-40.5 50.5t-53.5 28.5t-54 9q-39 0 -69.5 -15t-51 -39t-31 -54t-10.5 -60h-72q0 41 15.5 83.5t45.5 77
t73.5 56.5t99.5 22q38 0 79.5 -15t76.5 -45t57.5 -73.5t22.5 -100.5q0 -31 -18.5 -73t-46.5 -89l-60 -97l-60 -97t-46.5 -89.5t-18.5 -74.5q0 -11 3.5 -26.5t11.5 -30t20.5 -25t31.5 -10.5q23 0 37.5 8.5t25.5 19.5l48 -52v0z" />
    <glyph glyph-name="u1048" unicode="&#x1048;" horiz-adv-x="590" 
d="M534 204q0 -81 -24 -133t-71 -89l-42 60q30 30 47.5 67.5t17.5 94.5q0 40 -13.5 74t-36 58.5t-53 38t-64.5 13.5q-53 0 -88 -28q39 -35 59 -74.5t20 -93.5q0 -66 -31.5 -120.5t-74.5 -89.5q-23 18 -45.5 40.5t-40 49.5t-28.5 59.5t-11 72.5q0 56 19 103t51.5 81t76 53
t93.5 19q49 0 93 -19t76 -53t51 -81t19 -103zM221 192q0 40 -16.5 69.5t-45.5 52.5q-15 -23 -23.5 -50.5t-8.5 -59.5q0 -41 17 -69.5t42 -54.5q20 29 27.5 56.5t7.5 55.5z" />
    <glyph glyph-name="u1049" unicode="&#x1049;" horiz-adv-x="584" 
d="M527 -199q0 -55 -16.5 -102.5t-47 -82t-73.5 -54t-95 -19.5q-57 0 -101.5 21t-74.5 55t-46 76.5t-16 85.5v443q0 43 16 85.5t46 76t74.5 54.5t101.5 21q54 0 97 -20.5t73 -56t46 -82.5t16 -100l-108 -36q33 -33 33 -79q0 -24 -9 -45.5t-25 -37t-37 -25t-45 -9.5t-45 8.5
t-37.5 24t-26 37t-9.5 47.5q0 42 23.5 70.5t65.5 42.5l141 46q-11 66 -51.5 105t-101.5 39q-35 0 -65 -13t-53 -35.5t-36 -53t-13 -66.5v-440q0 -37 13 -67.5t36 -52.5t53 -34.5t65 -12.5q34 0 63.5 13t51 37t33.5 58.5t12 77.5h72zM389 87q0 23 -16 39t-38 16
q-23 0 -38.5 -16t-15.5 -39t16 -38.5t39 -15.5t38 15.5t15 38.5z" />
    <glyph glyph-name="u104A" unicode="&#x104a;" horiz-adv-x="183" 
d="M55 0v444h72v-444h-72z" />
    <glyph glyph-name="u104B" unicode="&#x104b;" horiz-adv-x="342" 
d="M215 0v444h72v-444h-72zM55 0v444h72v-444h-72z" />
    <glyph glyph-name="u104C" unicode="&#x104c;" horiz-adv-x="578" 
d="M523 222q0 -50 -19 -93.5t-52 -76t-76.5 -51.5t-92.5 -19q-38 0 -77.5 12.5t-72.5 38.5v-95q35 -17 71.5 -27.5t78.5 -10.5q59 0 111 20t98 52v-249q0 -46 -14.5 -77.5t-32.5 -50.5q-14 -16 -44 -34t-79 -18h-152q-29 0 -50.5 9.5t-36 25.5t-21.5 36.5t-7 41.5
q0 45 31.5 78t89.5 33q27 0 45 -7.5t31 -19.5l-39 -54q-11 8 -19.5 11.5t-17.5 3.5q-27 0 -40.5 -12.5t-13.5 -32.5q0 -19 14 -32.5t41 -13.5h116q20 0 34 1.5t24.5 4.5t19.5 9t19 15q17 15 23.5 38.5t6.5 46.5v132q-34 -14 -68 -20t-69 -6q-61 0 -117.5 18.5t-103.5 53.5
v214l63 34q27 -50 68.5 -73.5t89.5 -23.5q34 0 65 13.5t53.5 36t36 53t13.5 65.5q0 34 -13.5 64.5t-36 53.5t-53.5 36.5t-65 13.5q-48 0 -89.5 -24.5t-68.5 -73.5l-63 35q15 34 40 59.5t55 42t62.5 24.5t63.5 8q49 0 92.5 -19t76.5 -51.5t52 -76t19 -92.5zM467 799
q-20 29 -45 42.5t-51 13.5q-22 0 -45 -8.5t-41.5 -25t-30.5 -41t-12 -55.5q0 -36 16 -62t37.5 -42.5t43.5 -24t34 -7.5v-54q-30 0 -63 13t-60.5 37.5t-45 60t-17.5 79.5q0 42 15.5 76t41 58t59 37.5t68.5 13.5q40 0 77.5 -19.5t57.5 -58.5z" />
    <glyph glyph-name="u104D" unicode="&#x104d;" horiz-adv-x="803" 
d="M738 -277q0 -42 -17.5 -74t-34.5 -50q-6 -6 -17.5 -15.5t-28 -18.5t-38.5 -15.5t-50 -6.5h-355q-29 0 -50.5 11t-36 29t-21.5 39.5t-7 42.5q0 23 9 44.5t25.5 38t39.5 26.5t51 10q32 0 48.5 -6.5t29.5 -17.5l-40 -60q-18 12 -38 12q-23 0 -38 -12t-15 -35q0 -17 13 -33.5
t37 -16.5h324q22 0 37 1.5t26 5.5t20.5 10.5t20.5 15.5q18 15 26 38.5t8 46.5v654q0 44 -18.5 74t-45.5 54t-59.5 44t-59.5 43t-45.5 53t-18.5 73q0 40 14.5 73.5t40 58t58.5 38t71 13.5q30 0 54 -8t42 -21.5t30 -30.5t18 -35l-63 -34q-8 26 -30.5 41.5t-50.5 15.5
q-50 0 -81.5 -31.5t-31.5 -79.5q0 -30 18.5 -52t46 -42t59.5 -41t59.5 -49t46 -65.5t18.5 -91.5v-664zM481 -304v484q0 51 -16.5 90t-43.5 65.5t-60.5 40.5t-66.5 14q-32 0 -60.5 -11.5t-50 -31t-35.5 -45.5t-17 -55q38 4 76.5 -5t70.5 -27q31 -17 52.5 -38.5t37.5 -47
t27 -55t20 -62.5q-26 -17 -57.5 -23.5t-63.5 -6.5q-49 0 -92.5 19t-76 51.5t-51.5 76t-19 93.5q0 46 18 89t50 76t76 53t95 20t97.5 -18.5t82 -54t57 -87t21.5 -116.5v-488h-71zM331 57q-14 35 -34.5 61.5t-53.5 42.5q-52 25 -111 19q6 -27 21.5 -50t37 -40t48 -26.5
t55.5 -9.5q11 0 19 0.5t18 2.5z" />
    <glyph glyph-name="u104E" unicode="&#x104e;" horiz-adv-x="571" 
d="M445 -457v491q-33 -26 -72.5 -39t-78.5 -13q-49 0 -92.5 19t-76 51.5t-51.5 76t-19 93.5q0 49 19 92.5t51.5 76t76 51.5t92.5 19q31 0 63.5 -8t62.5 -24.5t55 -42t41 -59.5l-63 -35q-28 49 -69.5 73.5t-89.5 24.5q-34 0 -64.5 -13.5t-53 -36.5t-36 -53.5t-13.5 -64.5
q0 -35 13.5 -65.5t36 -53t53 -36t64.5 -13.5q48 0 89.5 23.5t69.5 73.5l63 -34v-574h-71z" />
    <glyph glyph-name="u104F" unicode="&#x104f;" horiz-adv-x="963" 
d="M642 -3v315q0 42 -19 60t-48 18q-23 0 -42 -9.5t-33 -24.5q9 -13 16.5 -26t12.5 -27q-47 -33 -85.5 -45t-80.5 -12q-65 0 -110.5 26t-77.5 67q-24 -23 -36 -54t-12 -63q0 -33 12.5 -63.5t35.5 -54.5q32 42 80 67.5t110 25.5q44 0 89 -16t76 -40q-10 -32 -30 -60.5
t-49 -50.5t-67 -35t-85 -13q-55 0 -100 20t-77 53.5t-49.5 76.5t-17.5 90q0 46 17.5 89t49.5 76.5t77 53.5t100 20q42 0 80.5 -12t72.5 -38q27 28 57.5 39t65.5 11q66 0 102.5 -40t36.5 -109v-315h-72zM825 -3v391q0 42 -18 72t-45.5 53.5t-59.5 44t-59.5 44.5t-45.5 53.5
t-18 72.5q0 40 14.5 73.5t39.5 58t58.5 38t71.5 13.5q53 0 89.5 -25t53.5 -70l-61 -34q-11 26 -32.5 41.5t-49.5 15.5q-51 0 -82 -31.5t-31 -79.5q0 -30 18.5 -51.5t45.5 -42t59.5 -41.5t59.5 -49t45.5 -65.5t18.5 -90.5v-391h-72zM443 122q-23 11 -40.5 16t-37.5 5
q-50 0 -82 -20.5t-58 -55.5q37 -15 74 -15q42 0 81 17.5t63 52.5zM442 321q-25 37 -65.5 54t-77.5 17q-23 0 -39.5 -4.5t-34.5 -12.5q24 -32 56.5 -53t81.5 -21q20 0 39.5 4.5t39.5 15.5z" />
    <glyph glyph-name="u1050" unicode="&#x1050;" horiz-adv-x="590" 
d="M535 204q0 -80 -24 -132t-72 -90l-42 60q32 32 48.5 68.5t16.5 93.5q0 39 -12.5 72.5t-35 58t-53 39t-66.5 14.5t-67 -14.5t-53.5 -39t-35 -58t-12.5 -72.5q0 -57 16.5 -93.5t48.5 -68.5l-42 -60q-46 38 -70.5 90t-24.5 132q0 55 18.5 102t51 81t76.5 53.5t94 19.5
t93.5 -19.5t76 -53.5t51.5 -81t19 -102zM380 204q0 -17 -6.5 -33t-18 -28t-27 -19.5t-33.5 -7.5t-33.5 7t-27 19t-18.5 28t-7 34q0 17 7 32.5t18.5 27.5t27 19t33.5 7q35 0 60 -25.5t25 -60.5zM335 204q0 17 -11.5 28.5t-28.5 11.5q-18 0 -30 -11.5t-12 -28.5q0 -18 12 -30
t30 -12q17 0 28.5 12t11.5 30z" />
    <glyph glyph-name="u1050.med" 
d="M-55 -288q0 -63 -19.5 -102.5t-55.5 -70.5l-32 47q24 24 37 52.5t13 73.5q0 30 -10 56t-27.5 45.5t-41.5 31t-52 11.5t-52 -11.5t-41 -31t-27 -45.5t-10 -56q0 -45 12.5 -73.5t38.5 -52.5l-34 -47q-35 31 -54.5 70.5t-19.5 102.5q0 43 14.5 79.5t40 63t59.5 41.5t73 15
t73 -15t59.5 -41.5t40.5 -63t15 -79.5zM-176 -288q0 -29 -20 -48.5t-47 -19.5t-47 19.5t-20 48.5q0 27 20 46.5t47 19.5t47 -19.5t20 -46.5zM-211 -288q0 12 -9.5 21.5t-22.5 9.5q-14 0 -23 -9.5t-9 -21.5q0 -14 9 -23.5t23 -9.5q13 0 22.5 9.5t9.5 23.5z" />
    <glyph glyph-name="u1051" unicode="&#x1051;" horiz-adv-x="590" 
d="M535 239q0 -56 -19 -103t-51.5 -81t-76 -53.5t-93.5 -19.5t-94 19.5t-76.5 53.5t-51 81t-18.5 103q0 80 24.5 131.5t70.5 89.5l42 -60q-32 -32 -48.5 -68.5t-16.5 -92.5q0 -39 12.5 -72.5t35 -58.5t53.5 -39.5t67 -14.5t66.5 14.5t53 39.5t35 58.5t12.5 72.5
q0 56 -17 92.5t-48 68.5l42 60q48 -38 72 -89.5t24 -131.5zM380 239q0 -17 -6.5 -33t-18 -28t-27 -19.5t-33.5 -7.5t-33.5 7t-27 19t-18.5 28t-7 34q0 17 7 32.5t18.5 27.5t27 19t33.5 7q35 0 60 -25.5t25 -60.5zM335 239q0 17 -11.5 28.5t-28.5 11.5q-18 0 -30 -11.5
t-12 -28.5q0 -18 12 -30t30 -12q17 0 28.5 12t11.5 30z" />
    <glyph glyph-name="u1051.med" 
d="M-55 -262q0 -43 -15 -79.5t-40.5 -63t-59.5 -41.5t-73 -15t-73 15t-59.5 41.5t-40 63t-14.5 79.5q0 63 19.5 102.5t54.5 70.5l34 -47q-26 -24 -38.5 -52.5t-12.5 -73.5q0 -30 10 -56t27 -45.5t41 -31t52 -11.5t52 11.5t41.5 31t27.5 45.5t10 56q0 45 -13 73t-37 53l32 47
q36 -31 55.5 -70.5t19.5 -102.5zM-176 -262q0 -27 -20 -47t-47 -20t-47 20t-20 47q0 29 20 48.5t47 19.5t47 -19.5t20 -48.5zM-211 -262q0 14 -9.5 23.5t-22.5 9.5q-14 0 -23 -9.5t-9 -23.5q0 -13 9 -22t23 -9q13 0 22.5 9t9.5 22z" />
    <glyph glyph-name="u1051_u100C" horiz-adv-x="578" 
d="M534 239q0 -56 -18.5 -103t-51 -81t-76 -53.5t-93.5 -19.5t-94 19.5t-76.5 53.5t-51 81t-18.5 103q0 78 24.5 130t70.5 91l42 -60q-32 -32 -48.5 -68.5t-16.5 -92.5q0 -39 12.5 -73t35 -58.5t53.5 -39t67 -14.5t66.5 14.5t53 39t35 58.5t12.5 73q0 56 -17 92.5t-48 68.5
l42 60q48 -40 71.5 -91.5t23.5 -129.5zM362 239q0 -30 -21 -50.5t-50 -20.5t-50 20.5t-21 50.5q0 31 21 51t50 20t50 -20t21 -51zM506 -277q0 -47 -13.5 -77.5t-28.5 -47.5q-6 -8 -16.5 -18t-25.5 -18t-34 -13.5t-42 -5.5h-172q-29 0 -50.5 9.5t-35.5 25.5t-21 36.5t-7 41.5
q0 45 31.5 78t88.5 33q27 0 45 -7.5t31 -19.5l-39 -54q-9 6 -18 11t-19 5q-27 0 -41 -13t-14 -33t15 -33t41 -13h130q19 0 32 1.5t22.5 4.5t18 9t18.5 15q32 28 32 87v133q-33 -14 -66.5 -21.5t-73.5 -7.5q-112 0 -208 61v80q46 -32 97 -52t111 -20q65 0 113.5 21t98.5 53
v-251z" />
    <glyph glyph-name="u1051_u100D" horiz-adv-x="587" 
d="M534 239q0 -56 -18.5 -103t-51 -81t-76 -53.5t-93.5 -19.5t-94 19.5t-76.5 53.5t-51 81t-18.5 103q0 78 24.5 130t70.5 91l42 -60q-32 -32 -48.5 -68.5t-16.5 -92.5q0 -39 12.5 -73t35 -58.5t53.5 -39t67 -14.5t66.5 14.5t53 39t35 58.5t12.5 73q0 56 -17 92.5t-48 68.5
l42 60q48 -40 71.5 -91.5t23.5 -129.5zM362 239q0 -30 -21 -50.5t-50 -20.5t-50 20.5t-21 50.5q0 31 21 51t50 20t50 -20t21 -51zM430 -457v320q-34 -13 -65.5 -20t-70.5 -7q-112 0 -208 61v80q46 -32 97 -52t111 -20q33 0 60 5t51 14t47 21.5l49 27.5v-358h72v-72h-143z
" />
    <glyph glyph-name="u1052" unicode="&#x1052;" horiz-adv-x="582" 
d="M527 167q0 -30 -16.5 -63t-46.5 -60t-73 -44.5t-96 -17.5q-49 0 -92.5 18.5t-76.5 52.5t-52 81.5t-19 105.5q0 82 25 133.5t70 86.5l42 -60q-32 -30 -48.5 -69.5t-16.5 -90.5q0 -45 14.5 -79.5t38.5 -58.5t54 -36t61 -12q41 0 71.5 14t50 32.5t29 37.5t9.5 29
q0 31 -21 48t-46 32t-46 35t-21 58q0 30 9 52t25 37t36 22.5t43 7.5q30 0 57 -16.5t36 -38.5l-57 -35q-3 8 -13.5 15.5t-22.5 7.5q-17 0 -31.5 -11t-14.5 -41q0 -14 10.5 -22.5t25.5 -16.5t33.5 -17t33.5 -23.5t25.5 -37t10.5 -56.5z" />
    <glyph glyph-name="u1053" unicode="&#x1053;" horiz-adv-x="646" 
d="M538 364q-5 7 -14 18t-29 11q-16 0 -30 -12t-14 -41q0 -19 16 -30.5t35.5 -27.5t36 -42t16.5 -72q0 -31 -16.5 -64t-46.5 -60t-73 -44.5t-97 -17.5q-53 0 -96 17.5t-73 44.5t-46.5 59.5t-16.5 63.5t7.5 52.5t19.5 36t25 24.5l25 19t19.5 18t7.5 23q0 29 -14 41t-30 12
q-19 0 -28.5 -11t-14.5 -18l-52 40q9 18 32.5 37t60.5 19q22 0 42.5 -7.5t36.5 -22.5t25 -37.5t9 -52.5q0 -38 -15.5 -58t-34 -35.5t-34 -32t-15.5 -47.5q0 -10 9.5 -29t29 -37.5t49.5 -32.5t72 -14t72 14t50 32.5t29.5 37.5t9.5 29q0 20 -7.5 34.5t-18.5 25.5t-23.5 21
t-23.5 22.5t-18.5 29t-7.5 40.5q0 30 9.5 52.5t25 37.5t36 22.5t43.5 7.5q37 0 60 -19t32 -37z" />
    <glyph glyph-name="u1054" unicode="&#x1054;" horiz-adv-x="584" 
d="M528 278q-55 -31 -94 -43t-74 -12q-27 0 -54.5 7t-53.5 19.5t-49 31t-40 41.5q-17 -20 -26.5 -45.5t-9.5 -54.5q0 -32 12.5 -62t34.5 -53.5t52.5 -38t67.5 -14.5q49 0 89.5 24.5t69.5 72.5l62 -34q-17 -34 -41 -59t-53.5 -42t-61.5 -25.5t-65 -8.5q-52 0 -96 20
t-75.5 53.5t-49.5 77t-18 89.5q0 49 18 92.5t50.5 76t76 51.5t94.5 19q52 0 95 -17.5t73 -44.5t47 -59.5t19 -61.5zM446 308q-29 45 -69.5 63.5t-82.5 18.5q-24 0 -43.5 -5.5t-38.5 -15.5q25 -38 63 -60t83 -22q37 0 88 21z" />
    <glyph glyph-name="u1055" unicode="&#x1055;" horiz-adv-x="584" 
d="M528 278q-48 -28 -89 -41t-79 -13q-55 0 -108 25t-89 73q-17 -20 -26.5 -44.5t-9.5 -55.5q0 -24 6.5 -53t18.5 -54t28 -41.5t36 -16.5q10 0 17.5 14l16.5 31t21.5 31t32.5 14t32.5 -14t22 -31l17 -31t16.5 -14q20 0 34 22.5t25 48.5l63 -30q-8 -20 -20 -40t-27 -36.5
t-34 -26.5t-41 -10q-24 0 -38 14t-23 31.5t-14.5 31.5t-12.5 14t-13 -14t-15 -31.5t-23.5 -31.5t-38.5 -14q-37 0 -66.5 23t-50 58t-31.5 76.5t-11 79.5q0 47 18 90.5t50.5 76.5t76 52.5t94.5 19.5q54 0 96.5 -17.5t72.5 -44.5t46.5 -59.5t18.5 -61.5zM446 308
q-29 45 -69.5 63.5t-82.5 18.5q-24 0 -43.5 -5.5t-38.5 -15.5q26 -38 63.5 -59t82.5 -21q19 0 40.5 4t47.5 15z" />
    <glyph glyph-name="u1056" unicode="&#x1056;" horiz-adv-x="514" 
d="M459 166q0 -49 -17 -84t-45.5 -57t-64.5 -32t-73 -10q-21 0 -48.5 6t-56 20.5t-55 39.5t-44.5 63l60 42q12 -27 29.5 -46t37 -31t39 -17.5t36.5 -5.5q20 0 43 4.5t42.5 17t32 34.5t12.5 56q0 23 -14.5 38t-36 26t-46.5 20.5t-46.5 23.5t-36 33.5t-14.5 50.5q0 25 10 44.5
t25.5 33t33.5 20t34 6.5q27 0 57 -9t61 -43l-41 -52q-27 26 -43.5 31.5t-32.5 5.5q-11 0 -21.5 -10t-10.5 -27q1 -13 16 -22.5t36.5 -19l46.5 -20.5t46 -28t35 -41.5t14 -60.5z" />
    <glyph glyph-name="u1057" unicode="&#x1057;" horiz-adv-x="511" 
d="M465 166q0 -29 -8.5 -60.5t-23.5 -58.5t-36 -44.5t-45 -17.5t-38 14t-23 31.5t-15 31.5t-13 14t-12.5 -14t-14.5 -31.5t-23 -31.5t-38 -14q-38 0 -68.5 29.5t-53.5 83.5l63 30q13 -34 28 -52.5t31 -18.5q9 0 16.5 14l17 31t22 31t32.5 14t32.5 -14t21.5 -31l16.5 -31
t17.5 -14q9 0 16.5 11t13 27.5t9 35.5t3.5 35q0 23 -14.5 38t-36 26t-46.5 20.5t-46.5 23.5t-36 33.5t-14.5 50.5q0 25 10 44.5t25.5 33t33.5 20t34 6.5q28 0 57.5 -9t61.5 -43l-42 -52q-28 25 -44 31t-32 6q-11 0 -21.5 -10t-10.5 -27q1 -13 16 -22.5t36.5 -19l46.5 -20.5
t46 -28t35 -41.5t14 -60.5z" />
    <glyph glyph-name="u1058" unicode="&#x1058;" horiz-adv-x="2" 
d="M-110 -229q-73 -44 -129 -44q-18 0 -39.5 5.5t-42 16t-38.5 24.5t-29 32q-30 -32 -30 -77q0 -24 9.5 -47.5t26 -41.5t40 -29t52.5 -11q36 0 69 18.5t54 56.5l47 -27q-12 -26 -31.5 -45.5t-42.5 -32.5t-48 -19.5t-48 -6.5q-40 0 -73.5 15.5t-58 41t-38 59t-13.5 69.5
q0 38 14 71.5t38.5 59t58 40t72.5 14.5t72 -14t57 -35t37.5 -46t13.5 -47zM-172 -208q-20 34 -53 50t-65 16q-17 0 -34 -4.5t-31 -12.5q15 -29 48 -47.5t68 -18.5q34 0 67 17z" />
    <glyph glyph-name="u1059" unicode="&#x1059;" horiz-adv-x="2" 
d="M-114 -228q-72 -41 -129 -41q-45 0 -84.5 19.5t-66.5 55.5q-28 -33 -28 -78q0 -16 4.5 -37.5t13.5 -41t21.5 -33.5t28.5 -14q7 0 13 11l13 23.5t16.5 23.5t25.5 11q15 0 25 -11t17 -23.5t12.5 -23.5t13.5 -11q7 0 14.5 7t14 17.5t12 22.5t9.5 23l47 -25q-6 -17 -15.5 -35
t-22 -32.5t-27.5 -24t-32 -9.5q-18 0 -29.5 11t-18 24t-11 24t-9.5 11t-9.5 -11t-11.5 -24t-18.5 -24t-29.5 -11q-29 0 -52 17.5t-38.5 44.5t-24 59t-8.5 61q0 37 14 70.5t38.5 59t58.5 40.5t73 15q41 0 74 -13.5t56.5 -34.5t36 -46t13.5 -47zM-177 -205q-23 35 -54 49
t-63 14q-18 0 -33.5 -4t-29.5 -11q40 -62 112 -62q14 0 31 3t37 11z" />
    <glyph glyph-name="u105A" unicode="&#x105a;" horiz-adv-x="571" 
d="M516 117q-16 -35 -41 -60.5t-55 -42t-62.5 -24.5t-63.5 -8q-49 0 -92.5 19t-76 51.5t-51.5 76t-19 93.5q0 49 19 92.5t51.5 76t76 51.5t92.5 19q31 0 63.5 -8t62.5 -24.5t55 -42t41 -59.5l-63 -35q-28 50 -70.5 74t-88.5 24q-34 0 -64.5 -13.5t-53 -36.5t-36 -53.5
t-13.5 -64.5q0 -35 13.5 -65.5t36 -53t53 -36t64.5 -13.5q46 0 88 23t71 74zM384 -191q0 -21 -15 -43.5t-33 -45t-33 -43.5t-15 -39q0 -10 6 -17t18 -7q9 0 17 4t14 9l20 -57q-9 -8 -23 -13.5t-28 -5.5t-29.5 3.5t-28.5 13.5t-21.5 27t-8.5 43q0 27 15 53t33.5 49l33.5 41
t15 28q0 20 -9.5 27t-23.5 7q-16 0 -25 -11.5t-9 -28.5h-63q0 18 6.5 36t18.5 33t30 24.5t42 9.5q16 0 33 -5t31 -16t23 -30t9 -46z" />
    <glyph glyph-name="u105A.med" 
d="M-56 -199q0 -21 -15 -43.5t-32.5 -45l-32.5 -43.5t-15 -39q0 -11 6 -17.5t17 -6.5q10 0 18 4t14 9l19 -57q-9 -8 -22.5 -13.5t-28.5 -5.5q-14 0 -29 3.5t-28 13.5t-21.5 27t-8.5 43t15 52.5t33.5 49.5l33.5 41t15 28q0 20 -10 27t-23 7q-16 0 -25.5 -11.5t-9.5 -28.5h-62
q0 18 6.5 36t18.5 33t30 24.5t42 9.5q16 0 32.5 -5t30.5 -16t23 -30t9 -46z" />
    <glyph glyph-name="u105B" unicode="&#x105b;" horiz-adv-x="750" 
d="M342 -370v358q-24 -6 -52 -6q-50 0 -93 19t-74.5 51.5t-49.5 76t-18 93.5q0 49 18.5 92.5t51 76t75 51.5t90.5 19q42 0 78.5 -12.5t64.5 -35.5t45 -56t20 -74q24 -28 43.5 -60t39.5 -69l-54 -39l-24 42.5t-26 42.5q-18 -26 -47.5 -39t-60.5 -13q-21 0 -40 6t-34 18
t-24 29t-9 40q0 41 24 69.5t72 32.5q20 0 43 -10q-12 23 -38.5 40.5t-70.5 17.5q-34 0 -64 -14t-52.5 -37.5t-35.5 -54t-13 -63.5q0 -36 12.5 -66.5t34.5 -53t52 -35.5t64 -13q42 0 71.5 12t57.5 37l49 -53q-27 -27 -54 -41v-322l210 -51v808h71v-901zM434 256
q-16 15 -30 21t-37 6q-20 0 -31.5 -10t-11.5 -32q0 -16 14 -23.5t31 -7.5q23 0 42 10t23 36z" />
    <glyph glyph-name="u105B.med" horiz-adv-x="183" 
d="M-116 -417q-9 -6 -22.5 -10.5t-28.5 -8t-30.5 -5t-27.5 -1.5q-38 0 -71 14.5t-57.5 39.5t-38.5 58.5t-14 72.5q0 37 14.5 71t39.5 59t58 40t70 15q32 0 60.5 -9.5t50 -27.5t34 -43.5t14.5 -56.5q19 -22 34.5 -47t30.5 -54l-42 -30l-18 32.5t-21 33.5q-15 -20 -37 -30
t-46 -10q-32 0 -57.5 17.5t-25.5 54.5q0 30 18 53t56 25q16 0 34 -8q-9 17 -29 30.5t-56 13.5q-26 0 -49 -10.5t-40.5 -28.5t-27.5 -41.5t-10 -48.5q0 -28 9.5 -51.5t26.5 -41t40 -27.5t50 -10q24 0 56.5 8t55.5 25l168 -30v828h72v-901zM-114 -230q-13 11 -24 15.5t-28 4.5
q-33 0 -33 -32q0 -12 10.5 -18.5t24.5 -6.5q17 0 31.5 8.5t18.5 28.5z" />
    <glyph glyph-name="u105C" unicode="&#x105c;" horiz-adv-x="583" 
d="M528 222q0 -50 -18.5 -93.5t-50.5 -76t-75 -51.5t-91 -19q-50 0 -93 19t-75.5 51.5t-51 76t-18.5 93.5q0 49 18.5 92.5t50.5 76.5t75 52t92 19t92.5 -19t75.5 -52t50.5 -76.5t18.5 -92.5zM460 222q0 35 -13 66t-36 54.5t-53.5 37t-64.5 13.5q-35 0 -66 -13.5t-54 -37
t-36 -54.5t-13 -66q0 -36 13 -67t36 -54t53 -36.5t65 -13.5t66 13.5t54 36.5t36 54t13 67zM379 222q0 -18 -7 -34t-18.5 -28t-27 -19t-33.5 -7q-17 0 -32.5 7t-27 19t-18.5 28t-7 34q0 35 25 60.5t60 25.5q18 0 33.5 -7t27 -19t18.5 -27.5t7 -32.5zM334 222q0 17 -12 28.5
t-29 11.5t-29 -11.5t-12 -28.5q0 -18 12 -30t29 -12t29 12t12 30z" />
    <glyph glyph-name="u105C.med" 
d="M-49 -272q0 -38 -14 -72t-38.5 -59t-57 -39.5t-69.5 -14.5q-38 0 -71.5 14.5t-58.5 39.5t-39 59t-14 72q0 37 14 70.5t38.5 59t57.5 40t70 14.5q38 0 71.5 -14.5t58 -40t38.5 -59t14 -70.5zM-104 -272q0 26 -10 49.5t-26.5 41.5t-39.5 28.5t-48 10.5q-27 0 -50 -10.5
t-40 -28.5t-27 -41.5t-10 -49.5q0 -27 10 -50.5t26.5 -41t39 -27.5t48.5 -10q27 0 50 10t40 27.5t27 41t10 50.5zM-162 -272q0 -27 -19.5 -48t-46.5 -21q-28 0 -47.5 21t-19.5 48t19.5 47.5t47.5 20.5q27 0 46.5 -20.5t19.5 -47.5zM-197 -272q0 13 -9 22t-22 9q-14 0 -23 -9
t-9 -22q0 -14 9 -23t23 -9q13 0 22 9t9 23z" />
    <glyph glyph-name="u105D" unicode="&#x105d;" horiz-adv-x="589" 
d="M534 -267q0 -42 -14.5 -76.5t-39.5 -60t-58.5 -39.5t-71.5 -14h-148q-29 0 -50.5 11t-35.5 29t-21 39.5t-7 42.5q0 23 9 44.5t25.5 38t39.5 26.5t51 10q47 0 77 -24l-39 -60q-21 12 -38 12q-23 0 -38.5 -12.5t-15.5 -34.5q0 -17 13 -33.5t39 -16.5h128q33 0 56.5 10.5
t38 27.5t21.5 39.5t7 45.5v317q-28 -35 -71.5 -54t-95.5 -19q-50 0 -94 19t-76.5 53.5t-51 81.5t-18.5 103q0 79 24.5 131t70.5 90l42 -60q-32 -33 -48.5 -70.5t-16.5 -91.5q0 -28 11 -61q36 32 77.5 46t79.5 14t79 -13.5t77 -45.5q6 14 8.5 29t2.5 30q0 55 -16.5 92
t-48.5 71l42 60q47 -38 71 -90t24 -131v-506zM424 118q-34 31 -68 42.5t-61 11.5q-26 0 -60 -11.5t-68 -43.5q22 -29 55 -46t73 -17q41 0 73 16.5t56 47.5z" />
    <glyph glyph-name="u105E" unicode="&#x105e;" 
d="M40 -306q-24 18 -48 27t-47 13v-91q0 -54 -19.5 -77t-71.5 -23q-9 0 -31 4.5t-45.5 18.5t-41.5 39.5t-18 67.5q0 40 17 64t42 37.5t53.5 18.5t51.5 7v102h63v-105q33 -6 62.5 -20t59.5 -43zM-118 -263q-16 -1 -33.5 -4t-32.5 -10t-25 -19t-10 -31q0 -15 7 -27t17.5 -20.5
t23.5 -13.5t25 -5q18 0 23 9t5 23v98z" />
    <glyph glyph-name="u105F" unicode="&#x105f;" 
d="M60 -391q-38 -37 -77 -51.5t-86 -14.5q-20 0 -50.5 3.5t-59 17t-49 39t-20.5 70.5q0 40 18 64.5t44 38t54 18.5t48 6v102h63v-168q-8 2 -20 3t-28 1q-19 0 -39.5 -3t-37.5 -10t-28 -20t-11 -32q0 -21 10.5 -34t27 -20.5t37 -10t41.5 -2.5q31 0 67.5 10t68.5 33l27 -40v0z
" />
    <glyph glyph-name="u1060" unicode="&#x1060;" 
d="M-401 -457l199 362h80l-158 -290h225v-72h-346z" />
    <glyph glyph-name="u1061" unicode="&#x1061;" horiz-adv-x="608" 
d="M481 -457v638q0 50 -16.5 89t-43.5 65.5t-60.5 40.5t-66.5 14q-32 0 -60.5 -11.5t-50 -31t-35.5 -45.5t-17 -55q38 3 76 -5t71 -27q59 -32 89 -81.5t48 -121.5q-26 -16 -56 -23t-65 -7q-49 0 -92.5 19t-76 51.5t-51.5 76t-19 93.5q0 47 18 90t50.5 76t76 52.5t94.5 19.5
t97.5 -18.5t82 -54t57 -86.5t21.5 -116v-642h-71zM331 58q-14 34 -33 60t-55 43q-28 14 -55 18t-56 2q14 -55 58 -90.5t104 -35.5q12 0 20 0.5t17 2.5zM240 -457v67h85v292h68v-359h-153z" />
    <glyph glyph-name="u1062" unicode="&#x1062;" horiz-adv-x="291" 
d="M167 0v372h-127v72h196v-444h-69z" />
    <glyph glyph-name="u1062_u103A" horiz-adv-x="445" 
d="M350 710q-18 29 -45 42t-51 13q-22 0 -45 -8.5t-41.5 -25t-30.5 -40.5t-12 -55q0 -36 16 -62t37.5 -42.5t43.5 -24t34 -7.5v-54q-32 0 -65 14t-59.5 39t-43.5 60t-17 77t15.5 76t41 58t58.5 37.5t68 13.5q40 0 77.5 -20t57.5 -58zM189 0v368h-129v76h196v-444h-67z" />
    <glyph glyph-name="u1063" unicode="&#x1063;" horiz-adv-x="571" 
d="M516 222q0 -50 -19 -93.5t-51.5 -76t-76 -51.5t-92.5 -19q-39 0 -78.5 13t-72.5 39v-491h-71v575l63 33q28 -49 69.5 -73t89.5 -24q34 0 64.5 13.5t53 36t36 53t13.5 65.5q0 34 -13.5 64.5t-36 53.5t-53 36.5t-64.5 13.5q-48 0 -90 -25t-69 -73l-63 35q14 30 36.5 54.5
t51.5 42.5t63 27.5t71 9.5q49 0 92.5 -19t76 -51.5t51.5 -76t19 -92.5z" />
    <glyph glyph-name="u1063_u103A" horiz-adv-x="571" 
d="M516 222q0 -50 -19 -93.5t-51 -76t-76 -51.5t-93 -19q-38 0 -77.5 13t-72.5 39v-491h-72v575l64 33q26 -48 68 -72.5t90 -24.5q34 0 65 13.5t53.5 36t36 53t13.5 65.5q0 34 -13.5 64.5t-36 53t-53.5 36t-65 13.5q-48 0 -90 -24.5t-68 -72.5l-63 35q25 54 70.5 85.5
t96.5 42.5q-25 9 -48.5 25t-42 39.5t-29.5 52.5t-11 64q0 42 15.5 76t41 58t58.5 37.5t68 13.5q40 0 78 -19.5t58 -58.5l-40 -33q-17 29 -44 42.5t-52 13.5q-22 0 -44.5 -8.5t-41 -25t-30.5 -41t-12 -55.5q0 -36 15.5 -62t37 -42t43.5 -23.5t34 -7.5v-40q49 0 93 -19
t76 -51.5t51 -76t19 -92.5z" />
    <glyph glyph-name="u1064" unicode="&#x1064;" horiz-adv-x="405" 
d="M167 0v372h-127v72h196v-372h128v-72h-197z" />
    <glyph glyph-name="u1065" unicode="&#x1065;" horiz-adv-x="577" 
d="M518 222q0 -50 -19 -93.5t-51.5 -76t-76 -51.5t-92.5 -19q-34 0 -67.5 9t-62.5 26t-53 42t-39 58l63 34q28 -48 69 -72.5t90 -24.5q34 0 65 13.5t53.5 36t36 53t13.5 65.5q0 34 -13.5 64.5t-36 53.5t-53.5 36.5t-65 13.5q-49 0 -91 -25.5t-68 -72.5l-63 35q15 33 39 58
t53.5 42t62.5 25.5t67 8.5q49 0 92.5 -19t76 -51.5t51.5 -76t19 -92.5z" />
    <glyph glyph-name="u1066" unicode="&#x1066;" horiz-adv-x="589" 
d="M535 239q0 -56 -19 -103t-51.5 -81t-76 -53.5t-93.5 -19.5t-94 19.5t-76.5 53.5t-51 81t-18.5 103q0 78 24.5 130t70.5 91l42 -60q-32 -32 -48.5 -68.5t-16.5 -92.5q0 -39 12.5 -72.5t35 -58.5t53.5 -39.5t67 -14.5t66.5 14.5t53 39.5t35 58.5t12.5 72.5q0 56 -17 92.5
t-48 68.5l42 60q48 -39 72 -91t24 -130zM176 -457v67h85v292h68v-359h-153z" />
    <glyph glyph-name="u1067" unicode="&#x1067;" horiz-adv-x="311" 
d="M266 101q0 -56 -32.5 -87.5t-80.5 -31.5q-22 0 -41.5 9t-34.5 24t-23.5 35t-8.5 42t8.5 42t23.5 35t34.5 23.5t41.5 8.5t41 -10v273h72v-363zM199 92q0 18 -13.5 31.5t-32.5 13.5q-20 0 -33 -13.5t-13 -31.5t13 -32.5t33 -14.5t33 14.5t13 32.5z" />
    <glyph glyph-name="u1068" unicode="&#x1068;" horiz-adv-x="360" 
d="M305 667q0 -18 -7 -33.5t-19 -27.5t-27.5 -19t-33.5 -7t-33.5 7t-27.5 19t-19 27.5t-7 33.5t7 33.5t19 27.5t27.5 19t33.5 7t33.5 -7t27.5 -19t19 -27.5t7 -33.5zM264 667q0 18 -13.5 31.5t-32.5 13.5q-20 0 -33 -13.5t-13 -31.5t13 -32.5t33 -14.5q19 0 32.5 14t13.5 33
zM55 0v72h127v372h69v-444h-196z" />
    <glyph glyph-name="u1069" unicode="&#x1069;" horiz-adv-x="368" 
d="M325 331q0 -24 -8.5 -45.5t-28.5 -38.5q-15 -14 -34 -22t-38 -13.5t-36 -9.5t-29 -9q-17 -8 -28 -21.5t-11 -31.5q0 -25 7.5 -41.5t19 -26.5t24 -14t22.5 -4q20 0 41.5 7t41.5 29l46 -55q-13 -17 -30 -27.5t-35 -16t-34.5 -7.5t-29.5 -2q-20 0 -45 8t-47 26.5t-37.5 49.5
t-15.5 76q0 26 15 56.5t53 50.5q12 7 29 12.5t35 10.5t35 11t29 14q17 14 17 34q0 21 -16 41t-46 20q-17 0 -35.5 -6t-44.5 -29l-46 54q16 17 33.5 27t34.5 15.5t32 7t26 1.5q27 0 51.5 -9t42.5 -26t29 -41t11 -55z" />
    <glyph glyph-name="u106A" unicode="&#x106a;" horiz-adv-x="321" 
d="M276 102q0 -57 -31.5 -88.5t-78.5 -31.5q-25 0 -45 9t-34.5 24.5t-22.5 36t-8 44.5h71q0 -20 12.5 -32t26.5 -12q15 0 27 12t12 38v352h71v-352z" />
    <glyph glyph-name="u106B" unicode="&#x106b;" horiz-adv-x="321" 
d="M194 -3v343q0 28 -12 41t-27 13q-14 0 -26.5 -12t-12.5 -32h-71q0 24 7.5 44.5t21.5 36t34.5 24.5t46.5 9q50 0 80.5 -34.5t30.5 -89.5v-343h-72z" />
    <glyph glyph-name="u106C" unicode="&#x106c;" horiz-adv-x="321" 
d="M266 96q0 -24 -8 -44.5t-22.5 -36t-35 -24.5t-44.5 -9q-47 0 -79 31.5t-32 88.5v352h72v-352q0 -25 11.5 -37.5t27.5 -12.5q14 0 26.5 12t12.5 32h71v0z" />
    <glyph glyph-name="u106D" unicode="&#x106d;" horiz-adv-x="368" 
d="M327 142q0 -45 -15 -76t-37.5 -49.5t-47.5 -26.5t-45 -8q-12 0 -29 2t-34.5 7.5t-35 16t-30.5 27.5l46 55q22 -23 44 -29.5t39 -6.5q9 0 21.5 4.5t24 14.5t19.5 26.5t8 41.5q0 19 -10.5 31.5t-28.5 20.5q-11 5 -28 9t-36 9.5t-38 14t-35 21.5q-20 16 -28.5 38t-8.5 46
q0 31 11 55t29.5 41t42.5 26t51 9q10 0 25.5 -1.5t32.5 -7t35 -15.5t33 -27l-46 -54q-25 23 -43.5 29t-36.5 6q-30 0 -46 -20t-16 -41q0 -11 5 -19t13 -15q12 -8 28.5 -14t34.5 -11t35 -10.5t30 -12.5q37 -20 52 -50.5t15 -56.5z" />
    <glyph glyph-name="u106E" unicode="&#x106e;" horiz-adv-x="1194" 
d="M1139 222q0 -50 -18.5 -93.5t-51 -76t-75 -51.5t-90.5 -19q-18 0 -36.5 3t-34.5 11l28 66q11 -5 21.5 -6.5t21.5 -1.5q34 0 63.5 13.5t52 36t35.5 53t13 65.5q0 34 -13 64.5t-35.5 53.5t-52 36.5t-63.5 13.5t-64.5 -18t-54 -46t-37 -62t-13.5 -67q0 -78 -24.5 -127.5
t-69.5 -87.5l-42 60q31 32 48 68.5t17 93.5q0 39 -13 72.5t-35.5 58t-53 39t-66.5 14.5q-11 0 -19.5 -1t-13.5 -2q33 -32 52 -78t19 -103q-1 -80 -24 -131.5t-71 -90.5l-42 60q32 32 48.5 68.5t16.5 93.5q0 39 -12.5 72.5t-35 58t-53 39t-66.5 14.5t-67 -14.5t-53.5 -39
t-35 -58t-12.5 -72.5q0 -57 17 -93.5t48 -68.5l-42 -60q-46 39 -70.5 90.5t-24.5 131.5q0 55 18.5 102t51 81.5t76.5 53.5t94 19q55 0 100 -23q23 12 50.5 17.5t50.5 5.5q66 0 121.5 -33t86.5 -96q15 27 35.5 51t46 41.5t55.5 27.5t63 10q48 0 90.5 -19t75 -51.5t51 -76
t18.5 -92.5z" />
    <glyph glyph-name="u106F" unicode="&#x106f;" horiz-adv-x="993" 
d="M938 222q0 -50 -19 -93.5t-51 -76t-75.5 -51.5t-91.5 -19q-18 0 -36 3t-34 11l28 66q9 -5 20 -6.5t22 -1.5q34 0 64 13.5t52.5 36t35.5 53t13 65.5q0 34 -13 64.5t-35.5 53.5t-52.5 36.5t-64 13.5t-64 -17.5t-52.5 -43t-36 -55t-14.5 -52.5q-1 -43 -17.5 -86t-47.5 -77
t-75 -55.5t-99 -21.5q-50 0 -93.5 19.5t-76 53.5t-51.5 81t-19 103q0 78 24.5 130t70.5 91l44 -58q-32 -32 -49.5 -69t-17.5 -94q0 -39 13.5 -73t36 -58.5t53 -39t65.5 -14.5q34 0 64.5 14.5t53 39t36 58.5t13.5 73q0 56 -17.5 93.5t-49.5 69.5l44 58q26 -22 45.5 -47
t30.5 -60q32 47 80.5 77.5t105.5 30.5q48 0 91.5 -19t75.5 -51.5t51 -76t19 -92.5zM579 -457v67h85v292h68v-359h-153z" />
    <glyph glyph-name="u1070" unicode="&#x1070;" horiz-adv-x="989" 
d="M934 222q0 -50 -19 -93.5t-51 -76t-75.5 -51.5t-91.5 -19q-66 0 -118.5 37t-83.5 93q-31 -62 -86 -96t-122 -34q-53 0 -96 17.5t-73 44.5t-46.5 60t-16.5 63q0 34 10.5 56t25.5 36.5t33.5 24l33.5 17.5t25.5 16.5t10.5 22.5q0 29 -14 40.5t-29 11.5q-14 0 -24 -8.5
t-15 -19.5l-57 34q9 25 36.5 43t59.5 18q21 0 41 -7.5t35 -22.5t24.5 -37t9.5 -52q0 -38 -21 -58t-46 -35t-46 -32t-21 -48q0 -10 9.5 -29t29 -37.5t49.5 -32.5t72 -14q34 0 65 14t53.5 39.5t36 61t13.5 79.5q0 26 -7 50t-17 43.5t-21 34.5t-20 24l42 60q44 -35 69.5 -87
t25.5 -136q0 -30 14.5 -62.5t38 -59t54 -44t63.5 -17.5q34 0 64 13.5t52.5 36t35.5 53t13 65.5q0 34 -13 64.5t-35.5 53.5t-52.5 36.5t-64 13.5q-23 0 -42 -9l-28 66q15 8 33.5 11t36.5 3q48 0 91.5 -19t75.5 -51.5t51 -76t19 -92.5zM579 -457v67h85v292h68v-359h-153z" />
    <glyph glyph-name="u1071" unicode="&#x1071;" horiz-adv-x="2" 
d="M-320 627q0 -18 -7 -34t-19 -28t-27.5 -19t-33.5 -7q-17 0 -33 7t-28 19t-19 28t-7 34q0 17 7 32.5t19 27.5t28 19t33 7q18 0 33.5 -7t27.5 -19t19 -27.5t7 -32.5zM-361 627q0 16 -13 30t-33 14t-33 -14t-13 -30q0 -17 13 -32.5t33 -15.5t33 15t13 33zM-93 627
q0 -18 -7 -34t-19 -28t-27.5 -19t-33.5 -7q-17 0 -33 7t-28 19t-19 28t-7 34q0 17 7 32.5t19 27.5t28 19t33 7q18 0 33.5 -7t27.5 -19t19 -27.5t7 -32.5zM-134 627q0 16 -13 30t-33 14t-33 -14t-13 -30q0 -17 13 -32.5t33 -15.5t33 15t13 33z" />
    <glyph glyph-name="u1072" unicode="&#x1072;" 
d="M-95 799q-17 29 -43.5 42.5t-52.5 13.5q-24 0 -47 -9t-41 -25.5t-29 -41t-11 -54.5q0 -36 15.5 -62t36.5 -42.5t43 -24t35 -7.5v-54q-30 0 -62.5 13t-59.5 38t-45 60t-18 79q0 42 15.5 76t41 58t58 37.5t67.5 13.5q41 0 78.5 -19.5t58.5 -58.5z" />
    <glyph glyph-name="u1073" unicode="&#x1073;" horiz-adv-x="2" 
d="M-105 591l-188 189l-189 -189l-40 39l229 229l228 -229z" />
    <glyph glyph-name="u1074" unicode="&#x1074;" 
d="M-284 591l-228 229l39 39l189 -189l189 189l40 -39z" />
    <glyph glyph-name="u1075" unicode="&#x1075;" horiz-adv-x="582" 
d="M527 203q0 -83 -25 -134.5t-70 -86.5l-42 60q33 32 49 73.5t16 87.5q0 45 -14.5 79.5t-38.5 58t-54 35.5t-61 12q-42 0 -72 -14t-49.5 -33t-29 -37.5t-9.5 -28.5q0 -21 10 -34.5t25 -24t32 -20t32 -22t25 -29.5t10 -42q0 -30 -9 -52.5t-25 -37.5t-36.5 -22.5t-42.5 -7.5
q-28 0 -55 16.5t-38 39.5l57 35q4 -9 14 -16.5t22 -7.5q15 0 30.5 10.5t15.5 42.5q0 13 -10.5 22t-25.5 16.5l-33.5 16.5t-33.5 24t-25.5 37t-10.5 56q0 31 16.5 63.5t46.5 59.5t73 44.5t96 17.5q49 0 92.5 -18.5t76.5 -52.5t52 -81.5t19 -104.5z" />
    <glyph glyph-name="u1076" unicode="&#x1076;" horiz-adv-x="587" 
d="M531 222q0 -49 -18.5 -92.5t-51 -76.5t-76 -52t-93.5 -19q-60 0 -103.5 20t-71.5 48.5t-41.5 60t-14.5 55.5q95 55 168 55q52 0 105 -25t89 -73q17 20 26.5 45t9.5 54q0 31 -11.5 61.5t-32 54t-48.5 38t-60 14.5q-16 0 -25 -9t-15.5 -22.5t-12.5 -29t-16 -29t-26 -22.5
t-43 -9q-21 0 -41 6.5t-36.5 19.5t-26.5 32t-10 43q0 26 11.5 50t41.5 41l38 -48q-25 -13 -25 -37q0 -17 12 -29.5t36 -12.5q15 0 23 9.5t14 23.5t12 30.5t16.5 30.5t27.5 23.5t45 9.5q46 0 86.5 -20t71 -53.5t48.5 -76.5t18 -89zM376 75q-24 36 -61.5 58.5t-83.5 22.5
q-43 0 -89 -20q28 -45 67.5 -63.5t82.5 -18.5q25 0 45 5.5t39 15.5z" />
    <glyph glyph-name="u1077" unicode="&#x1077;" horiz-adv-x="585" 
d="M534 203q0 -39 -11 -71t-28.5 -59t-40 -49.5t-45.5 -41.5q-45 35 -75.5 88.5t-30.5 119.5q0 54 20 94.5t58 74.5q-38 29 -89 29q-43 0 -74 -14t-51.5 -33t-30 -37.5t-9.5 -28.5q0 -21 9.5 -34.5t24.5 -24t31.5 -20t31.5 -22t24.5 -29.5t9.5 -42q0 -60 -32.5 -90
t-77.5 -30q-14 0 -28.5 5t-27.5 12.5t-23 17.5t-14 21l57 35q2 -6 12 -15t24 -9q15 0 29 12t14 41q0 14 -10 22.5t-25 16.5l-33 17t-33 23.5t-25 36.5t-10 56q0 31 16.5 63.5t47 59.5t74.5 44.5t99 17.5q49 0 93 -19t77 -53t52.5 -81t19.5 -104zM462 203q0 64 -32 110
q-62 -48 -62 -122q0 -27 7.5 -55t27.5 -57q24 26 41.5 55t17.5 69z" />
    <glyph glyph-name="u1078" unicode="&#x1078;" horiz-adv-x="987" 
d="M931 222q0 -50 -18 -93.5t-50 -76t-75 -51.5t-93 -19q-54 0 -97 22t-73.5 55.5t-46.5 74.5t-16 79q-1 21 -13.5 51.5t-34.5 58t-53 47.5t-70 20q-34 0 -63.5 -13.5t-52 -36.5t-35.5 -53.5t-13 -64.5q0 -35 13 -65.5t35.5 -53t52 -36t63.5 -13.5q20 0 42 8l29 -66
q-16 -7 -35 -10.5t-36 -3.5q-48 0 -91 19t-75 51.5t-51 76t-19 93.5q0 49 19 92.5t51 76t75 51.5t91 19q32 0 61.5 -10t55.5 -27t47.5 -40t36.5 -50q29 57 83.5 92t122.5 35q48 0 90.5 -19t74 -51.5t50 -76t18.5 -92.5zM860 222q0 34 -13 64.5t-35 53.5t-52.5 36.5
t-64.5 13.5q-35 0 -64.5 -14t-51 -37t-34 -54.5t-12.5 -65.5q0 -32 12.5 -61.5t34 -52.5t52 -37t66.5 -14q33 0 62.5 13.5t51.5 36t35 53t13 65.5z" />
    <glyph glyph-name="u1079" unicode="&#x1079;" horiz-adv-x="942" 
d="M887 222q0 -50 -18.5 -93.5t-50.5 -76t-75.5 -51.5t-92.5 -19q-48 0 -90.5 19t-74 51.5t-50 76t-18.5 93.5q0 53 24 103q-34 33 -72 49t-75 16q-30 0 -56.5 -10.5t-47 -28.5t-34 -42t-17.5 -51q36 0 70.5 -9t64.5 -29t51 -43t35 -50t23 -57t14 -64q-23 -14 -48.5 -19
t-51.5 -5q-48 0 -92 18t-77 49.5t-53 75.5t-20 97q0 49 19 93t51.5 76t76 51t92.5 19q59 0 104.5 -18.5t83.5 -56.5q32 35 76 55t95 20q49 0 91.5 -19t74 -51.5t50 -76t18.5 -92.5zM815 222q0 34 -13 64.5t-35 53.5t-52.5 36.5t-64.5 13.5q-33 0 -62.5 -13.5t-51.5 -36.5
t-34.5 -53.5t-12.5 -64.5q0 -35 13 -65.5t35.5 -53t52 -36t63.5 -13.5t63.5 13.5t51.5 36t34.5 53t12.5 65.5zM130 194q6 -33 23.5 -60.5t43 -46.5t57 -27t64.5 -3q-11 36 -29.5 65t-53.5 49q-47 29 -105 23z" />
    <glyph glyph-name="u107A" unicode="&#x107a;" horiz-adv-x="1011" 
d="M956 222q0 -50 -19 -93.5t-51 -76t-75.5 -51.5t-91.5 -19q-51 0 -93.5 24.5t-73.5 60.5v-452h78v-72h-149v637q0 50 -17.5 89t-45 66t-61.5 41t-67 14q-36 0 -65.5 -13.5t-51.5 -36.5t-34 -53.5t-12 -63.5q0 -38 14 -69t37 -53.5t52 -34.5t60 -12q20 0 39.5 4.5
t31.5 11.5l25 -68q-20 -10 -45 -15t-51 -5q-47 0 -90 18.5t-75 50.5t-51 76t-19 95q0 46 17.5 89t48.5 76t74.5 53t94.5 20q48 0 93 -17t81 -49.5t59 -79t28 -105.5q7 -28 23 -55.5t38.5 -49.5t49.5 -36t57 -14q34 0 64 13.5t52.5 36t35.5 53t13 65.5q0 34 -13 64.5
t-35.5 53.5t-52.5 36.5t-64 13.5q-11 0 -22 -2t-20 -7l-28 66q16 8 34 11t36 3q48 0 91.5 -19t75.5 -51.5t51 -76t19 -92.5z" />
    <glyph glyph-name="u107B" unicode="&#x107b;" horiz-adv-x="942" 
d="M887 222q0 -53 -20 -97t-53 -75.5t-77 -49.5t-92 -18q-25 0 -51 5t-49 19q13 75 40 126t81 84q34 22 67 31.5t70 10.5q-4 27 -17.5 51t-34 42t-47 28.5t-56.5 10.5q-37 0 -75 -16t-72 -49q24 -50 24 -103q0 -50 -18.5 -93.5t-50 -76t-74 -51.5t-90.5 -19q-50 0 -93 19
t-75 51.5t-50.5 76t-18.5 93.5q0 49 18.5 92.5t50 76t74 51.5t91.5 19q51 0 95 -20t76 -55q38 38 83.5 56.5t104.5 18.5q49 0 92.5 -19t76 -51t51.5 -76t19 -93zM453 222q0 34 -12.5 64.5t-34.5 53.5t-51.5 36.5t-62.5 13.5q-35 0 -65 -13.5t-52 -36.5t-35 -53.5t-13 -64.5
q0 -35 12.5 -65.5t34.5 -53t51.5 -36t63.5 -13.5t63.5 13.5t52 36t35.5 53t13 65.5zM811 194q-59 5 -104 -23q-36 -21 -53.5 -48.5t-29.5 -65.5q33 -5 64 3t56.5 26.5t43 46t23.5 61.5z" />
    <glyph glyph-name="u107C" unicode="&#x107c;" horiz-adv-x="1001" 
d="M943 128q-4 -12 -18 -36.5t-40.5 -48.5t-68 -42.5t-100.5 -18.5q-35 0 -67.5 9.5t-60 26.5t-49.5 41t-37 53q-15 -29 -38 -53t-51 -41t-61 -26.5t-67 -9.5q-59 0 -100 18.5t-67 42.5t-39.5 48.5t-17.5 36.5q20 35 46 58.5t55.5 38t60.5 21t62 6.5q45 0 84.5 -14.5
t78.5 -52.5q3 8 3.5 15.5t0.5 15.5q0 39 -14.5 71.5t-38 55t-53.5 35t-61 12.5q-48 0 -90.5 -25t-68.5 -73l-62 35q14 33 38.5 58.5t54.5 42t63 25t65 8.5q35 0 67.5 -10t61 -27.5t51 -42t37.5 -53.5q30 58 86.5 95.5t127.5 37.5q34 0 67.5 -8.5t63 -25.5t53.5 -42t39 -58
l-63 -35q-27 47 -68 72.5t-92 25.5q-32 0 -62 -12.5t-53 -35t-37 -54.5t-14 -72q0 -8 1 -16t3 -15q37 38 76.5 52.5t87.5 14.5q62 0 122.5 -27t102.5 -97zM422 126q-27 28 -64.5 46t-72.5 18q-40 0 -76 -14t-66 -48q22 -38 62 -56t80 -18q36 0 70.5 15t66.5 57zM859 128
q-27 34 -63.5 48t-77.5 14q-29 0 -67.5 -16t-70.5 -49q32 -41 67.5 -56t70.5 -15q18 0 38 4t39 13t35.5 23t28.5 34z" />
    <glyph glyph-name="u107D" unicode="&#x107d;" horiz-adv-x="989" 
d="M931 166q-1 -29 -18.5 -61.5t-48 -59.5t-73 -45t-92.5 -18q-68 0 -121.5 32.5t-84.5 85.5q-29 -53 -80 -85.5t-121 -32.5q-53 0 -96 17.5t-73 44.5t-46.5 60t-16.5 63q0 34 10.5 56t25.5 36.5t33.5 24l33.5 17.5t25.5 16.5t10.5 22.5q0 29 -14.5 40.5t-29.5 11.5
q-14 0 -23.5 -7t-14.5 -16l-57 35q11 23 36.5 39t56.5 16q22 0 42.5 -7.5t36.5 -22.5t25 -37t9 -52q0 -25 -10 -42t-25 -29.5t-32.5 -22t-32.5 -20.5t-25 -25t-10 -34q0 -10 9.5 -29t29 -37.5t50 -32.5t72.5 -14q30 0 60 12t54 36t39 58.5t15 79.5q0 52 -16 90t-49 70l42 60
q23 -18 41.5 -41.5t30.5 -54.5q30 42 79.5 69.5t110.5 27.5q30 0 62 -8t62 -24.5t55.5 -42t41.5 -59.5l-62 -35q-30 51 -72 74.5t-87 23.5q-35 0 -65.5 -13.5t-53.5 -36t-36 -52t-13 -62.5q0 -32 10 -58t27 -46q35 46 88 72.5t107 26.5q37 0 79.5 -13.5t88.5 -41.5zM850 136
q-23 10 -44 15t-43 5q-45 0 -83 -22t-64 -59q18 -10 39 -15.5t44 -5.5q42 0 82 18.5t69 63.5z" />
    <glyph glyph-name="u107E" unicode="&#x107e;" horiz-adv-x="989" 
d="M579 -457v67h85v292h68v-359h-153zM931 166q-1 -29 -18.5 -61.5t-48 -59.5t-73 -45t-92.5 -18q-68 0 -121.5 32.5t-84.5 85.5q-29 -53 -80 -85.5t-121 -32.5q-53 0 -96 17.5t-73 44.5t-46.5 60t-16.5 63q0 34 10.5 56t25.5 36.5t33.5 24l33.5 17.5t25.5 16.5t10.5 22.5
q0 29 -14.5 40.5t-29.5 11.5q-14 0 -23.5 -7t-14.5 -16l-57 35q11 23 36.5 39t56.5 16q22 0 42.5 -7.5t36.5 -22.5t25 -37t9 -52q0 -25 -10 -42t-25 -29.5t-32.5 -22t-32.5 -20.5t-25 -25t-10 -34q0 -10 9.5 -29t29 -37.5t50 -32.5t72.5 -14q30 0 60 12t54 36t39 58.5
t15 79.5q0 52 -16 90t-49 70l42 60q23 -18 41.5 -41.5t30.5 -54.5q30 42 79.5 69.5t110.5 27.5q30 0 62 -8t62 -24.5t55.5 -42t41.5 -59.5l-62 -35q-30 51 -72 74.5t-87 23.5q-35 0 -65.5 -13.5t-53.5 -36t-36 -52t-13 -62.5q0 -32 10 -58t27 -46q35 46 88 72.5t107 26.5
q37 0 79.5 -13.5t88.5 -41.5zM850 136q-23 10 -44 15t-43 5q-45 0 -83 -22t-64 -59q18 -10 39 -15.5t44 -5.5q42 0 82 18.5t69 63.5z" />
    <glyph glyph-name="u107F" unicode="&#x107f;" horiz-adv-x="590" 
d="M534 239q0 -57 -19 -104t-51 -81t-76 -53t-93 -19q-50 0 -93.5 19t-76 53t-51.5 81t-19 104q0 69 33.5 121t90.5 100q44 -35 75.5 -88.5t31.5 -119.5q0 -54 -20.5 -94.5t-58.5 -75.5q37 -28 88 -28q34 0 64.5 13.5t53 38.5t36 58.5t13.5 74.5q0 57 -17 94t-48 67l42 60
q46 -37 70.5 -90t24.5 -131zM221 252q0 26 -7.5 53.5t-27.5 56.5q-24 -24 -41.5 -53.5t-17.5 -69.5q0 -32 8.5 -60t23.5 -50q62 48 62 123z" />
    <glyph glyph-name="u1080" unicode="&#x1080;" horiz-adv-x="990" 
d="M934 222q0 -50 -18.5 -93.5t-50.5 -76t-75 -51.5t-92 -19q-32 0 -61.5 9.5t-55 26.5t-47 40t-36.5 50q-29 -56 -84.5 -91t-124.5 -35q-51 0 -93.5 17.5t-73 44.5t-48 59.5t-18.5 62.5q48 29 89 42t78 13q52 0 106 -25.5t90 -73.5q17 20 27 45t10 55q0 28 -11 58t-32 54.5
t-52 40t-72 15.5q-49 0 -91.5 -26t-68.5 -72l-61 35q15 33 39 58.5t53.5 42t62.5 25t66 8.5q50 0 93 -19t74.5 -51t50 -73.5t20.5 -86.5q4 -32 19 -63.5t38 -57t52.5 -41t61.5 -15.5q34 0 64.5 13.5t52.5 36t35 53t13 65.5q0 34 -13 64.5t-35 53.5t-52.5 36.5t-64.5 13.5
q-11 0 -22 -2t-20 -7l-28 66q33 14 70 14q49 0 92 -19t75 -51.5t50.5 -76t18.5 -92.5zM371 75q-24 35 -61.5 58t-84.5 23q-44 0 -88 -20q29 -45 69.5 -63.5t82.5 -18.5q23 0 43 5.5t39 15.5z" />
    <glyph glyph-name="u1081" unicode="&#x1081;" horiz-adv-x="590" 
d="M535 204q0 -80 -24 -132t-72 -90l-42 60q32 32 48.5 68.5t16.5 93.5q0 39 -12.5 72.5t-35 58t-53 39t-66.5 14.5t-67 -14.5t-53.5 -39t-35 -58t-12.5 -72.5q0 -57 16.5 -93.5t48.5 -68.5l-42 -60q-46 38 -70.5 90t-24.5 132q0 55 18.5 102t51 81t76.5 53.5t94 19.5
t93.5 -19.5t76 -53.5t51.5 -81t19 -102zM176 -457v67h85v292h68v-359h-153z" />
    <glyph glyph-name="u1082" unicode="&#x1082;" horiz-adv-x="2" 
d="M-63 -391q-20 -38 -57 -57t-79 -19q-35 0 -68.5 13.5t-59 37.5t-41 58t-15.5 75q0 44 17 79t44 60t59.5 38t64.5 13v-55q-12 0 -34 -7t-43.5 -22.5t-37 -41.5t-15.5 -64q0 -30 12 -54t30.5 -40.5t41.5 -25t45 -8.5q26 0 51 12t45 42l40 -34v0z" />
    <glyph glyph-name="u1083" unicode="&#x1083;" horiz-adv-x="301" 
d="M153 -457v829h-126v72h193v-829h126v-72h-193z" />
    <glyph glyph-name="u1084" unicode="&#x1084;" horiz-adv-x="540" 
d="M484 117q0 -59 -53 -97t-161 -38q-56 0 -97 11.5t-67 31t-38.5 45.5t-12.5 56q0 32 18 58t50 37q-32 11 -50 37.5t-18 58.5q0 30 12.5 56t38.5 45.5t67 31t97 11.5q106 0 160 -38t54 -97l-67 -25q0 41 -38 65t-109 24q-26 0 -51.5 -4t-46 -12.5t-33 -22.5t-12.5 -34
q0 -31 37.5 -45.5t95.5 -17.5v-64q-57 -3 -95 -17.5t-38 -45.5q0 -21 12.5 -35t33 -22.5t46 -12t51.5 -3.5q71 1 109 24t38 65l67 -26v0z" />
    <glyph glyph-name="u1085" unicode="&#x1085;" 
d="M-55 645q0 -46 -41 -75t-124 -29q-44 0 -75 9t-51.5 24t-30 35.5t-9.5 43.5q0 24 14.5 44.5t38.5 28.5q-24 8 -38.5 28t-14.5 45q0 47 39.5 79.5t126.5 32.5q81 0 123 -29t42 -75l-52 -20q0 30 -29 49.5t-84 19.5q-20 0 -40 -2.5t-36 -9.5t-25.5 -18t-9.5 -27
q0 -12 8.5 -21t23 -15t33 -9t38.5 -3v-49q-19 0 -37.5 -3.5t-33 -9.5t-23.5 -15t-9 -21q0 -17 9.5 -27.5t25.5 -17.5t36 -9.5t40 -2.5q53 0 83 19.5t30 50.5l52 -21v0z" />
    <glyph glyph-name="u1086" unicode="&#x1086;" 
d="M-58 787q0 -47 -14 -87.5t-35 -72t-46.5 -54.5t-48.5 -36l-17 13q16 10 30.5 26t26.5 34t20 36.5t12 35.5q-10 -3 -21 -4t-22 -1q-23 0 -44 9.5t-36.5 25.5t-24.5 37.5t-9 45.5q0 25 9 46t24.5 36.5t36.5 24.5t44 9q24 0 44.5 -9t36.5 -24.5t25 -36.5t9 -46v-8zM-108 796
q0 23 -18 43t-47 20t-46.5 -20t-17.5 -43q0 -11 4.5 -23.5t13 -22.5t20 -16.5t26.5 -6.5q30 0 47.5 21.5t17.5 47.5z" />
    <glyph glyph-name="u1087" unicode="&#x1087;" horiz-adv-x="280" 
d="M227 78q0 -35 -11.5 -66t-28 -55t-35 -40.5t-33.5 -23.5l-12 10q22 15 40.5 44.5t23.5 55.5q-15 -6 -31 -6q-18 0 -33.5 7t-27.5 19t-19 28t-7 34t7 33.5t19 27.5t27.5 18.5t33.5 6.5q17 0 33 -6.5t28 -18.5t19 -27.5t7 -33.5v-7zM186 85q0 17 -13 31t-33 14
q-21 0 -33.5 -14t-12.5 -31t12.5 -32.5t33.5 -15.5t33.5 14t12.5 34z" />
    <glyph glyph-name="u1088" unicode="&#x1088;" horiz-adv-x="280" 
d="M227 75q0 -33 -11.5 -63.5t-28 -55t-35 -41t-33.5 -22.5l-12 10q12 7 22.5 19t18.5 25.5t14 28t9 27.5q-15 -6 -31 -6q-17 0 -33 7t-28 19t-19 28t-7 34t7 33.5t19 27.5t28 18.5t33 6.5t33 -7t28 -19t19 -28.5t7 -35.5v-6zM186 85q0 17 -13 31t-33 14q-21 0 -33.5 -14
t-12.5 -31q0 -16 12.5 -32t33.5 -16q20 0 33 15.5t13 32.5zM227 375q0 -18 -7 -34t-19 -28t-28 -19t-33 -7t-33 7t-28 19t-19 28t-7 34t7 33.5t19 27t28 18.5t33 7t33 -7t28 -18.5t19 -27t7 -33.5zM186 375q0 16 -13 30.5t-33 14.5q-21 0 -33.5 -14.5t-12.5 -30.5
q0 -17 12.5 -32.5t33.5 -15.5q20 0 33 15.5t13 32.5z" />
    <glyph glyph-name="u1089" unicode="&#x1089;" horiz-adv-x="280" 
d="M227 84q0 -18 -7 -34t-19 -27.5t-28 -18.5t-33 -7q-18 0 -33.5 7t-27.5 18.5t-19 27.5t-7 34t7 33.5t19 27.5t27.5 18.5t33.5 6.5q17 0 33 -6.5t28 -18.5t19 -27.5t7 -33.5zM186 84q0 17 -13 31t-33 14q-21 0 -33.5 -14t-12.5 -31t12.5 -32t33.5 -15q20 0 33 15t13 32z
" />
    <glyph glyph-name="u108A" unicode="&#x108a;" horiz-adv-x="389" 
d="M333 396q-7 -15 -23.5 -33.5t-40.5 -34.5t-54.5 -27.5t-65.5 -11.5h-7q-18 0 -34 7t-27.5 18.5t-18.5 27t-7 33.5q0 17 7 32.5t18.5 27.5t27.5 19t34 7t33.5 -7t27.5 -19t19 -27.5t7 -32.5q0 -18 -6 -31q13 2 27.5 8t28 14.5t25 19t19.5 22.5zM189 375q0 20 -15 32.5
t-32 12.5q-18 0 -32 -12.5t-14 -32.5t14 -33.5t32 -13.5q17 0 32 13.5t15 33.5zM333 105q-7 -15 -23.5 -33.5t-40.5 -35t-55 -28t-66 -11.5h-6q-18 0 -34 7t-27.5 19t-18.5 27.5t-7 33.5t7 33.5t18.5 27.5t27.5 19t34 7t33.5 -7t27.5 -19t19 -27.5t7 -33.5q0 -16 -6 -31
q13 3 27.5 9t28 14t25 18.5t19.5 22.5zM189 84q0 20 -15 32.5t-32 12.5q-18 0 -32 -12.5t-14 -32.5t14 -33t32 -13q17 0 32 13t15 33z" />
    <glyph glyph-name="u108B" unicode="&#x108b;" horiz-adv-x="282" 
d="M228 226q0 -18 -7 -34t-19 -28t-27.5 -19t-33.5 -7q-17 0 -33 7t-28 19t-19 28t-7 34t7 33.5t19 27.5t28 19t33 7q18 0 33.5 -7t27.5 -19t19 -27.5t7 -33.5zM187 226q0 16 -13 30.5t-33 14.5t-33 -14.5t-13 -30.5q0 -17 13 -32t33 -15t33 15t13 32z" />
    <glyph glyph-name="u108C" unicode="&#x108c;" horiz-adv-x="510" 
d="M228 226q0 -18 -7 -34t-19 -28t-27.5 -19t-33.5 -7q-17 0 -33 7t-28 19t-19 28t-7 34t7 33.5t19 27.5t28 19t33 7q18 0 33.5 -7t27.5 -19t19 -27.5t7 -33.5zM187 226q0 16 -13 30.5t-33 14.5t-33 -14.5t-13 -30.5q0 -17 13 -32t33 -15t33 15t13 32zM455 226q0 -18 -7 -34
t-19 -28t-27.5 -19t-33.5 -7q-17 0 -33 7t-28 19t-19 28t-7 34t7 33.5t19 27.5t28 19t33 7q18 0 33.5 -7t27.5 -19t19 -27.5t7 -33.5zM414 226q0 16 -13 30.5t-33 14.5t-33 -14.5t-13 -30.5q0 -17 13 -32t33 -15t33 15t13 32z" />
    <glyph glyph-name="u108D" unicode="&#x108d;" horiz-adv-x="2" 
d="M-520 -156v72h455v-72h-455z" />
    <glyph glyph-name="u108E" unicode="&#x108e;" horiz-adv-x="581" 
d="M525 222q0 -50 -18.5 -93.5t-50.5 -76t-74.5 -51.5t-91.5 -19q-50 0 -92.5 19t-74.5 51.5t-50 76t-18 93.5q0 49 18.5 92.5t50 76t74 51.5t91.5 19q50 0 93 -19t75 -51.5t50 -76t18 -92.5zM453 218q0 24 -9 47q-37 -33 -78 -46t-76 -13q-38 0 -77 12.5t-77 46.5
q-9 -24 -9 -47q0 -30 11.5 -59t33 -52.5t51.5 -38t66 -14.5q37 0 67.5 14.5t52 38t33 52.5t11.5 59zM418 325q-23 30 -56.5 47.5t-71.5 17.5q-39 0 -72 -18t-56 -47q33 -32 67.5 -43t60.5 -11t60 11t68 43z" />
    <glyph glyph-name="u108F" unicode="&#x108f;" horiz-adv-x="280" 
d="M227 85q0 -18 -7 -34t-19 -28t-28 -19t-33 -7q-16 0 -31 6q5 -26 23 -55.5t41 -44.5l-12 -10q-15 7 -34 23t-35.5 40t-27.5 54t-11 65v6q0 19 7 35.5t19 28.5t27.5 19t33.5 7q17 0 33 -6.5t28 -18.5t19 -27.5t7 -33.5zM185 85q0 17 -12 31t-33 14t-33.5 -14t-12.5 -31
t12.5 -32.5t33.5 -15.5t33 15.5t12 32.5zM227 375q0 -18 -7 -34t-19 -28t-28 -19t-33 -7q-18 0 -33.5 7t-27.5 19t-19 28t-7 34t7 33.5t19 27.5t27.5 18.5t33.5 6.5q17 0 33 -6.5t28 -18.5t19 -27.5t7 -33.5zM185 375q0 17 -12 31t-33 14t-33.5 -14t-12.5 -31t12.5 -32.5
t33.5 -15.5t33 15.5t12 32.5z" />
    <glyph glyph-name="u1090" unicode="&#x1090;" horiz-adv-x="581" 
d="M526 -221q0 -44 -15.5 -86t-45.5 -75.5t-74 -54t-101 -20.5q-56 0 -100 20.5t-74 54t-45.5 75.5t-15.5 86v443q0 43 15.5 85.5t45.5 76.5t74 55.5t100 21.5q57 0 101 -21.5t74 -55.5t45.5 -76.5t15.5 -85.5v-443zM454 222q0 36 -12.5 66.5t-34.5 53t-52 35.5t-65 13
t-65 -13t-52 -35.5t-34.5 -53t-12.5 -66.5v-440q0 -37 12.5 -68t34.5 -53t52 -34t65 -12t65 12t52 34t34.5 53t12.5 68v440z" />
    <glyph glyph-name="u1091" unicode="&#x1091;" horiz-adv-x="616" 
d="M272 -457v802l-189 -91l-28 65l289 138v-802l189 91l28 -64z" />
    <glyph glyph-name="u1092" unicode="&#x1092;" horiz-adv-x="589" 
d="M534 222q0 -71 -30 -124t-75.5 -96t-98.5 -81t-98.5 -80t-75.5 -92.5t-30 -118.5v-87h-71v82q0 81 30 141t75.5 106.5t98 85t98 77.5t75.5 83.5t30 103.5q0 32 -13.5 62.5t-36 54t-52.5 38t-63 14.5q-34 0 -65 -13t-54.5 -39t-37.5 -65.5t-14 -91.5h-71v279h70v-77
q26 30 70 53.5t102 23.5q49 0 92.5 -19t75.5 -51.5t50.5 -76t18.5 -92.5z" />
    <glyph glyph-name="u1093" unicode="&#x1093;" horiz-adv-x="664" 
d="M536 -457v228q0 36 -12.5 66.5t-34.5 53t-52 35.5t-65 13q-4 0 -16.5 -1t-29 -5.5t-35 -12.5t-36.5 -23q-3 -8 -12.5 -35.5l-22.5 -64l-27.5 -77.5l-27.5 -77.5l-22.5 -64t-12.5 -35.5h-75l325 912h72l-163 -461q20 8 42.5 12.5t40.5 4.5q57 0 101 -21.5t74 -55.5
t45.5 -77t15.5 -86l1 -228h-73z" />
    <glyph glyph-name="u1094" unicode="&#x1094;" horiz-adv-x="735" 
d="M391 -457v697l-16.5 -44l-30.5 -81l-39.5 -106l-44 -118l-44.5 -118l-40 -106l-30 -81t-16 -43h-75l341 912h67v-800l189 91l28 -64z" />
    <glyph glyph-name="u1095" unicode="&#x1095;" horiz-adv-x="652" 
d="M534 -49v-150q0 -58 -19 -105.5t-52 -81.5t-77 -52.5t-94 -18.5t-93 19t-75 51.5t-50.5 76t-18.5 92.5t17.5 93t53 76t89 51t125.5 19h122v440h72v-440h63v-70h-63zM462 -49h-122q-54 0 -94 -13t-66.5 -35.5t-39.5 -53.5t-13 -67q0 -34 13.5 -64.5t36 -54t52.5 -37
t63 -13.5q34 0 65 13.5t54.5 38.5t37 59.5t13.5 76.5v150z" />
    <glyph glyph-name="u1096" unicode="&#x1096;" horiz-adv-x="652" 
d="M534 -18v-439h-72v439h-122q-72 0 -125.5 19t-89 51.5t-53 76t-17.5 93.5q0 49 18.5 92.5t51 76t75.5 51.5t92 19q50 0 94 -18.5t77 -52.5t52 -81.5t19 -105.5v-150h62v-71h-62zM462 203q0 42 -13.5 76.5t-37 59t-54.5 38.5t-65 14q-33 0 -63 -13t-52.5 -36t-36 -54
t-13.5 -66q0 -37 13 -68t39.5 -53.5t66.5 -35t94 -12.5h122v150z" />
    <glyph glyph-name="u1097" unicode="&#x1097;" horiz-adv-x="533" 
d="M99 -457l241 830h-285v71h379l-241 -829h285v-72h-379z" />
    <glyph glyph-name="u1098" unicode="&#x1098;" horiz-adv-x="589" 
d="M530 -209q0 -48 -17.5 -93t-48.5 -79.5t-74.5 -55t-94.5 -20.5q-50 0 -92.5 20.5t-74.5 55t-50 79.5t-18 93q0 31 8 62.5t23.5 59.5t39 52t55.5 40q-21 13 -44 32.5t-42.5 48t-32 66.5t-12.5 87q0 78 24.5 130t70.5 91l42 -60q-32 -32 -48.5 -68.5t-16.5 -92.5
q0 -39 12.5 -74t35 -61.5t53.5 -42t67 -15.5t66.5 15.5t53 42t35 61.5t12.5 74q0 56 -17 92.5t-48 68.5l42 60q48 -40 71.5 -91.5t23.5 -129.5q0 -49 -13 -87.5t-33 -67.5t-43 -48.5t-44 -31.5q33 -16 57 -40t40 -52t24 -59t8 -62zM458 -209q0 36 -14 68.5t-37 57.5
t-52.5 40t-60.5 15t-60.5 -15t-52 -40t-36.5 -58t-14 -68q0 -39 13.5 -71.5t36 -55.5t52 -36t61.5 -13t62 13t52.5 36.5t36 56t13.5 70.5z" />
    <glyph glyph-name="u1099" unicode="&#x1099;" horiz-adv-x="589" 
d="M534 -236q0 -78 -23.5 -129.5t-71.5 -91.5l-42 60q31 32 48 68.5t17 92.5q0 39 -12.5 74t-35 61.5t-53 42t-66.5 15.5t-67 -15.5t-53.5 -42t-35 -61.5t-12.5 -74q0 -56 16.5 -92.5t48.5 -68.5l-42 -60q-46 39 -70.5 91t-24.5 130q0 49 12.5 86.5t32 66t42.5 48.5t44 33
q-32 16 -55.5 40t-39 52t-23.5 59.5t-8 62.5q0 48 18 93t50 79.5t74.5 55t92.5 20.5q51 0 94.5 -20.5t74.5 -55t48.5 -79.5t17.5 -93q0 -31 -8 -62t-24 -59t-40 -52t-57 -40q21 -12 44 -31.5t43 -48.5t33 -67.5t13 -87.5zM458 212q0 38 -13.5 70.5t-36 56t-52.5 36.5t-62 13
t-61.5 -13t-52 -36t-36 -55.5t-13.5 -71.5q0 -35 14 -68t36.5 -58t52 -40t60.5 -15t60.5 15t52.5 40t37 57.5t14 68.5z" />
    <glyph glyph-name="u109A" unicode="&#x109a;" horiz-adv-x="280" 
d="M227 375q0 -18 -7 -34t-19 -28t-28 -19t-33 -7t-33 7t-28 19t-19 28t-7 34t7 33.5t19 27t28 18.5t33 7t33 -7t28 -18.5t19 -27t7 -33.5zM186 375q0 16 -13 30t-33 14q-21 0 -33.5 -14t-12.5 -30q0 -17 12.5 -32.5t33.5 -15.5q20 0 33 15t13 33z" />
    <glyph glyph-name="u109B" unicode="&#x109b;" horiz-adv-x="280" 
d="M227 631q0 -35 -10.5 -65.5t-26 -55t-34.5 -42t-37 -26.5l-12 11q23 14 41 43.5t23 55.5q-8 -3 -15.5 -4t-15.5 -1q-18 0 -33.5 7t-27.5 18.5t-19 27.5t-7 34t7 33.5t19 27.5t27.5 18.5t33.5 6.5q17 0 33 -6.5t28 -18.5t19 -28.5t7 -35.5zM186 634q0 17 -13 31t-33 14
q-21 0 -33.5 -14t-12.5 -31t12.5 -32.5t33.5 -15.5q20 0 33 15.5t13 32.5z" />
    <glyph glyph-name="u109C" unicode="&#x109c;" horiz-adv-x="389" 
d="M323 342q-15 23 -44.5 40.5t-55.5 22.5q6 -14 6 -31t-7 -32.5t-19 -27.5t-27.5 -19t-33.5 -7q-37 0 -62 25.5t-25 60.5q0 36 25 61.5t62 25.5h5q36 0 66.5 -11t55 -27.5t41 -35.5t23.5 -34zM189 374q0 20 -14.5 33.5t-32.5 13.5t-32 -13.5t-14 -33.5q0 -19 14 -31.5
t32 -12.5q17 0 32 12.5t15 31.5zM323 51q-15 23 -44.5 41t-55.5 23q6 -15 6 -31q0 -17 -7 -33t-19 -28t-27.5 -19t-33.5 -7q-37 0 -62 26t-25 61q0 18 6.5 33.5t18.5 27t28 18.5t34 7h5q35 0 66 -11t55.5 -27t41 -35t23.5 -34zM189 84q0 20 -15 33.5t-32 13.5
q-18 0 -32 -13.5t-14 -33.5t14 -32.5t32 -12.5q17 0 32 12.5t15 32.5z" />
    <glyph glyph-name="u109D" unicode="&#x109d;" horiz-adv-x="55" 
d="M-155 347v275q0 22 -16.5 41.5t-44.5 19.5q-14 0 -28.5 -7t-25.5 -21l-38 34q20 28 46 38.5t48 10.5q23 0 44 -9t36.5 -24t24.5 -35.5t9 -43.5v-279h-55z" />
    <glyph glyph-name="u109E" unicode="&#x109e;" horiz-adv-x="301" 
d="M153 -457v829h-126v72h193v-829h126v-72h-193zM236 634q0 -18 -7 -34t-19 -27.5t-27.5 -18.5t-33.5 -7q-17 0 -33 7t-28 18.5t-19 27.5t-7 34t7 34t19 27.5t28 18.5t33 7q18 0 33.5 -7t27.5 -18.5t19 -27.5t7 -34zM195 634q0 16 -13 30.5t-33 14.5t-33 -14.5t-13 -30.5
q0 -17 13 -32t33 -15t33 15t13 32z" />
    <glyph glyph-name="u109F" unicode="&#x109f;" horiz-adv-x="803" 
d="M738 -316q0 -32 -10.5 -58t-28.5 -44.5t-41.5 -28.5t-48.5 -10q-26 0 -49.5 10t-41 28.5t-27.5 44.5t-10 58v496q0 51 -16 90t-42.5 65.5t-60 40.5t-68.5 14q-34 0 -64.5 -13.5t-53 -37.5t-36 -57t-13.5 -72q0 -54 23 -93.5t61 -65.5l-34 -65q-54 30 -88 84.5t-34 138.5
q0 54 18 100t50.5 79.5t76 52.5t94.5 19q52 0 99 -18.5t82 -54t56 -87t21 -116.5v-500q0 -39 18 -54t39 -15q20 0 38.5 15t18.5 54v703q0 43 -18.5 73.5t-45.5 54t-59.5 44t-59.5 44t-45.5 53t-18.5 72.5q0 40 14.5 73.5t40 58t58.5 38t71 13.5q30 0 54 -8t42 -21.5
t30 -30.5t18 -35l-63 -34q-8 26 -31 41.5t-50 15.5q-50 0 -81.5 -31.5t-31.5 -79.5q0 -30 18.5 -51.5t46 -41.5l59.5 -41.5t59.5 -49.5t46 -66t18.5 -91v-703v0z" />
    <glyph glyph-name="u200B" unicode="&#x200b;" 
 />
    <glyph glyph-name="u200C" unicode="&#x200c;" 
 />
    <glyph glyph-name="u200D" unicode="&#x200d;" 
 />
    <glyph glyph-name="quotedblleft" unicode="&#x201c;" horiz-adv-x="483" 
d="M205 673q0 -18 -6.5 -33.5t-18 -27t-25.5 -18t-29 -6.5q-33 0 -57 23.5t-24 61.5q0 36 9.5 69.5t25 61t35 47.5t38.5 29l17 -12q-28 -20 -47 -56t-19 -78q0 -11 0.5 -16.5t2.5 -9.5q5 3 14 7t19.5 8t21 6.5t16.5 2.5q16 -2 21.5 -20.5t5.5 -38.5zM443 673q0 -18 -7 -33.5
t-18 -27t-25 -18t-29 -6.5q-34 0 -57.5 23.5t-23.5 61.5q0 36 10 69.5t25.5 61t35 47.5t38.5 29l16 -12q-28 -20 -47 -56t-19 -78q0 -11 0.5 -16.5t2.5 -9.5q4 3 13.5 7t20 8t20.5 6.5t17 2.5q17 -2 22 -20.5t5 -38.5z" />
    <glyph glyph-name="quotedblright" unicode="&#x201d;" horiz-adv-x="483" 
d="M438 795q0 -36 -9.5 -69.5t-25 -61t-35 -47.5t-38.5 -29l-16 12q27 20 46 55.5t19 78.5q0 12 -0.5 17t-1.5 9q-5 -3 -14.5 -7.5t-20 -8t-20.5 -6.5t-17 -3q-8 1 -13 7t-8 14.5t-4.5 18.5t-1.5 20q0 18 6.5 33.5t18 27t26 18t29.5 6.5q33 0 56.5 -24t23.5 -61zM200 795
q0 -36 -10 -69.5t-25.5 -61t-34.5 -47.5t-38 -29l-17 12q27 20 46.5 55.5t19.5 78.5q0 12 -0.5 17t-2.5 9q-5 -3 -14 -7.5t-19.5 -8t-20.5 -6.5t-17 -3q-8 1 -13 7t-8 14.5t-4.5 18.5t-1.5 20q0 18 6.5 33.5t18 27t26 18t29.5 6.5q33 0 56.5 -24t23.5 -61z" />
    <glyph glyph-name="quoteleft" unicode="&#x2018;" horiz-adv-x="245" 
d="M205 673q0 -18 -6.5 -33.5t-18 -27t-25.5 -18t-29 -6.5q-33 0 -57 23.5t-24 61.5q0 36 9.5 69.5t25 61t35 47.5t38.5 29l17 -13q-28 -20 -47 -55.5t-19 -77.5q0 -11 0.5 -16.5t2.5 -9.5q5 3 14 7t19.5 8t21 6.5t16.5 2.5q16 -2 21.5 -21t5.5 -38z" />
    <glyph glyph-name="quoteright" unicode="&#x2019;" horiz-adv-x="246" 
d="M200 795q0 -36 -10 -69.5t-25.5 -61t-34.5 -47.5t-38 -29l-17 12q27 20 46.5 55.5t19.5 78.5q0 12 -0.5 17t-2.5 9q-5 -3 -14 -7.5t-19.5 -8t-20.5 -6.5t-17 -3q-8 1 -13 7t-8 14.5t-4.5 18.5t-1.5 20q0 18 6.5 33.5t18 27t26 18t29.5 6.5q33 0 56.5 -24t23.5 -61z" />
    <glyph glyph-name="endash" unicode="&#x2013;" horiz-adv-x="470" 
d="M0 185v72h470v-72h-470z" />
    <glyph glyph-name="emdash" unicode="&#x2014;" horiz-adv-x="833" 
d="M0 185v72h833v-72h-833z" />
    <glyph glyph-name="u2060" unicode="&#x2060;" 
 />
    <glyph glyph-name="notequal" unicode="&#x2260;" horiz-adv-x="587" 
d="M231 99l-135 -152l-51 50l89 102h-83v72h147l91 102h-238v72h301l125 141l54 -50l-81 -91h91v-72h-156l-90 -102h246v-72h-310z" />
    <glyph glyph-name="circledash" unicode="&#x25cc;" horiz-adv-x="642" 
d="M586 231q0 -24 -24 -24t-24 24t24 24t24 -24zM566 323q0 -24 -22 -24q-24 0 -24 24q0 23 24 23q22 0 22 -23zM515 400q0 -24 -24 -24q-25 0 -25 24q0 25 25 25q24 0 24 -25zM436 454q0 -25 -24 -25q-23 0 -23 25q0 24 23 24q24 0 24 -24zM344 472q0 -25 -23 -25
q-24 0 -24 25q0 24 24 24q23 0 23 -24zM253 454q0 -25 -24 -25q-25 0 -25 25q0 24 25 24q24 0 24 -24zM174 400q0 -24 -24 -24t-24 24q0 25 24 25t24 -25zM121 323q0 -24 -23 -24q-24 0 -24 24q0 23 24 23q23 0 23 -23zM103 231q0 -24 -24 -24q-22 0 -25 24q3 24 25 24
q24 0 24 -24zM121 138q0 -24 -23 -24q-24 0 -24 24q0 25 24 25q23 0 23 -25zM174 60q0 -25 -24 -25t-24 25q0 24 24 24t24 -24zM253 8q0 -23 -24 -23q-25 0 -25 23q0 24 25 24q24 0 24 -24zM344 -10q0 -23 -23 -23q-24 0 -24 23t24 23q23 0 23 -23zM436 8q0 -23 -24 -23
q-23 0 -23 23q0 24 23 24q24 0 24 -24zM515 60q0 -25 -24 -25q-25 0 -25 25q0 24 25 24q24 0 24 -24zM566 138q0 -24 -22 -24q-24 0 -24 24q0 25 24 25q22 0 22 -25z" />
    <glyph glyph-name="u1700" unicode="&#x1700;" horiz-adv-x="642" 
d="M586 231q0 -24 -24 -24t-24 24t24 24t24 -24zM566 323q0 -24 -22 -24q-24 0 -24 24q0 23 24 23q22 0 22 -23zM515 400q0 -24 -24 -24q-25 0 -25 24q0 25 25 25q24 0 24 -25zM436 454q0 -25 -24 -25q-23 0 -23 25q0 24 23 24q24 0 24 -24zM344 472q0 -25 -23 -25
q-24 0 -24 25q0 24 24 24q23 0 23 -24zM253 454q0 -25 -24 -25q-25 0 -25 25q0 24 25 24q24 0 24 -24zM174 400q0 -24 -24 -24t-24 24q0 25 24 25t24 -25zM121 323q0 -24 -23 -24q-24 0 -24 24q0 23 24 23q23 0 23 -23zM103 231q0 -24 -24 -24q-22 0 -25 24q3 24 25 24
q24 0 24 -24zM121 138q0 -24 -23 -24q-24 0 -24 24q0 25 24 25q23 0 23 -25zM174 60q0 -25 -24 -25t-24 25q0 24 24 24t24 -24zM253 8q0 -23 -24 -23q-25 0 -25 23q0 24 25 24q24 0 24 -24zM344 -10q0 -23 -23 -23q-24 0 -24 23t24 23q23 0 23 -23zM436 8q0 -23 -24 -23
q-23 0 -23 23q0 24 23 24q24 0 24 -24zM515 60q0 -25 -24 -25q-25 0 -25 25q0 24 25 24q24 0 24 -24zM566 138q0 -24 -22 -24q-24 0 -24 24q0 25 24 25q22 0 22 -25z" />
    <glyph glyph-name="uA92E" unicode="&#xa92e;" horiz-adv-x="548" 
d="M492 160q-36 21 -65.5 35t-55.5 21.5t-49.5 10.5t-47.5 3q-44 0 -96 -13.5t-123 -57.5v55q48 35 102.5 59.5t116.5 24.5q61 0 117.5 -25t100.5 -59v-54v0z" />
    <glyph glyph-name="uAA60" unicode="&#xaa60;" horiz-adv-x="946" 
d="M891 222q0 -53 -20 -97t-53.5 -75.5t-77.5 -49.5t-92 -18q-26 0 -51.5 5.5t-48.5 18.5q10 68 37 121.5t86 91.5q34 22 65 31t70 8q-3 27 -16.5 51t-34.5 42t-47.5 28.5t-56.5 10.5q-45 0 -81 -18t-64 -43q28 -54 28 -124q0 -83 -24.5 -134.5t-70.5 -88.5l-42 60
q32 32 48.5 68.5t16.5 93.5q0 39 -13 72.5t-35.5 58t-53 39t-65.5 14.5q-34 0 -64.5 -13.5t-53.5 -38t-36.5 -58.5t-13.5 -74q0 -57 16.5 -93.5t48.5 -68.5l-42 -60q-46 38 -70.5 90t-24.5 132q0 55 18.5 101.5t51 81t76.5 54t94 19.5q31 0 56.5 -6.5t46 -16.5t37 -23.5
t30.5 -26.5q30 29 74.5 51.5t111.5 22.5q49 0 92.5 -19t76.5 -51t52 -76t19 -93zM811 194q-34 4 -59.5 -3.5t-44.5 -19.5q-36 -21 -54 -49.5t-29 -64.5q33 -5 64 3t56.5 26t43 45.5t23.5 62.5z" />
    <glyph glyph-name="uAA60.med" 
d="M-55 -272q0 -41 -16 -75.5t-42 -59t-60.5 -38.5t-71.5 -14q-19 0 -39 4t-39 14q8 53 29 95t67 72q27 17 51 24.5t55 5.5q-2 21 -12.5 39.5t-27 33t-37.5 22.5t-44 8q-38 0 -66.5 -14.5t-46.5 -33.5q11 -20 16.5 -43t5.5 -54q0 -64 -19.5 -104t-54.5 -69l-33 47
q24 24 37 52.5t13 73.5q0 30 -10 56t-28 45.5t-41.5 31t-50.5 11.5t-51 -11t-41.5 -30t-28 -45.5t-10.5 -57.5q0 -35 10 -62q13 13 31 13q26 0 44.5 -18t18.5 -44q0 -25 -18.5 -43.5t-44.5 -18.5q-24 0 -42.5 16t-30.5 40.5t-18 55.5t-6 61q0 43 14.5 79.5t40 63t59.5 41.5
t73 15q49 0 78.5 -16.5t54.5 -39.5q26 25 59.5 41t85.5 16q38 0 72 -14.5t59.5 -40t40.5 -59t15 -72.5zM-117 -294q-27 3 -47 -2.5t-35 -15.5q-29 -16 -42 -38t-22 -51q25 -3 49.5 3t44.5 20t33.5 35t18.5 49z" />
    <glyph glyph-name="uAA60.med.kham" 
d="M-55 -272q0 -41 -16 -75.5t-42 -59t-60.5 -38.5t-71.5 -14q-19 0 -39 4t-39 14q8 53 29 95t67 72q27 17 51 24.5t55 5.5q-2 21 -12.5 39.5t-27 33t-37.5 22.5t-44 8q-38 0 -66.5 -14.5t-46.5 -33.5q11 -20 16.5 -43t5.5 -54q0 -64 -19.5 -104t-54.5 -69l-33 47
q24 24 37 52.5t13 73.5q0 30 -10 56t-28 45.5t-41.5 31t-50.5 11.5t-51 -11t-41.5 -30t-28 -45.5t-10.5 -57.5q0 -35 10 -62q13 13 31 13q26 0 44.5 -18t18.5 -44q0 -25 -18.5 -43.5t-44.5 -18.5q-24 0 -42.5 16t-30.5 40.5t-18 55.5t-6 61q0 43 14.5 79.5t40 63t59.5 41.5
t73 15q49 0 78.5 -16.5t54.5 -39.5q26 25 59.5 41t85.5 16q38 0 72 -14.5t59.5 -40t40.5 -59t15 -72.5zM-117 -294q-27 3 -47 -2.5t-35 -15.5q-29 -16 -42 -38t-22 -51q25 -3 49.5 3t44.5 20t33.5 35t18.5 49z" />
    <glyph glyph-name="uAA61" unicode="&#xaa61;" horiz-adv-x="984" 
d="M929 222q0 -49 -18.5 -92.5t-50 -76.5t-75 -52t-92.5 -19q-58 0 -105.5 26t-79.5 70q-11 -22 -25.5 -46t-46.5 -50l-42 60q22 22 43.5 62t21.5 94q0 42 -13 77t-35.5 60.5t-53 40t-66.5 14.5q-42 0 -72 -14t-49.5 -33t-29 -37.5t-9.5 -28.5q0 -21 10 -34.5t25 -24t32 -20
t32 -22t25 -29.5t10 -42q0 -30 -9 -52.5t-25 -37.5t-36.5 -22.5t-42.5 -7.5q-13 0 -27.5 4.5t-27.5 12t-23.5 18t-14.5 21.5l57 35q2 -5 12 -14.5t24 -9.5q17 0 31.5 12t14.5 41q0 13 -10.5 22t-25.5 16.5l-33.5 17t-33.5 24t-25.5 36.5t-10.5 56q0 31 16.5 63.5t46.5 59.5
t73 44.5t96 17.5q66 0 118.5 -32.5t83.5 -86.5q29 54 81.5 86t119.5 32q49 0 92 -19t74.5 -51.5t50 -76t18.5 -92.5zM857 222q0 34 -13 64.5t-35 53.5t-52 36.5t-64 13.5t-63.5 -13.5t-51.5 -36.5t-34.5 -53.5t-12.5 -64.5q0 -35 13 -65.5t35 -53t51.5 -36t63.5 -13.5
t64 13.5t52 36t34.5 53t12.5 65.5z" />
    <glyph glyph-name="uAA62" unicode="&#xaa62;" horiz-adv-x="648" 
d="M592 221q0 -49 -12.5 -92.5t-34.5 -76t-53 -51.5t-67 -19q-32 0 -55.5 14.5t-42 36t-32.5 46.5t-24.5 46.5t-20 36t-18.5 14.5t-22.5 -19.5t-28.5 -47l-30.5 -58.5t-28.5 -54h-67v447h69v-303q20 37 36 59t29 32.5t23.5 13.5t19.5 3q22 0 39.5 -14.5t32.5 -36t28.5 -47
t27.5 -47t29.5 -36t35.5 -14.5q21 0 38 13.5t30 36t20 53t7 64.5q0 47 -12.5 79.5t-32 52t-43.5 28t-46 8.5q-8 0 -17.5 -2t-17.5 -8l-29 64q13 10 30.5 14t33.5 4q49 0 87 -19t64.5 -51.5t40.5 -76.5t14 -93z" />
    <glyph glyph-name="uAA63" unicode="&#xaa63;" horiz-adv-x="986" 
d="M931 222q0 -50 -18.5 -93.5t-50 -76t-74 -51.5t-90.5 -19q-61 0 -112 29t-83 78q-17 -35 -42.5 -61t-51.5 -46q-44 35 -75 88.5t-31 119.5q0 53 20 94t58 75q-19 14 -41 21.5t-48 7.5q-43 0 -74 -13t-51.5 -30.5t-30 -36.5t-9.5 -31q0 -21 9.5 -34.5t24.5 -24t31.5 -20
t31.5 -22t24.5 -29.5t9.5 -42q0 -60 -32.5 -90t-77.5 -30q-13 0 -27.5 4.5t-27.5 12t-23.5 18t-14.5 21.5l57 35q2 -5 12 -14.5t24 -9.5q15 0 29 12t14 41q0 13 -10 22t-25 16.5l-33 17t-33 24t-25 36.5t-10 56q0 29 16.5 61.5t47 59.5t74.5 44.5t99 17.5q65 0 118 -31.5
t85 -85.5q30 53 82 85.5t118 32.5q50 0 93 -19t75 -51.5t50 -76t18 -92.5zM859 222q0 34 -12.5 64.5t-34.5 53.5t-51.5 36.5t-62.5 13.5q-35 0 -65 -13.5t-52.5 -36.5t-35 -53.5t-12.5 -64.5q0 -35 13 -66t35 -53.5t51.5 -35.5t62.5 -13q34 0 64 13.5t52 36t35 53t13 65.5z
M462 217q0 24 -9 50t-23 46q-29 -23 -45.5 -51.5t-16.5 -70.5q0 -26 7.5 -54.5t27.5 -57.5q31 29 45 60.5t14 77.5z" />
    <glyph glyph-name="uAA64" unicode="&#xaa64;" horiz-adv-x="988" 
d="M932 222q0 -50 -18.5 -93.5t-50 -76t-74 -51.5t-90.5 -19q-65 0 -118.5 33t-83.5 88q-29 -55 -81 -87t-121 -32q-50 0 -94 19.5t-76.5 53.5t-51 81t-18.5 102q0 78 24.5 129.5t70.5 90.5l42 -60q-32 -32 -48.5 -68t-16.5 -92q0 -41 13.5 -74.5t36.5 -58.5t53.5 -38.5
t64.5 -13.5q36 0 66.5 14.5t53 39.5t35 58.5t12.5 72.5q0 57 -16.5 93.5t-48.5 68.5l42 59q24 -19 42 -41.5t31 -54.5q32 45 79.5 70.5t104.5 25.5q50 0 93 -19t75 -51.5t50 -76t18 -92.5zM861 222q0 34 -13 64.5t-35 53.5t-51.5 36.5t-62.5 13.5q-35 0 -65.5 -13.5
t-52.5 -36.5t-34.5 -54t-12.5 -66q0 -33 13 -63.5t35 -53t51.5 -36t62.5 -13.5q34 0 64.5 13.5t52.5 36t35 53t13 65.5z" />
    <glyph glyph-name="uAA65" unicode="&#xaa65;" horiz-adv-x="1003" 
d="M948 222q0 -49 -19 -92.5t-51 -76.5t-75 -52t-92 -19q-17 0 -35 3t-35 11l28 66q9 -5 20.5 -6.5t21.5 -1.5q34 0 64.5 13.5t53 36t35.5 53t13 65.5q0 34 -13 64.5t-35.5 53.5t-53 36.5t-64.5 13.5q-42 0 -74.5 -23t-55.5 -55t-35 -65t-12 -53v-471q0 -38 -13 -71
t-36.5 -57t-57 -38t-75.5 -14h-154q-65 0 -96.5 34t-31.5 84v47h72v-30q0 -37 18.5 -50t42.5 -13h150q21 0 40.5 7.5t34.5 22.5t24.5 37t9.5 51v323q-29 -35 -72.5 -54.5t-94.5 -19.5q-50 0 -94 19.5t-76.5 53.5t-51 81t-18.5 103q0 78 24.5 130t70.5 91l42 -60
q-32 -32 -48.5 -68.5t-16.5 -92.5q0 -39 12.5 -73t35 -58.5t53.5 -39t67 -14.5q34 0 64 13t53 37t36.5 57.5t13.5 74.5q0 29 -4 52t-12 42t-20.5 36t-28.5 34l42 60q26 -22 47 -49t32 -62q35 50 84 81t109 31q49 0 92 -19t75 -51.5t51 -76t19 -92.5z" />
    <glyph glyph-name="uAA66" unicode="&#xaa66;" horiz-adv-x="987" 
d="M932 222q0 -49 -19 -92.5t-51 -76.5t-75 -52t-91 -19q-19 0 -37 3t-34 11l28 66q17 -8 43 -8q34 0 64 13.5t52 36t35 53t13 65.5q0 34 -13 64.5t-35 53.5t-52.5 36.5t-64.5 13.5q-39 0 -70.5 -20t-53 -48t-33.5 -58t-13 -51q0 -38 -16.5 -79t-46.5 -74.5t-73 -55.5
t-97 -22q-50 0 -93 19t-75 51.5t-50.5 76t-18.5 93.5q0 49 18.5 92.5t50 76t74 51.5t91.5 19q67 0 121.5 -35t84.5 -92q16 27 37.5 50t47 40t54.5 27t61 10q48 0 91 -19t75.5 -51.5t51.5 -76t19 -92.5zM453 219q0 34 -12.5 65.5t-34 54.5t-51 37t-63.5 14q-35 0 -65 -13.5
t-52 -36.5t-35 -53.5t-13 -64.5q0 -35 12.5 -65.5t34.5 -53t51.5 -36t63.5 -13.5q36 0 66 14t51.5 37t34 52.5t12.5 61.5zM362 222q0 -31 -21 -51.5t-50 -20.5t-50 20.5t-21 51.5q0 30 21 50.5t50 20.5t50 -20.5t21 -50.5z" />
    <glyph glyph-name="uAA67" unicode="&#xaa67;" horiz-adv-x="980" 
d="M925 222q0 -50 -18.5 -93.5t-51 -76t-75 -51.5t-90.5 -19q-65 0 -118 31.5t-82 84.5q-32 -52 -83 -84t-115 -32q-50 0 -93 19t-75 51.5t-50.5 76t-18.5 93.5q0 49 18.5 92.5t50 76t74 51.5t91.5 19q65 0 117 -32t84 -84q29 52 82 84t117 32q48 0 91 -19t75.5 -51.5
t51 -76t18.5 -92.5zM853 222q0 34 -13 64.5t-35 53.5t-51.5 36.5t-63.5 13.5t-63.5 -13.5t-51.5 -36.5t-35 -53.5t-13 -64.5q0 -35 13 -65.5t35 -53t51.5 -36t62.5 -13.5q34 0 64 13.5t52 36t35 53t13 65.5zM453 222q0 34 -12.5 64.5t-34.5 53.5t-51.5 36.5t-62.5 13.5
q-35 0 -65 -13.5t-52 -36.5t-35 -53.5t-13 -64.5q0 -35 12.5 -65.5t34.5 -53t51.5 -36t63.5 -13.5t63.5 13.5t52 36t35.5 53t13 65.5zM362 222q0 -31 -21 -51.5t-50 -20.5t-50 20.5t-21 51.5q0 30 21 50.5t50 20.5t50 -20.5t21 -50.5z" />
    <glyph glyph-name="uAA68" unicode="&#xaa68;" horiz-adv-x="945" 
d="M888 222q0 -53 -20 -97t-53.5 -75.5t-77.5 -49.5t-92 -18q-25 0 -50 5.5t-48 18.5q14 75 40.5 126t79.5 84q34 21 67.5 30.5t71.5 11.5q-5 28 -18.5 52t-34.5 42t-48 28t-57 10q-37 0 -74.5 -17t-71.5 -50q23 -47 23 -101q0 -50 -18.5 -93.5t-50 -76t-74 -51.5t-90.5 -19
q-50 0 -93 19t-75 51.5t-50.5 76t-18.5 93.5q0 49 18.5 92.5t50 76t74 51.5t91.5 19q51 0 95 -20.5t79 -55.5q74 76 185 76q50 0 93.5 -19t76 -51t51.5 -76t19 -93zM811 194q-59 4 -104 -23q-36 -21 -54 -48.5t-30 -65.5q33 -5 64.5 3t57 26.5t43 46t23.5 61.5zM453 222
q0 34 -12.5 64.5t-34.5 53.5t-51.5 36.5t-62.5 13.5q-35 0 -65 -13.5t-52 -36.5t-35 -53.5t-13 -64.5q0 -35 12.5 -65.5t34.5 -53t51.5 -36t63.5 -13.5t63.5 13.5t52 36t35.5 53t13 65.5zM362 222q0 -31 -21 -51.5t-50 -20.5t-50 20.5t-21 51.5q0 30 21 50.5t50 20.5
t50 -20.5t21 -50.5z" />
    <glyph glyph-name="uAA69" unicode="&#xaa69;" horiz-adv-x="980" 
d="M924 222q0 -50 -18.5 -93.5t-50 -76t-74 -51.5t-90.5 -19q-63 0 -117.5 31.5t-83.5 84.5q-30 -53 -83 -84.5t-115 -31.5q-50 0 -93 19t-75 51.5t-50.5 76t-18.5 93.5q0 49 18.5 92.5t50 76t74 51.5t91.5 19q66 0 118 -31.5t83 -84.5q30 53 82 84.5t117 31.5q48 0 91 -19
t75 -51.5t50.5 -76t18.5 -92.5zM853 222q0 34 -12.5 64.5t-34.5 53.5t-51.5 36.5t-63.5 13.5q-32 0 -60 -11.5t-49.5 -31t-35.5 -45.5t-17 -54q38 2 75.5 -5.5t71.5 -27.5q41 -22 65.5 -50t45.5 -75q35 27 50.5 60.5t15.5 71.5zM729 58q-14 35 -33.5 60t-54.5 43
q-50 26 -110 19q7 -29 22.5 -52t37 -39.5t47.5 -25.5t55 -9q11 0 20.5 1t15.5 3zM453 222q0 34 -12.5 64.5t-34.5 53.5t-51.5 36.5t-62.5 13.5q-35 0 -65 -13.5t-52 -36.5t-35 -53.5t-13 -64.5q0 -35 13 -65.5t35 -53t51.5 -36t62.5 -13.5q34 0 63.5 13.5t52 36t35.5 53
t13 65.5zM362 222q0 -31 -21 -51.5t-50 -20.5t-50 20.5t-21 51.5q0 30 21 50.5t50 20.5t50 -20.5t21 -50.5z" />
    <glyph glyph-name="uAA6A" unicode="&#xaa6a;" horiz-adv-x="980" 
d="M924 222q0 -50 -18.5 -93.5t-50 -76t-74 -51.5t-90.5 -19q-65 0 -118.5 31.5t-82.5 84.5q-30 -53 -82.5 -84.5t-115.5 -31.5q-50 0 -93 19t-75 51.5t-50.5 76t-18.5 93.5q0 49 18.5 92.5t50 76t74 51.5t91.5 19q66 0 118 -31.5t83 -84.5q31 53 83 84.5t116 31.5
q48 0 91 -19t75 -51.5t50.5 -76t18.5 -92.5zM853 222q0 34 -12.5 64.5t-34.5 53.5t-51.5 36.5t-63.5 13.5q-32 0 -60 -11.5t-49.5 -31t-35.5 -45.5t-17 -54q40 2 78 -6t69 -27q22 -12 38.5 -25t29 -27.5t23 -32.5t20.5 -40q35 28 50.5 61t15.5 71zM729 58q-13 33 -33 59
t-55 44q-25 14 -53.5 18.5t-56.5 0.5q7 -29 22.5 -52t37 -39.5t47.5 -25.5t55 -9q11 0 20.5 1t15.5 3zM453 222q0 34 -12.5 64.5t-34.5 53.5t-51.5 36.5t-62.5 13.5q-35 0 -65 -13.5t-52 -36.5t-35 -53.5t-13 -64.5q0 -35 13 -65.5t35 -53t51.5 -36t62.5 -13.5
q34 0 63.5 13.5t52 36t35.5 53t13 65.5z" />
    <glyph glyph-name="uAA6B" unicode="&#xaa6b;" horiz-adv-x="711" 
d="M655 204q0 -80 -24.5 -131.5t-70.5 -90.5l-42 60q31 32 48 68.5t17 93.5q0 39 -13 73t-35.5 58.5t-53 38.5t-66.5 14q-28 0 -53 -9.5t-45 -25t-35 -35.5t-22 -42q63 -24 94.5 -67t31.5 -94q0 -43 -20.5 -78.5t-54.5 -55.5q-37 14 -63 37.5t-42.5 52.5t-24 62t-7.5 67
q0 10 1 20t3 21q-59 26 -89 64t-30 93q0 22 6 46h65q-3 -11 -4.5 -23.5t-1.5 -20.5q0 -23 8.5 -39.5t20 -27.5t23.5 -18l20 -12q14 39 37.5 68.5t52.5 49t62 29.5t67 10q50 0 94 -19.5t76.5 -53.5t51 -81t18.5 -102zM323 115q0 36 -22.5 62t-57.5 37q-2 -6 -2 -12.5v-13.5
q0 -16 3.5 -34t11 -36t19 -33.5t26.5 -25.5q8 6 15 20t7 36z" />
    <glyph glyph-name="uAA6C" unicode="&#xaa6c;" horiz-adv-x="999" 
d="M943 221q0 -49 -16.5 -92.5t-45.5 -76t-69.5 -51.5t-88.5 -19q-56 0 -88 16t-49 40t-24.5 51.5l-13.5 51.5t-16 40t-33 16t-33 -16t-16 -40l-13 -51.5t-24.5 -51.5t-49.5 -40t-88 -16q-49 0 -89.5 19t-69.5 51.5t-45 76t-16 92.5t14 93t40 76.5t64.5 51.5t86.5 19
q14 0 29.5 -3.5t26.5 -11.5l-21 -66q-7 5 -16.5 7t-18.5 2q-35 0 -60 -14.5t-41 -38t-24 -54t-8 -61.5q0 -35 10.5 -65.5t30 -53t46.5 -35.5t61 -13q40 0 61 16t32 40t17.5 51.5t18 51.5t33 40t62.5 16t62.5 -16t33 -40t18 -51.5t18 -51.5t32 -40t60.5 -16q34 0 61 13
t46.5 35.5t30 53t10.5 65.5q0 31 -8 61.5t-24 54t-41 38t-59 14.5q-22 0 -35 -9l-21 66q11 8 26.5 11.5t29.5 3.5q48 0 86 -19t64 -51.5t40 -76.5t14 -93z" />
    <glyph glyph-name="uAA6D" unicode="&#xaa6d;" horiz-adv-x="832" 
d="M776 222q0 -50 -18.5 -93.5t-51 -76t-75.5 -51.5t-91 -19q-17 0 -35.5 3t-35.5 11l28 66q10 -5 21 -6.5t22 -1.5q34 0 64 13.5t52 36t35 53t13 65.5q0 34 -12.5 64.5t-34.5 53.5t-52 36.5t-65 13.5q-33 0 -63.5 -15.5t-54.5 -40.5t-40 -55t-20 -60v-494q0 -40 -14 -73.5
t-38 -57.5t-57 -37.5t-71 -13.5h-47q-66 0 -97 34t-31 85v46h72v-30q0 -37 18.5 -50t43.5 -13h44q19 0 37.5 7t33.5 22t24 37t9 52v495q-12 -7 -26.5 -10t-28.5 -3q-21 0 -42 9t-38.5 25t-28 39t-10.5 50q0 29 10 52t26.5 38.5t38 24t44.5 8.5q48 0 81 -29t40 -73
q42 57 92.5 79.5t92.5 22.5q48 0 91 -19t75.5 -51.5t51 -76t18.5 -92.5zM293 337q0 24 -16 41.5t-42 17.5q-25 0 -41.5 -17.5t-16.5 -41.5q0 -25 17.5 -41t40.5 -16q24 0 41 16t17 41z" />
    <glyph glyph-name="uAA6E" unicode="&#xaa6e;" horiz-adv-x="969" 
d="M913 222q0 -50 -17 -93.5t-47.5 -76t-72 -51.5t-90.5 -19q-56 0 -96.5 20t-69 53t-46 76.5t-27.5 90.5q-17 79 -59 123.5t-102 44.5q-58 0 -97.5 -37t-49.5 -95q42 -2 74.5 -11.5t63.5 -31.5q29 -18 49.5 -41t34.5 -49.5t22.5 -56.5t13.5 -62q-23 -14 -48.5 -19t-51.5 -5
q-48 0 -92 18t-77 49.5t-53 75.5t-20 97q0 49 17.5 92.5t48.5 76t73 51.5t92 19t89 -19t68.5 -52t48.5 -76.5t29 -91.5q15 -76 57 -122t108 -46q33 0 61.5 13.5t49.5 36t32.5 53t11.5 65.5q0 34 -11.5 64.5t-32.5 53.5t-49.5 36.5t-61.5 13.5q-27 0 -51 -11l-31 64
q17 10 38.5 14t43.5 4q46 0 87.5 -18.5t72.5 -50.5t49 -75.5t18 -94.5zM318 57q-12 37 -30 65.5t-53 48.5q-24 15 -51.5 21t-53.5 2q5 -32 22 -59.5t42.5 -46.5t57 -27.5t66.5 -3.5z" />
    <glyph glyph-name="uAA6F" unicode="&#xaa6f;" horiz-adv-x="736" 
d="M680 222q0 -50 -18.5 -93.5t-50 -76t-74 -51.5t-90.5 -19q-46 0 -88.5 18.5t-75 50t-52.5 74.5t-20 92l-20.5 29.5l-23.5 33l-23.5 31.5l-19.5 26v-337h-69v447h67l23.5 -30.5l29.5 -38l29.5 -38.5l24.5 -32q13 35 34.5 63t49.5 48t61.5 31t69.5 11q50 0 93 -19t75 -51.5
t50 -76t18 -92.5zM608 222q0 34 -12.5 64.5t-34.5 53.5t-51.5 36.5t-62.5 13.5q-35 0 -65 -13.5t-52.5 -36.5t-35 -53.5t-12.5 -64.5q0 -35 12.5 -65.5t34.5 -53t51.5 -36t63.5 -13.5t64 13.5t52 36t35 53t13 65.5z" />
    <glyph glyph-name="uAA70" unicode="&#xaa70;" horiz-adv-x="554" 
d="M450 756q-29 34 -73.5 59t-99.5 25q-54 0 -98 -23.5t-76 -60.5l-38 43q45 47 101 72t111 25q54 0 110 -25t101 -72zM426 589q-29 38 -67.5 59.5t-81.5 21.5t-82 -21t-68 -60l-37 43q34 45 82.5 69.5t104.5 24.5q54 0 103.5 -24.5t83.5 -69.5z" />
    <glyph glyph-name="uAA71" unicode="&#xaa71;" horiz-adv-x="993" 
d="M938 222q0 -50 -19 -93.5t-51 -76t-75 -51.5t-92 -19q-17 0 -35.5 4t-34.5 10l28 66q9 -3 20 -5.5t22 -2.5q34 0 64 13.5t52.5 36t35.5 53t13 65.5q0 34 -13 64.5t-35.5 53.5t-52.5 36.5t-64 13.5q-32 0 -61.5 -16.5t-52 -42t-37 -58t-16.5 -63.5v-12q-2 -74 -25 -124.5
t-70 -91.5l-42 60q32 30 48.5 66t16.5 92q0 43 -13.5 78t-36 59.5t-53 37.5t-64.5 13q-51 0 -88 -28q38 -35 58.5 -76t20.5 -94q0 -66 -31.5 -119.5t-74.5 -88.5q-23 19 -45.5 41t-40 49t-28.5 59.5t-11 72.5q0 56 19 103t51.5 81t76 53t93.5 19q67 0 121.5 -34t84.5 -94
q36 59 88 94t112 35q49 0 92 -19t75 -51.5t51 -76t19 -92.5zM221 192q0 39 -16.5 69t-45.5 53q-15 -22 -23.5 -50t-8.5 -60q0 -41 17.5 -70t41.5 -54q20 29 27.5 57t7.5 55z" />
    <glyph glyph-name="uAA72" unicode="&#xaa72;" horiz-adv-x="1210" 
d="M1154 222q0 -49 -18.5 -92.5t-50 -76.5t-75 -52t-92.5 -19q-57 0 -105.5 26t-79.5 70q-12 -29 -30 -52t-42 -43l-42 60q31 32 48 68.5t17 93.5q0 39 -13 72.5t-35.5 58.5t-53 39.5t-66.5 14.5q-44 0 -76 -18.5t-52.5 -46t-30 -60t-9.5 -60.5t2 -55.5t0 -55.5
q-3 -21 -10 -41t-21 -36t-36 -25.5t-54 -9.5q-36 0 -67.5 17.5t-55 47t-37.5 67t-14 77.5q0 21 5.5 41t13.5 37t17.5 30t17.5 21q21 -6 42 -19t40 -31.5t33.5 -42t22.5 -50.5q10 -29 12 -58.5t-2 -53.5q8 8 12.5 15.5t7.5 17.5q1 16 1.5 28.5t0 24.5l-1 24.5t-0.5 29.5
q0 44 14.5 89.5t44.5 82.5t75 60.5t105 23.5q65 0 117.5 -31t84.5 -87q30 53 82.5 85.5t118.5 32.5q49 0 92 -19t74.5 -51.5t50 -76t18.5 -92.5zM1082 222q0 34 -13 64.5t-35 53.5t-52 36.5t-64 13.5t-63.5 -13.5t-51.5 -36.5t-34.5 -54t-12.5 -66q0 -34 13 -64t35 -52.5
t52 -36t63 -13.5q34 0 63.5 13.5t51.5 36t35 53t13 65.5zM190 163q-12 29 -29.5 50t-34.5 30q-5 -11 -9 -22t-4 -25q0 -27 7.5 -51.5t20.5 -43.5t28.5 -31.5t32.5 -14.5q4 24 1 54t-13 54z" />
    <glyph glyph-name="uAA73" unicode="&#xaa73;" horiz-adv-x="647" 
d="M591 221q0 -44 -11 -87t-32.5 -77t-52.5 -54.5t-71 -20.5q-44 0 -82 34.5t-74 86t-71 111.5t-73 111v-325h-69v447h67q32 -42 62.5 -87.5l58.5 -89l53.5 -83t48 -69t42.5 -47t37 -17.5q23 0 41 15t30 39t18 54t6 59q0 47 -12.5 79.5t-32 52t-43.5 28t-46 8.5
q-8 0 -17.5 -2t-17.5 -8l-29 64q13 10 30.5 14t33.5 4q49 0 87 -19t64.5 -51.5t40.5 -76.5t14 -93z" />
    <glyph glyph-name="uAA74" unicode="&#xaa74;" horiz-adv-x="779" 
d="M651 782q-8 25 -30.5 41t-50.5 16q-50 0 -81.5 -31.5t-31.5 -79.5q0 -30 18 -52t45.5 -41.5l59.5 -40.5t59.5 -49t45.5 -66t18 -92v-667q0 -86 -40.5 -131.5t-110.5 -45.5q-15 0 -33.5 4.5t-39 14.5t-41.5 24.5t-39 35.5q-5 -12 -13 -26t-20.5 -26t-29.5 -19.5t-39 -7.5
q-19 0 -38.5 7.5t-35 21.5t-25.5 34.5t-10 46.5t10 46.5t25.5 34.5t35 21t38.5 7q11 0 23 -2t24 -9v228q-22 -7 -50 -7q-51 0 -94.5 19.5t-75.5 54t-50.5 81.5t-18.5 102q0 87 24 139.5t71 91.5l42 -60q-15 -15 -27 -30.5t-20.5 -35.5t-13 -45.5t-4.5 -59.5q0 -39 12.5 -73
t35 -58.5t53 -39t66.5 -14.5q26 0 50 8v301q0 109 68 109q15 0 37.5 -15.5t43.5 -44.5t36 -71t15 -95q0 -86 -36 -146t-98 -91v-283q34 -47 72 -74.5t70 -27.5q27 0 43.5 11.5t24.5 31t10.5 46t2.5 55.5v629q0 43 -18.5 73.5t-45.5 54t-59.5 43.5t-59.5 43.5t-45.5 53.5
t-18.5 73q0 40 14.5 73.5t39 58t58 38t72.5 13.5q51 0 89 -25.5t54 -69.5zM297 -395q15 0 32 14t17 43v12q-5 8 -18.5 17.5t-30.5 9.5q-21 0 -34 -15t-13 -33q0 -21 14 -34.5t33 -13.5zM477 236q0 31 -7 58.5t-17.5 48.5t-21.5 33t-19 12q-3 0 -3 -14v-293q32 26 50 65
t18 90z" />
    <glyph glyph-name="uAA75" unicode="&#xaa75;" horiz-adv-x="1128" 
d="M1027 782q-9 26 -31.5 41.5t-50.5 15.5q-26 0 -46.5 -9t-35 -24t-22.5 -35.5t-8 -42.5q0 -30 18 -52t45.5 -42l59 -41t59 -48.5t45.5 -64.5t18 -90v-670q0 -51 -13.5 -85t-36.5 -54.5t-52.5 -29t-60.5 -8.5q-51 0 -102.5 21t-86.5 56q-5 -13 -14 -26.5t-21.5 -25
t-29 -18.5t-36.5 -7q-19 0 -38.5 7.5t-35 21.5t-25.5 34.5t-10 46.5t10 46.5t25.5 34.5t35 21t38.5 7q11 0 23 -2.5t24 -10.5v307q10 -2 18 -2.5t17 -0.5q36 0 63.5 15t46 39t28.5 54t10 61q0 34 -13 64.5t-35 53.5t-51.5 36.5t-63.5 13.5q-33 0 -62.5 -15.5t-52 -42
t-36 -60t-14.5 -69.5q-2 -78 -25.5 -129t-69.5 -92l-42 60q32 32 48.5 71.5t16.5 91.5q0 41 -14 75t-37.5 58t-53.5 37.5t-62 13.5q-42 0 -72 -14t-50 -32.5t-29.5 -37.5t-9.5 -28q0 -21 10 -34.5t25 -24.5t32 -20.5t32 -21.5t25 -29t10 -42q0 -30 -9 -52.5t-25 -37.5
t-36.5 -22.5t-42.5 -7.5q-15 0 -30 5t-27.5 13t-22 18t-13.5 20l57 35q2 -5 11.5 -14.5t24.5 -9.5q17 0 31.5 11.5t14.5 41.5q0 14 -10.5 22.5t-25.5 16.5t-33.5 17t-33.5 23.5t-25.5 36.5t-10.5 56q0 29 16.5 61.5t46.5 59.5t73 44.5t96 17.5q66 0 120.5 -33t85.5 -94
q31 56 83 92t115 36q49 0 92 -19t75 -51.5t50.5 -76t18.5 -92.5q0 -47 -15 -87t-40.5 -71t-60 -51t-73.5 -27v-273q14 -18 35 -35.5t45 -31.5t49.5 -22.5t47.5 -8.5q32 0 50.5 10t28 29.5t12 49t2.5 67.5v618q0 43 -18.5 72.5t-45.5 53t-59.5 44t-59.5 44t-45.5 53
t-18.5 72.5q0 40 14.5 73.5t39.5 58t58.5 38t71.5 13.5q51 0 90.5 -26.5t53.5 -68.5zM625 -395q6 0 14 3t15.5 9.5t13 17t6.5 26.5v13q-6 8 -19 17.5t-30 9.5q-21 0 -34 -15t-13 -33q0 -21 14 -34.5t33 -13.5z" />
    <glyph glyph-name="uAA76" unicode="&#xaa76;" horiz-adv-x="1178" 
d="M1070 782q-8 26 -30.5 41.5t-50.5 15.5q-26 0 -46.5 -9t-35.5 -24t-23 -35.5t-8 -42.5q0 -30 18 -52t45.5 -42t59.5 -40.5t59.5 -48t45.5 -65.5t18 -93v-667q0 -51 -13.5 -85t-36.5 -54.5t-52.5 -29t-60.5 -8.5q-51 0 -98.5 22t-82.5 57q-4 -12 -12.5 -26t-21 -26
t-29 -19.5t-36.5 -7.5t-39 7.5t-35 21.5t-25.5 34.5t-9.5 46.5t9.5 46.5t25.5 34.5t35 21t39 7q10 0 22 -2.5t24 -10.5v307q7 -1 16 -1.5t15 -0.5q36 0 64 14.5t47 38.5t29 54t10 61q0 34 -12.5 64.5t-35 53.5t-54 36.5t-68.5 13.5q-36 0 -71.5 -18.5t-63.5 -48.5t-45.5 -68
t-17.5 -77v-450q0 -38 -13.5 -70t-39.5 -58q-26 -27 -58 -42t-70 -15h-153q-29 0 -50.5 11t-35.5 28t-21.5 39t-7.5 44q0 23 9 44.5t25.5 38t40 26.5t51.5 10q27 0 45 -6.5t32 -17.5l-40 -60q-20 12 -37 12q-26 0 -40 -13.5t-14 -33.5q0 -19 13 -34.5t39 -15.5h117
q21 0 36 1.5t26.5 5t20.5 10t20 16.5q16 16 24.5 40t8.5 50v466q0 41 -14 75t-37.5 59t-54 38.5t-64.5 13.5q-48 0 -93.5 -28.5t-70.5 -82.5l-63 33q15 39 40 67t55.5 46t64.5 26.5t67 8.5q43 0 78.5 -13t63.5 -33.5t47 -45.5t28 -48q19 33 44 59t54.5 44.5t61 28t63.5 9.5
q49 0 92.5 -18t76.5 -50t52.5 -76t19.5 -95q0 -45 -14 -85t-39 -71.5t-59 -52t-73 -26.5v-274q13 -18 32.5 -35.5t42 -31.5t46.5 -22.5t46 -8.5q31 0 49.5 9.5t28 28.5t12 48.5t2.5 69.5v616q0 44 -18 74t-45.5 53.5t-59.5 43.5t-59.5 43t-45.5 53t-18 74q0 40 14.5 73.5
t39 58t58 38t72.5 13.5q51 0 90 -26.5t53 -68.5zM679 -395q6 0 14 3t15.5 9.5t13 17.5t6.5 26v13q-5 8 -19 17.5t-30 9.5q-20 0 -34 -15t-14 -33q0 -21 15 -34.5t33 -13.5z" />
    <glyph glyph-name="uAA77" unicode="&#xaa77;" horiz-adv-x="877" 
d="M634 0v372h-148q31 -35 48.5 -81.5t17.5 -106.5v-569h78v-72h-149v637q0 51 -16.5 90t-43.5 65.5t-60.5 40.5t-66.5 14q-32 0 -62.5 -13t-53.5 -35.5t-37 -53.5t-14 -66q0 -39 15 -70.5t39 -53t54 -33t60 -11.5q19 0 41 4.5t39 12.5l24 -68q-21 -10 -49.5 -15.5
t-55.5 -5.5q-49 0 -92.5 19t-76 51.5t-51.5 76t-19 93.5q0 40 14 78t38.5 69.5t59 53.5t75.5 31q-26 9 -50 25.5t-42.5 40t-29.5 52.5t-11 64q0 42 15.5 76t41 58t58.5 37.5t68 13.5q42 0 79.5 -20t57.5 -57l-41 -34q-17 29 -43.5 42.5t-52.5 13.5q-23 0 -46 -9t-41 -25.5
t-29.5 -41t-11.5 -54.5q0 -36 15.5 -61.5t36.5 -42t43 -24t35 -7.5v-41q23 0 45.5 -4t45.5 -12h319v-372h128v-72h-198z" />
    <glyph glyph-name="uAA78" unicode="&#xaa78;" horiz-adv-x="593" 
d="M761 576q-19 32 -41 32q-15 0 -37.5 -19.5t-47 -56t-49 -88.5t-44 -116.5t-32 -140.5t-12.5 -161l-71 -43q-14 20 -31 32.5t-34 19t-32 8.5t-24 2t-24 -2t-32 -9t-34.5 -19t-31.5 -32l-52 41q26 36 69 62t105 26q29 0 61.5 -8t63.5 -31q3 84 17.5 161.5t37.5 145.5
t51.5 123t60 95t63 61.5t59.5 21.5q20 0 40.5 -12t38.5 -39zM480 421q-26 -35 -68.5 -61t-105.5 -26t-105.5 26t-68.5 61l52 41q15 -19 32 -31t33.5 -19t31 -9.5t25.5 -2.5q10 0 25 2.5t31 9.5t33 19t32 31zM183 223q0 -63 -26 -105.5t-61 -68.5l-41 53q19 15 31 32t19 33
t9.5 30.5t2.5 25.5q0 10 -2.5 25t-9.5 31.5t-19 33.5t-31 32l41 52q35 -26 61 -68.5t26 -105.5z" />
    <glyph glyph-name="uAA79" unicode="&#xaa79;" horiz-adv-x="611" 
d="M481 -457v637q0 51 -16.5 90t-43.5 65.5t-60.5 40.5t-66.5 14q-32 0 -62.5 -13t-53.5 -35.5t-37 -53.5t-14 -66q0 -39 15 -70.5t39 -53t54 -33t60 -11.5q21 0 42.5 4.5t37.5 11.5l24 -67q-51 -21 -105 -21q-49 0 -92.5 19t-76 51.5t-51.5 76t-19 93.5q0 46 18 89t50.5 76
t76 53t94.5 20t97.5 -18.5t82 -53.5t57 -86.5t21.5 -117.5v-569h78v-72h-149z" />
    </font>
</defs>
</svg>
